<?xml version="1.0" encoding="UTF-8"?> <svg xmlns="http://www.w3.org/2000/svg" width="607" height="188" viewBox="0 0 607 188" fill="none"> <path d="M220.5 160.8L142.2 84C141.4 83.2 140.2 83.2 139.3 83.9L118.2 102.3L97.0999 83.9C96.2999 83.2 94.9999 83.2 94.1999 84L84.3999 93.5999L65.0999 24.2C64.7999 23.3 63.9999 22.7 63.0999 22.7C62.1999 22.7 61.2999 23.3 61.0999 24.2L22.7999 161.8C22.5999 162.4 22.7999 163.1 23.1999 163.6C23.5999 164.1 24.1999 164.4 24.8999 164.4H49.7999C50.3999 164.4 50.8999 164.2 51.2999 163.8L71.2999 144.2L76.4999 162.9C76.7999 163.8 77.5999 164.4 78.4999 164.4H219C219.9 164.4 220.6 163.9 220.9 163.1C221.3 162.3 221.1 161.4 220.5 160.8ZM209.8 162.3H81.1999H78.2999L77.4999 159.6L72.0999 140.3L50.6999 161.3L49.5999 162.4H48.0999H29.6999H24.7999L26.0999 157.7L59.4999 37.7L63.0999 24.7L66.6999 37.7L83.3999 97.5999L93.2999 87.8999L95.7999 85.5L98.3999 87.8L118.3 105.1L138.2 87.8L140.8 85.5L143.3 87.8999L212.6 155.9L219.1 162.3H209.8Z" fill="#216E0F"></path> <path d="M118.2 110.1L95.8999 90.5999L81.5 104.7L63.0999 38.7L29.7 158.6H48.0999L74.0999 133.1L81.1999 158.6H209.9L140.6 90.5999L118.2 110.1ZM52 133.7L63.0999 93.6999L69.5 116.5L52 133.7ZM92.1999 143.2L86.0999 121.3L96.5 111.1L118.3 130.1L140.1 111.1L172.8 143.2H92.1999Z" fill="#216E0F"></path> <path d="M238.9 153.6C238.9 150.6 241.3 148.2 244.5 148.2C247.7 148.2 250.1 150.5 250.1 153.5C250.1 156.5 247.7 158.9 244.5 158.9C241.3 159 238.9 156.6 238.9 153.6ZM247.2 153.6C247.2 152 246.1 150.7 244.5 150.7C242.8 150.7 241.8 152 241.8 153.5C241.8 155 242.9 156.3 244.5 156.3C246.2 156.4 247.2 155.2 247.2 153.6Z" fill="#216E0F"></path> <path d="M251.4 153.6C251.4 150.6 253.7 148.2 256.8 148.2C258.7 148.2 259.9 148.9 260.9 149.9L259.1 151.8C258.4 151.1 257.8 150.7 256.8 150.7C255.3 150.7 254.3 152 254.3 153.5C254.3 155.1 255.3 156.3 256.9 156.3C257.9 156.3 258.6 155.9 259.3 155.2L261 156.9C260 158 258.8 158.8 256.8 158.8C253.6 159 251.4 156.6 251.4 153.6Z" fill="#216E0F"></path> <path d="M262.5 148.4H265.4V152.2H269.2V148.4H272.1V158.7H269.2V154.8H265.4V158.7H262.5V148.4Z" fill="#216E0F"></path> <path d="M274.1 153.6C274.1 150.6 276.5 148.2 279.7 148.2C282.9 148.2 285.3 150.5 285.3 153.5C285.3 156.5 282.9 158.9 279.7 158.9C276.5 159 274.1 156.6 274.1 153.6ZM282.4 153.6C282.4 152 281.3 150.7 279.7 150.7C278 150.7 277 152 277 153.5C277 155 278.1 156.3 279.7 156.3C281.4 156.4 282.4 155.2 282.4 153.6Z" fill="#216E0F"></path> <path d="M287.1 148.4H292.4C294.6 148.4 296 149.4 296 151.1C296 152.3 295.4 152.9 294.5 153.3C295.7 153.7 296.4 154.4 296.4 155.7C296.4 157.7 294.7 158.6 292.3 158.6H287V148.4H287.1ZM291.8 152.6C292.8 152.6 293.2 152.2 293.2 151.5C293.2 150.9 292.8 150.5 291.9 150.5H290V152.6H291.8ZM290 156.7H292.3C293.2 156.7 293.7 156.4 293.7 155.6C293.7 155 293.2 154.5 292.2 154.6H290V156.7Z" fill="#216E0F"></path> <path d="M297.7 155.8C297.7 153.5 299.4 152.5 301.9 152.5C303 152.5 303.7 152.7 304.4 152.9V152.7C304.4 151.5 303.6 150.8 302.2 150.8C301.1 150.8 300.3 151 299.4 151.4L298.7 149.2C299.8 148.7 301 148.4 302.7 148.4C304.3 148.4 305.4 148.8 306.2 149.6C307 150.4 307.3 151.5 307.3 152.9V158.9H304.5V157.8C303.8 158.6 302.8 159.1 301.4 159.1C299.3 158.9 297.7 157.8 297.7 155.8ZM304.5 155.1V154.6C304 154.4 303.3 154.2 302.6 154.2C301.3 154.2 300.6 154.7 300.6 155.6C300.6 156.4 301.3 156.9 302.2 156.9C303.6 156.9 304.5 156.2 304.5 155.1Z" fill="#216E0F"></path> <path d="M309.6 148.4H312.5V152.2H316.3V148.4H319.2V158.7H316.3V154.8H312.5V158.7H309.6V148.4Z" fill="#216E0F"></path> <path d="M326.7 148.4H332C334.2 148.4 335.6 149.4 335.6 151.1C335.6 152.3 335 152.9 334.1 153.3C335.3 153.7 336 154.4 336 155.7C336 157.7 334.3 158.6 331.9 158.6H326.6V148.4H326.7ZM331.4 152.6C332.4 152.6 332.8 152.2 332.8 151.5C332.8 150.9 332.4 150.5 331.5 150.5H329.6V152.6H331.4ZM329.6 156.7H331.9C332.8 156.7 333.3 156.4 333.3 155.6C333.3 155 332.8 154.5 331.8 154.6H329.6V156.7Z" fill="#216E0F"></path> <path d="M345.1 148.2L342.8 148.8L342.2 146.4L346.1 145.2H348.1V158.8H345.2V148.2H345.1Z" fill="#216E0F"></path> <path d="M350.3 155C350.3 153.3 351 152.4 352.5 151.7C351.4 151.1 350.8 150.2 350.8 148.8C350.8 146.7 352.7 145.1 355.5 145.1C358.3 145.1 360.2 146.7 360.2 148.8C360.2 150.3 359.5 151.1 358.5 151.7C359.9 152.4 360.7 153.3 360.7 154.9C360.7 157.4 358.5 158.9 355.5 158.9C352.5 158.9 350.3 157.4 350.3 155ZM357.8 154.8C357.8 153.7 356.8 153.1 355.5 153.1C354.2 153.1 353.2 153.7 353.2 154.8C353.2 155.7 354.1 156.5 355.5 156.5C356.9 156.5 357.8 155.8 357.8 154.8ZM357.4 149.1C357.4 148.2 356.7 147.5 355.5 147.5C354.3 147.5 353.6 148.2 353.6 149.1C353.6 150 354.4 150.8 355.5 150.8C356.6 150.8 357.4 150.1 357.4 149.1Z" fill="#216E0F"></path> <path d="M362.2 152C362.2 148.1 364.6 145 368.2 145C371.8 145 374.2 148 374.2 151.9C374.2 155.8 371.8 158.9 368.2 158.9C364.5 159 362.2 156 362.2 152ZM371.1 152C371.1 149.5 369.9 147.7 368.1 147.7C366.3 147.7 365.2 149.5 365.2 152C365.2 154.5 366.4 156.3 368.2 156.3C370 156.3 371.1 154.5 371.1 152Z" fill="#216E0F"></path> <path d="M375.3 156.4L379.8 152.7C381.5 151.3 382.1 150.6 382.1 149.5C382.1 148.3 381.4 147.7 380.3 147.7C379.2 147.7 378.5 148.3 377.5 149.5L375.4 147.8C376.7 146 378 145 380.4 145C383.2 145 385 146.6 385 149.2C385 151.5 383.8 152.6 381.5 154.4L379.3 156.1H385.2V158.7H375.2V156.4H375.3V156.4Z" fill="#216E0F"></path> <path d="M392.5 148.4H400.4V151H395.4V158.7H392.5V148.4Z" fill="#216E0F"></path> <path d="M401.3 153.6C401.3 150.6 403.7 148.2 406.9 148.2C410.1 148.2 412.5 150.5 412.5 153.5C412.5 156.5 410.1 158.9 406.9 158.9C403.7 159 401.3 156.6 401.3 153.6ZM409.6 153.6C409.6 152 408.5 150.7 406.9 150.7C405.2 150.7 404.2 152 404.2 153.5C404.2 155 405.3 156.3 406.9 156.3C408.6 156.4 409.6 155.2 409.6 153.6Z" fill="#216E0F"></path> <path d="M424.4 156.1H425.6V161.2H423V158.7H416V161.2H413.4V156.1H414.6L418 148.3H421.1L424.4 156.1ZM417.4 156.2H421.4L419.4 151.3L417.4 156.2Z" fill="#216E0F"></path> <path d="M433.7 148.4H436.7L432.7 159C431.9 161.1 431 161.9 429.3 161.9C428.2 161.9 427.5 161.6 426.7 161.2L427.7 159.1C428.1 159.3 428.6 159.5 429 159.5C429.5 159.5 429.8 159.3 430 158.8L426 148.4H429.1L431.4 155.4L433.7 148.4Z" fill="#216E0F"></path> <path d="M239.6 112.5C242 110.4 244.5 109 248.3 109C253.3 109 256.2 111.2 256.2 114.7C256.2 117.4 254.8 118.7 252.6 119.6C255 120.3 256.7 121.5 256.7 124.5C256.7 128.1 253.5 130.7 247.9 130.7C244.1 130.7 241.3 129.3 239.1 127.5L241.8 124.2C243.6 125.6 245.6 126.6 247.9 126.6C250.2 126.6 251.9 125.8 251.9 124.1C251.9 122.6 250.4 121.7 247.9 121.7H244V117.9H248C250.2 117.9 251.3 116.9 251.3 115.4C251.3 114 250.1 113.2 248 113.2C245.8 113.2 244 114.2 242.2 115.7L239.6 112.5Z" fill="#216E0F"></path> <path d="M258.6 125.8C258.6 122.3 261.3 120.6 265.1 120.6C266.7 120.6 267.9 120.9 269 121.3V121C269 119.1 267.8 118.1 265.5 118.1C263.7 118.1 262.5 118.4 261.1 119L260 115.5C261.8 114.7 263.5 114.2 266.2 114.2C268.7 114.2 270.5 114.8 271.6 116C272.8 117.2 273.3 119 273.3 121.1V130.4H269V128.7C267.9 129.9 266.4 130.7 264.1 130.7C261.1 130.7 258.6 129 258.6 125.8ZM269.1 124.7V123.9C268.3 123.5 267.3 123.3 266.2 123.3C264.3 123.3 263.1 124.1 263.1 125.5V125.6C263.1 126.8 264.1 127.6 265.6 127.6C267.7 127.5 269.1 126.4 269.1 124.7Z" fill="#216E0F"></path> <path d="M277 114.3H285.2C288.6 114.3 290.8 115.8 290.8 118.5C290.8 120.4 289.9 121.3 288.5 122C290.3 122.7 291.5 123.6 291.5 125.8C291.5 128.9 288.9 130.4 285.2 130.4H277V114.3ZM284.3 120.8C285.8 120.8 286.4 120.1 286.4 119.2C286.4 118.3 285.7 117.6 284.3 117.6H281.4V120.8H284.3V120.8ZM281.4 127.2H284.9C286.3 127.2 287.1 126.7 287.1 125.5C287.1 124.5 286.3 123.9 284.8 123.9H281.4V127.2Z" fill="#216E0F"></path> <path d="M293.4 122.4C293.4 117.7 297.1 114 302.1 114C307 114 310.8 117.7 310.8 122.3V122.4C310.8 127 307.1 130.8 302.1 130.8C297.2 130.8 293.4 127.1 293.4 122.4ZM306.3 122.4C306.3 120 304.6 117.9 302.1 117.9C299.5 117.9 297.9 119.9 297.9 122.3V122.4C297.9 124.8 299.6 126.8 302.1 126.8C304.8 126.8 306.3 124.8 306.3 122.4Z" fill="#216E0F"></path> <path d="M329.3 126.3H331.1V134.2H327V130.3H316.1V134.2H312V126.3H313.8L319.1 114.2H323.9L329.3 126.3ZM318.4 126.5H324.7L321.6 118.9L318.4 126.5Z" fill="#216E0F"></path> <path d="M240.6 75.3999H245.6L251.1 84.2999L256.6 75.3999H261.6V96.3999H257V82.6999L251.1 91.6999H251L245.2 82.7999V96.3999H240.7L240.6 75.3999Z" fill="#216E0F"></path> <path d="M264.6 91.8C264.6 88.3 267.3 86.6 271.1 86.6C272.7 86.6 273.9 86.9 275 87.3V87C275 85.1 273.8 84.1 271.5 84.1C269.7 84.1 268.5 84.4 267.1 85L266 81.5C267.8 80.7 269.5 80.2 272.2 80.2C274.7 80.2 276.5 80.8 277.6 82C278.8 83.2 279.3 85 279.3 87.1V96.4H275V94.7C273.9 95.9 272.4 96.7 270.1 96.7C267.1 96.7 264.6 95 264.6 91.8ZM275.1 90.7V89.9C274.3 89.5 273.3 89.3 272.2 89.3C270.3 89.3 269.1 90.1 269.1 91.5V91.6C269.1 92.8 270.1 93.6 271.6 93.6C273.7 93.5 275.1 92.4 275.1 90.7Z" fill="#216E0F"></path> <path d="M283 80.2999H287.6V92.2999H292.9V80.2999H297.5V92.2999H302.8V80.2999H307.4V96.3999H283V80.2999Z" fill="#216E0F"></path> <path d="M311.1 80.2999H315.6V89.0999L321.9 80.2999H326.2V96.3999H321.7V87.1999L315.2 96.3999H311.2L311.1 80.2999Z" fill="#216E0F"></path> <path d="M329.9 80.2999H334.5V86.1999H340.5V80.2999H345.1V96.3999H340.5V90.3999H334.5V96.3999H329.9V80.2999Z" fill="#216E0F"></path> <path d="M347.8 88.3999C347.8 83.6999 351.5 79.9999 356.5 79.9999C361.4 79.9999 365.2 83.6999 365.2 88.2999V88.3999C365.2 92.9999 361.5 96.7999 356.5 96.7999C351.5 96.6999 347.8 93.0999 347.8 88.3999ZM360.7 88.3999C360.7 85.9999 359 83.8999 356.5 83.8999C353.9 83.8999 352.3 85.8999 352.3 88.2999V88.3999C352.3 90.7999 354 92.7999 356.5 92.7999C359.1 92.7999 360.7 90.7999 360.7 88.3999Z" fill="#216E0F"></path> <path d="M367.1 88.3999C367.1 83.6999 370.6 79.9999 375.5 79.9999C378.5 79.9999 380.4 80.9999 381.9 82.6999L379.1 85.6999C378.1 84.5999 377.1 83.8999 375.4 83.8999C373.1 83.8999 371.5 85.8999 371.5 88.2999V88.3999C371.5 90.8999 373.1 92.7999 375.6 92.7999C377.1 92.7999 378.2 92.0999 379.3 91.0999L382 93.7999C380.4 95.4999 378.6 96.6999 375.4 96.6999C370.6 96.6999 367.1 92.9999 367.1 88.3999Z" fill="#216E0F"></path> <path d="M388.8 84.2999H383.6V80.2999H398.6V84.2999H393.4V96.2999H388.8V84.2999Z" fill="#216E0F"></path> <path d="M400.8 80.2999H405.4V82.5999C406.5 81.0999 408 79.9999 410.4 79.9999C414.2 79.9999 417.7 82.8999 417.7 88.2999V88.3999C417.7 93.7999 414.2 96.6999 410.4 96.6999C408 96.6999 406.5 95.5999 405.4 94.2999V101.2H400.8V80.2999ZM413.1 88.3999C413.1 85.6999 411.3 83.8999 409.2 83.8999C407.1 83.8999 405.3 85.6999 405.3 88.2999V88.3999C405.3 91.0999 407.1 92.7999 409.2 92.7999C411.3 92.7999 413.1 91.0999 413.1 88.3999Z" fill="#216E0F"></path> <path d="M419.6 88.3999C419.6 83.6999 423.3 79.9999 428.3 79.9999C433.3 79.9999 437 83.6999 437 88.2999V88.3999C437 92.9999 433.3 96.7999 428.3 96.7999C423.3 96.6999 419.6 93.0999 419.6 88.3999ZM432.5 88.3999C432.5 85.9999 430.8 83.8999 428.3 83.8999C425.7 83.8999 424.1 85.8999 424.1 88.2999V88.3999C424.1 90.7999 425.8 92.7999 428.3 92.7999C431 92.7999 432.5 90.7999 432.5 88.3999Z" fill="#216E0F"></path> <path d="M439.8 80.2999H444.3V89.0999L450.6 80.2999H454.9V96.3999H450.4V87.1999L443.9 96.3999H439.9L439.8 80.2999Z" fill="#216E0F"></path> <path d="M462.4 84.2999H457.2V80.2999H472.2V84.2999H467V96.2999H462.4V84.2999Z" fill="#216E0F"></path> <path d="M473.6 88.3999C473.6 83.6999 476.9 79.9999 481.5 79.9999C486.9 79.9999 489.3 84.1999 489.3 88.6999C489.3 89.0999 489.3 89.4999 489.2 89.8999H478C478.5 91.9999 479.9 93.0999 481.9 93.0999C483.4 93.0999 484.5 92.5999 485.8 91.3999L488.4 93.6999C486.9 95.5999 484.7 96.6999 481.8 96.6999C477.1 96.6999 473.6 93.2999 473.6 88.3999ZM484.9 87.0999C484.6 85.0999 483.4 83.6999 481.5 83.6999C479.6 83.6999 478.4 85.0999 478 87.0999H484.9Z" fill="#216E0F"></path> <path d="M507.9 96.4H503L499 85.8L494.9 96.4H490.1L496.9 80.2H501.2L507.9 96.4Z" fill="#216E0F"></path> <path d="M509.8 80.2999H514.3V84.8999H517.2C521.1 84.8999 523.7 86.7999 523.7 90.5999C523.7 94.0999 521.3 96.3999 516.9 96.3999H509.8V80.2999ZM516.8 92.6999C518.4 92.6999 519.3 91.9999 519.3 90.5999C519.3 89.3999 518.4 88.4999 516.9 88.5999H514.4V92.7999L516.8 92.6999Z" fill="#216E0F"></path> <path d="M526.2 80.2999H530.8V86.1999H536.8V80.2999H541.4V96.3999H536.8V90.3999H530.8V96.3999H526.2V80.2999Z" fill="#216E0F"></path> <path d="M549.5 84.8999H552.4C556.3 84.8999 558.9 86.7999 558.9 90.5999C558.9 94.0999 556.5 96.3999 552.1 96.3999H545V80.2999H549.5V84.8999ZM549.5 92.6999H552C553.6 92.6999 554.5 91.9999 554.5 90.5999C554.5 89.3999 553.6 88.4999 552.1 88.5999H549.6L549.5 92.6999ZM561.2 80.2999H565.8V96.3999H561.2V80.2999Z" fill="#216E0F"></path> <path d="M569.5 80.2999H574V89.0999L580.3 80.2999H584.6V96.3999H580V87.1999L573.5 96.3999H569.5V80.2999ZM571.4 73.7999H574.5C574.9 74.8999 575.5 75.5999 577.1 75.5999C578.6 75.5999 579.3 74.8999 579.7 73.7999H582.8C582.5 76.7999 580.4 78.5999 577.2 78.5999C573.8 78.5999 571.6 76.7999 571.4 73.7999Z" fill="#216E0F"></path> <path d="M247.8 41.2H252.1L261.1 62.2999H256.3L254.4 57.5999H245.5L243.6 62.2999H238.9L247.8 41.2ZM252.7 53.5999L249.9 46.7999L247.1 53.5999H252.7Z" fill="#216E0F"></path> <path d="M280.2 62.4H275.3L271.3 51.7999L267.2 62.4H262.4L269.1 46.2H273.4L280.2 62.4Z" fill="#216E0F"></path> <path d="M280.6 54.3999C280.6 49.6999 283.9 45.9999 288.5 45.9999C293.9 45.9999 296.3 50.1999 296.3 54.6999C296.3 55.0999 296.3 55.4999 296.2 55.8999H285C285.5 57.9999 286.9 59.0999 288.9 59.0999C290.4 59.0999 291.5 58.5999 292.8 57.3999L295.4 59.6999C293.9 61.5999 291.7 62.6999 288.8 62.6999C284.2 62.6999 280.6 59.2999 280.6 54.3999ZM291.9 53.0999C291.6 51.0999 290.4 49.6999 288.5 49.6999C286.6 49.6999 285.4 51.0999 285 53.0999H291.9Z" fill="#216E0F"></path> <path d="M303.8 52.2999H304.9L309.4 46.2999H314.9L308.3 54.1999L315.1 62.3999H309.7L304.8 56.2999H303.7V62.3999H299.1V46.2999H303.7V52.2999H303.8Z" fill="#216E0F"></path> <path d="M315.3 54.3999C315.3 49.6999 318.8 45.9999 323.7 45.9999C326.7 45.9999 328.6 46.9999 330.1 48.6999L327.3 51.6999C326.3 50.5999 325.3 49.8999 323.6 49.8999C321.3 49.8999 319.7 51.8999 319.7 54.2999V54.3999C319.7 56.8999 321.3 58.7999 323.8 58.7999C325.3 58.7999 326.4 58.0999 327.5 57.0999L330.2 59.7999C328.6 61.4999 326.8 62.6999 323.6 62.6999C318.8 62.6999 315.3 58.9999 315.3 54.3999Z" fill="#216E0F"></path> <path d="M331.7 57.7C331.7 54.2 334.4 52.5 338.2 52.5C339.8 52.5 341 52.8 342.1 53.2V52.9C342.1 51 340.9 50 338.6 50C336.8 50 335.6 50.3 334.2 50.9L333.1 47.4C334.9 46.6 336.6 46.1 339.3 46.1C341.8 46.1 343.6 46.7 344.7 47.9C345.9 49.1 346.4 50.9 346.4 53V62.3H342V60.6C340.9 61.8 339.4 62.6 337.1 62.6C334.2 62.7 331.7 61 331.7 57.7ZM342.2 56.7V55.9C341.4 55.5 340.4 55.3 339.3 55.3C337.4 55.3 336.2 56.1 336.2 57.5V57.6C336.2 58.8 337.2 59.6 338.7 59.6C340.8 59.5 342.2 58.4 342.2 56.7Z" fill="#216E0F"></path> <path d="M350.1 46.2999H354.7V52.1999H360.7V46.2999H365.3V62.3999H360.7V56.3999H354.7V62.3999H350.1V46.2999Z" fill="#216E0F"></path> <path d="M384.4 58.2999H386.2V66.1999H382.1V62.2999H371.2V66.1999H367.1V58.2999H368.9L374.2 46.2H379L384.4 58.2999ZM373.5 58.4H379.8L376.7 50.7999L373.5 58.4Z" fill="#216E0F"></path> <path d="M388.6 46.2999H393.2V48.5999C394.3 47.0999 395.8 45.9999 398.2 45.9999C402 45.9999 405.5 48.8999 405.5 54.2999V54.3999C405.5 59.7999 402 62.6999 398.2 62.6999C395.8 62.6999 394.3 61.5999 393.2 60.2999V67.1999H388.6V46.2999ZM400.9 54.3999C400.9 51.6999 399.1 49.8999 397 49.8999C394.9 49.8999 393.1 51.6999 393.1 54.2999V54.3999C393.1 57.0999 394.9 58.7999 397 58.7999C399.1 58.7999 400.9 57.0999 400.9 54.3999Z" fill="#216E0F"></path> <path d="M407.4 54.3999C407.4 49.6999 411.1 45.9999 416.1 45.9999C421 45.9999 424.8 49.6999 424.8 54.2999V54.3999C424.8 58.9999 421.1 62.7999 416.1 62.7999C411.1 62.6999 407.4 59.0999 407.4 54.3999ZM420.3 54.3999C420.3 51.9999 418.6 49.8999 416.1 49.8999C413.5 49.8999 411.9 51.8999 411.9 54.2999V54.3999C411.9 56.7999 413.6 58.7999 416.1 58.7999C418.8 58.7999 420.3 56.7999 420.3 54.3999Z" fill="#216E0F"></path> <path d="M427.6 46.2999H435.8C439.2 46.2999 441.4 47.7999 441.4 50.4999C441.4 52.3999 440.5 53.2999 439.1 53.9999C440.9 54.6999 442.1 55.5999 442.1 57.7999C442.1 60.8999 439.5 62.3999 435.8 62.3999H427.6V46.2999ZM435 52.6999C436.5 52.6999 437.1 51.9999 437.1 51.0999C437.1 50.1999 436.4 49.4999 435 49.4999H432.1V52.6999H435ZM432.1 59.1999H435.6C437 59.1999 437.8 58.6999 437.8 57.4999C437.8 56.4999 437 55.8999 435.5 55.8999H432.1V59.1999Z" fill="#216E0F"></path> <path d="M444.1 54.3999C444.1 49.6999 447.6 45.9999 452.5 45.9999C455.5 45.9999 457.4 46.9999 458.9 48.6999L456.1 51.6999C455.1 50.5999 454.1 49.8999 452.4 49.8999C450.1 49.8999 448.5 51.8999 448.5 54.2999V54.3999C448.5 56.8999 450.1 58.7999 452.6 58.7999C454.1 58.7999 455.2 58.0999 456.3 57.0999L459 59.7999C457.4 61.4999 455.6 62.6999 452.4 62.6999C447.6 62.6999 444.1 58.9999 444.1 54.3999Z" fill="#216E0F"></path> <path d="M465.9 52.2999H467L471.5 46.2999H477L470.4 54.1999L477.2 62.3999H471.8L466.9 56.2999H465.8V62.3999H461.2V46.2999H465.8V52.2999H465.9Z" fill="#216E0F"></path> <path d="M479.1 46.2999H483.6V55.0999L489.9 46.2999H494.2V62.3999H489.7V53.1999L483.2 62.3999H479.2L479.1 46.2999Z" fill="#216E0F"></path> <path d="M497.9 46.2999H502.4V55.0999L508.7 46.2999H513V62.3999H508.5V53.1999L502 62.3999H498V46.2999H497.9ZM499.8 39.7999H502.9C503.3 40.8999 503.9 41.5999 505.5 41.5999C507 41.5999 507.7 40.8999 508.1 39.7999H511.2C510.9 42.7999 508.8 44.5999 505.6 44.5999C502.2 44.5999 500 42.7999 499.8 39.7999Z" fill="#216E0F"></path> </svg> 