<?xml version="1.0" encoding="utf-8"?>
<!-- Generator: Adobe Illustrator 26.4.1, SVG Export Plug-In . SVG Version: 6.00 Build 0)  -->
<svg version="1.1" id="Layer_2_00000106840273207104706000000003374723363414963382_"
	 xmlns="http://www.w3.org/2000/svg" xmlns:xlink="http://www.w3.org/1999/xlink" x="0px" y="0px" viewBox="0 0 84.7 28"
	 style="enable-background:new 0 0 84.7 28;" xml:space="preserve">
<style type="text/css">
	.st0{fill:#007218;}
	.st1{fill:#D2233C;}
	.st2{fill:#2368E3;}
	.st3{fill:url(#XMLID_00000029031406376539146180000013271163975074142900_);}
	.st4{fill:url(#XMLID_00000118387934627046540190000007510572741422176687_);}
	.st5{fill:url(#XMLID_00000071521580597737452540000012024182620781013382_);}
	.st6{fill:url(#XMLID_00000004544088082130715650000006713225528931045523_);}
	.st7{fill:url(#XMLID_00000115494575624767399810000003932852289355226277_);}
</style>
<g id="logo_x5F_color">
	<path id="XMLID_00000178900788960154906620000006050861545134605995_" class="st0" d="M38,0.1c-2.6,0.1-4.9,1.2-6.6,3.1l-0.2,0.3
		L34,6.3L34.3,6c1-1.2,2.5-1.9,4-2c3-0.1,5.6,2.2,5.7,5.3c0.1,3-2.2,5.6-5.3,5.7c-1.7,0.1-3.3-0.6-4.4-1.9L34,12.8l-2.8,2.8l0.2,0.3
		c1.9,2.1,4.6,3.2,7.4,3.1c5.2-0.2,9.2-4.6,9-9.8C47.6,4,43.2-0.1,38,0.1z"/>
	<polygon id="XMLID_00000057843692730396992970000017701410587617996733_" class="st1" points="59.4,0.4 46.2,18.7 50.9,18.7 
		60.5,5.8 60.5,18.7 64.4,18.7 64.4,0.4 	"/>
	<polygon id="XMLID_00000087397177774636006250000012276094322181483425_" class="st0" points="43.5,9.5 38.1,11.6 32.7,9.5 
		38.1,7.5 	"/>
	<path id="XMLID_00000016047382373051604690000014840107345044568719_" class="st2" d="M75.5,9.2c-1,0-2.1,0.1-3.1,0.2v-5h10.5v-4
		H68.1v13.5l0.2-0.1c0,0,2.4-0.9,5.8-0.8c3.7,0.1,5.7,1.8,5.7,4.8c0,2.7-2.1,4.7-5.1,4.7c-2.5,0-4.4-1.2-6-3.7l-0.1-0.1l-3.1,2.2
		l0.1,0.1c1.9,3.5,5.2,5.5,9.2,5.5c2.5,0,4.9-0.8,6.6-2.4c1.8-1.6,2.8-3.9,2.8-6.4C84.3,12.2,79.8,9.2,75.5,9.2z"/>
	<g id="XMLID_00000138551923519913017120000001315160847308956057_">
		<path id="XMLID_00000045583985750114509070000006036575762482667446_" class="st1" d="M35.9,24c0,1.5-1.2,2.6-2.6,2.6
			c-0.9,0-1.7-0.5-2.1-1.1l0.6-0.4c0.4,0.5,0.9,0.9,1.5,0.9c0.9,0,1.6-0.6,1.8-1.5h-2.2v-0.7H35c-0.2-0.9-0.9-1.5-1.8-1.5
			c-0.7,0-1.2,0.3-1.5,0.9l-0.6-0.4c0.4-0.7,1.2-1.1,2.1-1.1C34.7,21.4,35.9,22.6,35.9,24z"/>
		<path id="XMLID_00000163787168834300939680000013953525408387934397_" class="st1" d="M36.6,22.8h0.8v1.4H39v-1.4h0.8v3.7H39v-1.6
			h-1.6v1.6h-0.8V22.8z"/>
		<path id="XMLID_00000158750499288626944490000015990762544114835840_" class="st1" d="M44.1,24.9h-2.8c0.1,0.6,0.6,1,1.2,1
			c0.4,0,0.8-0.2,1.1-0.4L44,26c-0.4,0.4-0.9,0.6-1.5,0.6c-1.1,0-2-0.8-2-1.9s0.8-1.9,1.9-1.9c1,0,1.7,0.7,1.7,1.7
			C44.2,24.6,44.2,24.8,44.1,24.9z M41.4,24.3h2c0-0.6-0.4-0.9-1-0.9C41.9,23.4,41.5,23.7,41.4,24.3z"/>
		<path id="XMLID_00000170996859897851882640000014141598100934918286_" class="st1" d="M48.8,24.7c0,1.1-0.8,1.9-1.8,1.9
			c-0.5,0-1-0.2-1.2-0.5v1.8H45v-5.1h0.7v0.5c0.3-0.4,0.7-0.6,1.3-0.6C48,22.7,48.8,23.5,48.8,24.7z M48,24.7c0-0.7-0.5-1.2-1.1-1.2
			s-1.1,0.4-1.1,1.2c0,0.8,0.6,1.2,1.1,1.2C47.5,25.9,48,25.4,48,24.7z"/>
		<path id="XMLID_00000178172424635283046800000006916418128401294241_" class="st1" d="M49.5,22.8h2.6v0.7h-1.8v3h-0.8V22.8z"/>
		<path id="XMLID_00000054968971307156633560000009442090154207555750_" class="st1" d="M52.3,24.7c0-1.1,0.9-1.9,2-1.9s2,0.9,2,1.9
			c0,1.1-0.9,1.9-2,1.9S52.3,25.7,52.3,24.7z M55.5,24.7c0-0.7-0.5-1.2-1.1-1.2c-0.7,0-1.2,0.5-1.2,1.2s0.5,1.2,1.1,1.2
			C55,25.9,55.5,25.3,55.5,24.7z"/>
	</g>
	<g id="XMLID_00000016760602175814987290000004188657799992123307_">
		
			<linearGradient id="XMLID_00000137113425375169892810000016197931271565291424_" gradientUnits="userSpaceOnUse" x1="25.2951" y1="13.1074" x2="15.3548" y2="18.0488" gradientTransform="matrix(1 0 0 -1 0 27.89)">
			<stop  offset="0" style="stop-color:#D2233C"/>
			<stop  offset="1" style="stop-color:#D2233C;stop-opacity:0"/>
		</linearGradient>
		
			<path id="XMLID_00000078749082439857594500000010970399503914937001_" style="fill:url(#XMLID_00000137113425375169892810000016197931271565291424_);" d="
			M12.4,13.3c0.9-1.2,1.8-2.3,2.7-3.6c0.8-1.2,1.5-2.5,2.1-3.9c0.1,0,3.3,1.9,4.6,2.9c0.8,0.6,1.5,1.2,2.2,1.8c0.5,0.5,1,1,1.3,1.7
			c0.2,0.4,0.4,0.7,0.4,1.2c0.1,0.7-0.3,1.1-0.8,1.4c-0.7,0.4-1.5,0.5-2.2,0.6c-1,0.1-2,0-3-0.1c-1.5-0.2-3-0.6-4.5-1
			c-0.9-0.3-1.8-0.6-2.6-0.9C12.5,13.4,12.5,13.4,12.4,13.3z"/>
		
			<linearGradient id="XMLID_00000067202880685682790840000010838420265300333721_" gradientUnits="userSpaceOnUse" x1="16.2537" y1="1.5199" x2="16.541" y2="12.8968" gradientTransform="matrix(1 0 0 -1 0 27.89)">
			<stop  offset="0" style="stop-color:#D2233C"/>
			<stop  offset="1" style="stop-color:#D2233C;stop-opacity:0"/>
		</linearGradient>
		
			<path id="XMLID_00000113318959955609329350000014645482043975875985_" style="fill:url(#XMLID_00000067202880685682790840000010838420265300333721_);" d="
			M12.3,13.8c1.4,0.5,2.8,1,4.2,1.4s2.9,0.7,4.4,0.8c0,0.1-0.8,3.7-1.4,5.3c-0.3,0.9-0.7,1.8-1.1,2.6c-0.3,0.6-0.7,1.2-1.2,1.8
			c-0.3,0.3-0.6,0.6-1,0.7c-0.6,0.3-1.1,0.1-1.6-0.3c-0.6-0.5-1-1.2-1.3-1.9c-0.4-0.9-0.6-1.9-0.8-2.9c-0.3-1.5-0.4-3-0.4-4.6
			c0-0.9,0.1-1.9,0.1-2.8C12.3,13.9,12.3,13.8,12.3,13.8z"/>
		
			<linearGradient id="XMLID_00000004532966135632805270000016692272209346450560_" gradientUnits="userSpaceOnUse" x1="0.6274" y1="7.3958" x2="11.9467" y2="9.6942" gradientTransform="matrix(1 0 0 -1 0 27.89)">
			<stop  offset="0" style="stop-color:#D2233C"/>
			<stop  offset="1" style="stop-color:#D2233C;stop-opacity:0"/>
		</linearGradient>
		
			<path id="XMLID_00000114795719830612030440000008536652713680396940_" style="fill:url(#XMLID_00000004532966135632805270000016692272209346450560_);" d="
			M11.7,13.8c-0.1,1.5-0.1,3-0.1,4.5c0.1,1.5,0.3,3,0.6,4.4c-0.1,0-3.7,0.3-5.4,0.3c-1,0-1.9-0.1-2.8-0.2c-0.7-0.1-1.4-0.3-2-0.6
			c-0.4-0.2-0.7-0.4-1-0.7c-0.5-0.5-0.5-1.1-0.3-1.7C1,19.1,1.6,18.5,2.2,18c0.8-0.7,1.6-1.2,2.5-1.7C6,15.6,7.5,15,8.9,14.5
			c0.9-0.3,1.8-0.5,2.7-0.8C11.6,13.8,11.7,13.8,11.7,13.8z"/>
		
			<linearGradient id="XMLID_00000018197485915732653830000007404433489124777663_" gradientUnits="userSpaceOnUse" x1="1.3886" y1="22.9904" x2="7.1344" y2="13.5671" gradientTransform="matrix(1 0 0 -1 0 27.89)">
			<stop  offset="0" style="stop-color:#D2233C"/>
			<stop  offset="1" style="stop-color:#D2233C;stop-opacity:0"/>
		</linearGradient>
		
			<path id="XMLID_00000152986464464290089840000003284468801785637037_" style="fill:url(#XMLID_00000018197485915732653830000007404433489124777663_);" d="
			M11.6,13.3c-1.4,0.4-2.9,0.8-4.3,1.3s-2.7,1.2-4,2c-0.1-0.1-1.5-3.5-2-5.1C1,10.6,0.8,9.7,0.6,8.7C0.5,8.1,0.5,7.4,0.5,6.6
			c0.1-0.4,0.1-0.8,0.4-1.2c0.3-0.6,0.9-0.8,1.5-0.7c0.8,0.1,1.5,0.4,2.2,0.8C5.5,6,6.2,6.7,7,7.3c1.1,1.1,2.1,2.2,3,3.5
			c0.5,0.8,1.1,1.5,1.6,2.3C11.5,13.2,11.5,13.3,11.6,13.3z"/>
		
			<linearGradient id="XMLID_00000163779004858890729640000016227952126209009811_" gradientUnits="userSpaceOnUse" x1="17.6457" y1="26.8234" x2="9.1827" y2="18.3604" gradientTransform="matrix(1 0 0 -1 0 27.89)">
			<stop  offset="0" style="stop-color:#D2233C"/>
			<stop  offset="1" style="stop-color:#D2233C;stop-opacity:0"/>
		</linearGradient>
		
			<path id="XMLID_00000122707572355753745910000002314333423527207582_" style="fill:url(#XMLID_00000163779004858890729640000016227952126209009811_);" d="
			M12,13c-0.8-1.3-1.6-2.5-2.6-3.6c-0.9-1.2-2-2.3-3.1-3.3C6.4,6,9.1,3.6,10.5,2.7c0.8-0.5,1.6-1.1,2.4-1.5c0.6-0.3,1.3-0.6,2-0.7
			c0.4-0.1,0.8-0.1,1.2,0c0.6,0.2,1,0.6,1.1,1.2c0.3,0.7,0.2,1.5,0,2.3c-0.2,1-0.6,1.9-1,2.8c-0.7,1.4-1.5,2.7-2.4,3.9
			C13.2,11.4,12.6,12.2,12,13C12,12.9,12,13,12,13z"/>
	</g>
</g>
</svg>
