<svg width="115" height="36" viewBox="0 0 115 36" fill="none" xmlns="http://www.w3.org/2000/svg">
<path d="M48.0075 11.773C47.7147 12.0434 47.3712 12.1728 46.9913 12.1728H45.604V8.69285H46.9695C47.4284 8.69285 47.7883 8.82481 48.0521 9.08946C48.3124 9.34943 48.4474 9.78199 48.4474 10.3875C48.4474 11.0437 48.3006 11.5004 48.0075 11.773ZM50.7313 12.2505C50.9078 11.7054 51 11.0944 51 10.4274C51 9.66154 50.8994 9.00388 50.7034 8.44258C50.508 7.88489 50.2278 7.42859 49.8733 7.06614C49.5237 6.70333 49.0959 6.43544 48.5988 6.26177C48.0981 6.08342 47.5582 6 46.9691 6H43V20H45.6037V14.8919H47.1163C47.7147 14.8919 48.254 14.7851 48.7334 14.5672C49.2097 14.3533 49.6226 14.0537 49.9598 13.6683C50.2882 13.2763 50.5504 12.8028 50.7313 12.2505Z" fill="#005A99"/>
<path d="M55.9184 16.7149C55.6954 16.3709 55.5862 15.9363 55.5862 15.4051V10.2962C55.5862 10.1387 55.6121 9.96992 55.6643 9.7926C55.7223 9.61317 55.805 9.44895 55.9184 9.29605C56.0318 9.14705 56.1785 9.02318 56.3588 8.92302C56.5376 8.82109 56.7621 8.77013 57.0223 8.77013C57.2814 8.77013 57.5015 8.83242 57.6742 8.93859C57.8497 9.05645 57.9891 9.18563 58.0977 9.34454C58.1986 9.50628 58.2783 9.67262 58.32 9.84357C58.3623 10.012 58.3799 10.1674 58.3799 10.2959V15.7413C58.3799 16.2049 58.2492 16.5638 57.9782 16.8296C57.7094 17.0936 57.3878 17.2267 57.0223 17.2267C56.5065 17.2267 56.1416 17.0586 55.9184 16.7149ZM58.6256 19.6932C59.1106 19.4893 59.5299 19.1945 59.8762 18.8038C60.2357 18.4134 60.5063 17.9444 60.7011 17.3934C60.8991 16.848 61 16.2311 61 15.5459V10.4187C61 9.87542 60.9183 9.34312 60.7585 8.8126C60.5948 8.28561 60.3577 7.8103 60.0319 7.39551C59.7106 6.98284 59.299 6.64555 58.7951 6.3886C58.2912 6.12883 57.7008 6 57.0223 6C56.2896 6 55.6704 6.13307 55.1665 6.40382C54.6588 6.67422 54.2429 7.02354 53.9239 7.44753C53.5981 7.86976 53.361 8.34012 53.2182 8.86356C53.0801 9.38029 53 9.90338 53 10.4187V15.3247C53 15.9522 53.0801 16.5443 53.2284 17.1088C53.3822 17.6801 53.617 18.1755 53.9361 18.6048C54.2638 19.0327 54.6757 19.3721 55.1844 19.6227C55.6919 19.8758 56.3095 20 57.0226 20C57.6069 20 58.1396 19.8974 58.6256 19.6932Z" fill="#005A99"/>
<path d="M65.0537 18.6026C65.4115 19.0305 65.8845 19.37 66.459 19.6188C67.0309 19.8736 67.7319 20 68.5478 20C69.696 20 70.6737 19.6942 71.4722 19.0886C72.2695 18.4794 72.7753 17.6412 72.9804 16.5727L70.1723 15.7787C70.1153 16.229 69.9342 16.5794 69.62 16.8388C69.3099 17.094 68.9452 17.225 68.5478 17.225C67.9562 17.225 67.5501 17.0586 67.3109 16.7125C67.0749 16.3684 66.9549 15.9338 66.9549 15.4039V10.2935C66.9549 10.136 66.9789 9.96713 67.0404 9.7898C67.0924 9.61035 67.1796 9.44611 67.3058 9.2932C67.4261 9.14419 67.5897 9.01818 67.7865 8.91836C67.9919 8.81819 68.242 8.76935 68.5478 8.76935C68.8267 8.76935 69.0718 8.82279 69.2761 8.92509C69.4764 9.0334 69.648 9.16259 69.7815 9.3024C69.916 9.44859 70.0153 9.61035 70.0818 9.79016C70.1389 9.96749 70.1822 10.1275 70.2109 10.2538L73 9.44222C72.9062 8.99623 72.7364 8.5637 72.5135 8.14462C72.2746 7.73014 71.9772 7.36627 71.6125 7.05089C71.25 6.7295 70.8064 6.47465 70.2923 6.28493C69.7768 6.09132 69.1961 6 68.5482 6C67.7148 6 67.0145 6.13026 66.4353 6.40103C65.8612 6.67358 65.3962 7.02081 65.0341 7.44378C64.6759 7.86712 64.4098 8.33752 64.2505 8.86208C64.0851 9.37744 64 9.90094 64 10.4163V15.3246C64 15.9504 64.0909 16.5401 64.2622 17.1071C64.432 17.6759 64.6956 18.1718 65.0537 18.6026Z" fill="#005A99"/>
<path d="M77.6962 9.78961C77.7477 9.61016 77.8263 9.44594 77.9296 9.29303C78.0399 9.14403 78.1862 9.01803 78.3645 8.91821C78.5464 8.81805 78.7723 8.76921 79.0367 8.76921C79.2888 8.76921 79.5021 8.82265 79.6863 8.92494C79.8682 9.03324 80.0174 9.16243 80.1397 9.30224C80.2607 9.44841 80.3497 9.61016 80.4005 9.78996C80.452 9.96729 80.4938 10.1273 80.519 10.2536L83 9.44204C82.9146 8.99608 82.7722 8.56357 82.5647 8.14451C82.3641 7.73005 82.0938 7.3662 81.7676 7.05084C81.441 6.72947 81.0472 6.47463 80.5944 6.28492C80.1316 6.09132 79.6112 6 79.0367 6C78.2982 6 77.6749 6.13025 77.1632 6.40101C76.6464 6.67354 76.2308 7.02076 75.9123 7.44371C75.5939 7.86702 75.3605 8.3374 75.2146 8.86194C75.0715 9.37727 75 9.90075 75 10.4161V15.3241C75 15.9499 75.0715 16.5396 75.2246 17.1066C75.3725 17.6753 75.6059 18.1719 75.9295 18.6027C76.2492 19.0306 76.67 19.37 77.181 19.6188C77.6901 19.8736 78.3095 20 79.0371 20C80.062 20 80.929 19.6942 81.642 19.0886C82.353 18.4795 82.7981 17.6414 82.9806 16.5728L80.4863 15.7789C80.4391 16.2291 80.2698 16.5795 79.9941 16.839C79.718 17.0942 79.3995 17.2251 79.0371 17.2251C78.5154 17.2251 78.1506 17.0588 77.9403 16.7126C77.7279 16.3686 77.6224 15.934 77.6224 15.4041V10.294C77.6224 10.1365 77.6474 9.96693 77.6962 9.78961Z" fill="#005A99"/>
<path d="M86 20H93V17.2467H88.5054V14.27H92.3764V11.5904H88.5054V8.69615H93V6H86V20Z" fill="#005A99"/>
<path d="M95 8.65444H98.0347V20H100.969V8.65444H104V6H95V8.65444Z" fill="#005A99"/>
<path d="M112.532 6L108.766 14.128H108.728V6H106V20H108.574L112.248 12.3794H112.266V20H115V6H112.532Z" fill="#005A99"/>
<path d="M21.8205 11L11 34.6598C13.1788 35.5196 15.563 36 18.0747 36C20.5232 36 22.8564 35.5405 25 34.7072L22.3133 11.0706C22.1422 11.0636 21.978 11.04 21.8205 11Z" fill="#005A99"/>
<path d="M20.6395 10L1 23.2134C2.34572 27.8373 5.42931 31.6937 9.4749 34L21 10.3343C20.8725 10.239 20.7464 10.1253 20.6395 10Z" fill="#005A99"/>
<path d="M23.0003 11.2723L26.6138 34C30.6274 31.7487 33.6845 27.9733 35 23.4309L23.5699 11C23.3983 11.1172 23.2011 11.2086 23.0003 11.2723Z" fill="#005A99"/>
<path d="M20.9997 6.75948L17.2608 0C12.3971 0.289027 8.05605 2.59047 5 6.11716L20.2013 8C20.3404 7.50601 20.6198 7.07838 20.9997 6.75948Z" fill="#005A99"/>
<path d="M24.4221 8.95571C24.4013 9.42053 24.2506 9.85094 24 10.2062L35.7795 21C35.9212 20.1038 36 19.1818 36 18.2378C36 14.423 34.7508 10.8922 32.6381 8L24.4221 8.95571Z" fill="#005A99"/>
<path d="M19.8654 8.8703L3.11006 8C1.14606 10.8642 0 14.3222 0 18.051C0 19.0542 0.083726 20.0436 0.247449 21L20 9.47652C19.9275 9.28812 19.8858 9.07988 19.8654 8.8703Z" fill="#005A99"/>
<path d="M22.0934 6.40374C23.0677 6.43142 23.893 7.08107 24.2505 8L31 6.26317C28.0013 2.67086 23.7544 0.322128 19 0L21.4949 6.48211C21.6844 6.43646 21.8836 6.40158 22.0934 6.40374Z" fill="#005A99"/>
<path d="M48.3675 26.0131H47.055C46.9965 26.2788 46.9028 26.6209 46.7854 27.0638C46.668 27.5067 46.5509 27.9748 46.422 28.4433C46.2931 28.9242 46.176 29.3799 46.0705 29.8104C45.9534 30.2405 45.8597 30.5698 45.8008 30.8103H45.7423L45.1563 28.7346L44.3828 26.0131H43L45.1211 32.6458C45.1092 32.7091 45.0859 32.7723 45.0625 32.8231C45.0392 32.8863 45.0155 32.9371 45.004 32.9879C44.8984 33.2536 44.7814 33.4436 44.664 33.532C44.5351 33.6208 44.3943 33.6713 44.2306 33.6713H43.7501V34.8611H44.4065C44.6173 34.8483 44.8166 34.8231 44.9925 34.7851C45.1681 34.7471 45.344 34.6587 45.4963 34.5194C45.6489 34.3926 45.8011 34.203 45.9416 33.9497C46.082 33.7093 46.2112 33.38 46.3401 32.9623C46.6917 31.7977 47.0314 30.6334 47.3595 29.4815C47.6877 28.3297 48.0274 27.1778 48.3675 26.0131ZM54.2857 27.5067C54.1683 27.165 54.0046 26.8865 53.7816 26.6585C53.559 26.4433 53.3012 26.2788 52.9963 26.1648C52.6915 26.0508 52.3518 26.0004 51.9651 26.0004H49.504V34.8103H50.8397V31.4304H52.0351C52.4452 31.4304 52.797 31.3548 53.1016 31.2152C53.4061 31.0759 53.6642 30.8859 53.8632 30.6454C54.0625 30.405 54.2032 30.1137 54.3084 29.7848C54.414 29.4556 54.461 29.1015 54.461 28.7214C54.461 28.2533 54.4028 27.8484 54.2857 27.5067ZM52.8559 29.6964C52.6566 29.9369 52.3636 30.0637 51.9651 30.0637H50.8401V27.3422H51.9535C52.3518 27.3422 52.6448 27.4563 52.8441 27.6843C53.0434 27.9247 53.1371 28.254 53.1371 28.6841C53.1371 29.1146 53.0434 29.4432 52.8559 29.6964ZM59.1586 34.8103H60.5766L58.2092 26.0004H56.9201L54.5646 34.8103H55.9593C55.9826 34.7343 56.0178 34.6079 56.0648 34.4306C56.1 34.2534 56.147 34.0634 56.2052 33.8609C56.2523 33.6585 56.299 33.4684 56.346 33.2912C56.393 33.114 56.4282 32.9875 56.4397 32.9115H58.7015L59.1586 34.8103ZM57.5413 28.0004H57.5999C57.6117 28.076 57.6351 28.2028 57.6702 28.3673C57.7054 28.5445 57.7521 28.7346 57.7992 28.9242C57.8343 29.1139 57.8814 29.3039 57.9166 29.4812C57.9517 29.6584 57.9751 29.7848 57.9866 29.8608L58.3967 31.6201H56.7324L57.1543 29.8481L57.5413 28.0004ZM63.824 27.3419H65.6757V34.81H67V26H62.5934V30.8099C62.5934 31.3164 62.5701 31.7341 62.5349 32.0758C62.4879 32.4175 62.4178 32.6959 62.3123 32.924C62.2067 33.1516 62.0778 33.3416 61.9137 33.4809C61.7381 33.6329 61.527 33.7593 61.281 33.8734L61.6441 35C62.066 34.9116 62.4175 34.7595 62.699 34.5443C62.9802 34.3418 63.2028 34.0634 63.3787 33.7089C63.5428 33.3672 63.6599 32.9367 63.7303 32.4178C63.7888 31.9117 63.824 31.304 63.824 30.6078V27.3419Z" fill="#005A99"/>
</svg>
