<?xml version="1.0" encoding="UTF-8" standalone="no"?>
<svg width="176" xmlns="http://www.w3.org/2000/svg" fill="none" viewBox="0 0 176 115" height="115">
 <path d="m168.08 57.23c0 25.814-35.82 46.88-80.053 47.05-44.176 0.16-80.049-20.644-80.049-46.511-0.0002-25.813 35.818-46.883 80.049-47.045 44.173-0.162 80.053 20.64 80.053 46.506z" fill="url(#paint0_linear)"/>
 <g opacity=".62">
  <g opacity=".62">
   <path opacity=".62" d="m168.08 57.23c0 25.814-35.82 46.88-80.053 47.05-44.176 0.16-80.049-20.644-80.049-46.511-0.0002-25.813 35.818-46.883 80.049-47.045 44.173-0.162 80.053 20.64 80.053 46.506z" fill="#082D69"/>
  </g>
 </g>
 <path fill="#FFF200" clip-rule="evenodd" d="m87.81 2.425c-47.053 0.1078-85.151 24.681-85.151 54.967 0.0002 30.286 38.153 54.748 85.151 54.698 47.05-0.05 85.15-24.681 85.15-54.967 0.06-30.286-38.1-54.752-85.15-54.698zm36.8 95.115c11.88-6.467 17.15-13.149 17.15-13.149s-29.69 19.239-75.658 15.035c-10.42-0.97-21.057-3.503-31.369-8.407-15.684-8.299-25.453-20.316-25.453-33.627 0.0003-21.609 25.833-39.77 60.512-44.566-9.117 3.502-18.452 12.879-19.374 15.035 10.637-5.335 55.352-25.975 96.112-1.024 12.59 7.706 19.86 18.646 19.86 30.286 0 17.514-16.93 32.711-41.78 40.417z" fill-rule="evenodd"/>
 <path d="m92.803 16.328c-23.825 1.94-40.812 12.611-40.812 12.611s4.83-7.275 16.01-13.311c-26.592 4.365-47.595 16.867-54.976 32.711 15.087-13.904 43.091-23.334 75.165-23.442 32.07-0.108 60.08 9.107 75.17 22.903-4.89-10.455-15.74-19.454-30.23-25.49-4.89-1.994-18.67-7.76-40.327-5.982z" fill="url(#paint1_linear)"/>
 <path d="m87.539 115c-24.151 0-45.968-6.36-61.815-16.652-15.847-10.293-25.724-24.627-25.724-40.525 0-15.951 9.9316-30.393 25.887-40.794 15.901-10.454 37.881-16.921 62.086-17.029h0.488c24.149 0 45.969 6.359 61.819 16.652 15.84 10.293 25.72 24.627 25.72 40.525 0 15.951-9.93 30.393-25.89 40.794-15.95 10.399-37.88 16.869-62.137 16.979-0.109 0.05-0.271 0.05-0.434 0.05zm0.488-104.33c-22.142 0.054-42.223 5.443-56.713 14.011-14.49 8.569-23.336 20.317-23.336 33.088-0.0002 12.772 8.792 24.359 23.173 32.819 14.382 8.461 34.299 13.692 56.388 13.692h0.488c22.143-0.06 42.223-5.447 56.713-14.015 14.49-8.569 23.34-20.317 23.34-33.088 0-12.772-8.8-24.358-23.18-32.819-14.43-8.461-34.35-13.688-56.439-13.688h-0.434z" fill="#FFF680"/>
 <path fill="url(#paint2_linear)" clip-rule="evenodd" d="m87.973 1.6706c-47.324 0.1616-85.694 25.274-85.694 56.099 0.0004 30.824 38.37 55.67 85.748 55.51 47.323-0.17 85.753-25.279 85.753-56.103-0.06-30.825-38.43-55.668-85.807-55.506zm37.067 96.785c11.94-6.575 16.77-13.957 16.77-13.957s-29.36 20.151-75.654 16.001c-10.474-0.966-21.22-3.499-31.586-8.511-15.738-8.46-25.67-20.639-25.67-34.166 0.0004-21.987 25.996-40.525 60.892-45.482-9.172 3.556-18.506 13.31-19.429 15.52 9.986-6.09 55.737-26.783 96.707-1.455 12.65 7.814 19.97 18.969 19.97 30.825 0 17.783-16.98 33.303-42 41.225z" fill-rule="evenodd"/>
 <path d="m22.794 75.337c-2.117-1.293-3.582-3.449-3.582-6.089 0-1.617 0.543-3.395 1.682-5.281 0.543-0.863 1.357-1.94 2.388-2.803 1.791-1.562 4.993-3.502 9.932-3.934 0.705-0.053 1.411-0.107 2.062-0.107 0.543 0 1.031 0 1.52 0.054-0.272-0.162-0.543-0.27-0.869-0.378-1.357-0.485-3.365-0.7-5.698-0.7h-0.977c-0.651 0-1.194-0.485-1.194-1.132v-0.161c0.054-1.94 1.194-3.665 2.605-4.635 0.217-0.162 0.488-0.215 0.705-0.162 0.272 0 0.598 0.054 0.869 0.054 5.59-0.054 9.551-3.556 9.714-8.568v-0.054c0-0.593-0.271-1.024-0.759-1.401-0.543-0.377-1.303-0.647-2.171-0.647-1.466 0-2.931 0.647-3.691 2.102-0.488 0.916-0.597 1.509-0.597 2.155 0 0.539 0.109 1.132 0.272 1.94 0.054 0.378-0.055 0.809-0.38 1.078-1.194 1.132-2.714 1.617-4.125 1.617-0.922 0-1.845-0.216-2.659-0.701-0.76-0.485-1.411-1.239-1.683-2.209-0.108-0.485-0.162-0.97-0.162-1.455 0-1.994 0.868-3.826 1.791-5.012 2.713-3.61 7.923-5.281 12.753-5.281 2.714 0 5.319 0.539 7.381 1.724 2.062 1.186 3.528 3.234 3.528 5.874v0.054c-0.055 4.743-3.148 8.784-7.815 11.101 1.194 0.647 2.225 1.348 3.039 2.264 1.411 1.509 2.171 3.503 2.171 5.928 0 0.754-0.055 1.509-0.217 2.371-0.706 4.58-2.877 8.137-5.916 10.508s-6.838 3.611-10.908 3.934c-0.435 0.054-0.869 0.054-1.303 0.054-2.876-0.162-5.59-0.808-7.706-2.102zm12.645-11.801c-2.551 0.377-4.722 1.347-5.536 3.017-0.434 0.863-0.651 1.617-0.651 2.21 0 0.754 0.217 1.293 0.651 1.67 0.38 0.378 0.977 0.647 1.791 0.647 0.489 0 1.031-0.108 1.628-0.269 1.086-0.324 2.334-1.509 3.311-3.126 0.76-1.239 1.411-2.748 1.736-4.257-0.325 0-0.705-0.054-1.031-0.054-0.651 0-1.302 0.054-1.899 0.162z" fill="#1F2879"/>
 <path d="m55.519 74.152h-0.489c-2.496-0.054-4.721-1.294-5.752-3.557-0.543-1.239-0.814-2.856-0.814-4.581 0-0.484 0-0.97 0.054-1.454 0.326-3.665 1.845-7.545 4.179-10.563 2.333-3.018 5.427-5.281 9.063-5.335h0.706 1.031c0.163-0.808 0.217-1.617 0.325-2.317 0.055-0.431 0.109-0.809 0.109-1.132 0-1.185-0.326-1.994-0.76-2.425-0.434-0.485-0.923-0.646-1.519-0.7-0.543 0-1.14 0.215-1.683 0.646-0.488 0.431-0.868 1.132-0.814 1.563 0 0.162 0.054 0.323 0.109 0.485 0.271 0.539 0.108 1.132-0.38 1.455-0.814 0.593-1.791 0.862-2.714 0.862-0.868 0-1.682-0.215-2.388-0.7-0.705-0.485-1.248-1.24-1.356-2.21v-0.431c0-1.994 1.356-4.85 4.612-6.736 1.412-0.754 3.582-1.509 6.025-1.563 2.876-0.054 6.132 1.24 7.76 5.012 0.597 1.401 0.814 2.964 0.814 4.688 0 2.803-0.597 5.928-1.302 8.946-0.326 1.994-0.977 3.826-1.465 5.551-0.869 3.395-2.171 6.951-4.288 9.7-2.116 2.748-5.101 4.796-9.063 4.796 0 0 0.054 0 0 0zm13.785-20.209l-0.272-0.054 0.272 0.054zm-8.358 1.132c-0.543 0.377-1.628 2.263-2.442 4.473-0.814 2.155-1.466 4.688-1.683 6.52v0.432c0 0.646 0.217 1.131 0.326 1.239 0 0 0.054 0 0.054-0.054 0.109-0.054 0.217-0.108 0.38-0.215 0.76-0.539 2.008-2.857 2.822-5.336 0.869-2.478 1.466-5.281 1.466-6.897v-0.054c0-0.27 0-0.485-0.055-0.647-0.217 0.108-0.759 0.377-0.868 0.539z" fill="#1F2879"/>
 <path d="m131.99 55.776c0-2.587-0.82-4.958-2.45-6.575-0.65-0.647-1.46-1.185-2.33-1.455 1.3-1.132 2.66-2.425 3.85-3.88 2.01-2.371 3.69-5.12 3.75-8.03v-0.161c-0.11-2.91-1.9-5.551-4.67-6.09-0.49-0.107-1.03-0.161-1.52-0.161h-0.05c-2.34 0-4.29 1.024-5.81 2.425s-2.71 3.125-3.74 4.742c-3.04 4.796-5.7 12.017-7.17 19.346l-0.16 0.916c-0.27 1.401-0.54 2.749-0.87 4.85-1.41 2.21-2.44 3.449-3.2 4.096-0.38 0.323-0.65 0.485-0.82 0.593v-0.378c0-0.484 0.11-1.185 0.28-1.94v-0.053l4.07-15.035c0.11-0.324 0.05-0.647-0.17-0.917-0.16-0.269-0.48-0.485-0.81-0.539-0.05 0-0.43-0.053-1.03-0.053-0.76 0-1.9 0.107-3.1 0.7-0.76-0.323-1.52-0.539-2.33-0.647-0.43-0.053-0.81-0.053-1.25-0.053h-0.05c-4.451 0-8.033 2.694-10.53 6.089-1.248 1.671-2.225 3.557-2.93 5.389 0.054-0.377 0.108-0.754 0.162-1.186 0.055-0.485 0.055-0.97 0.055-1.455 0-1.724-0.271-3.341-0.814-4.58-0.977-2.264-3.202-3.611-5.753-3.557h-0.054c-1.845 0-3.691 0.647-5.102 1.779-0.162-0.27-0.38-0.539-0.597-0.755-0.705-0.701-1.628-1.024-2.767-1.239-0.055 0-0.163-0.054-0.272-0.054-0.325 0-0.651 0.108-0.922 0.323-0.326 0.216-0.543 0.593-0.597 1.024 0 0.054-0.109 0.593-0.272 1.347-1.248 5.281-5.915 22.58-7.652 29.262-0.109 0.377 0 0.754 0.217 1.024 0.217 0.269 0.597 0.431 0.923 0.431h2.768c1.791 0 3.147-0.647 3.907-1.509s1.031-1.778 1.14-2.209c0.488-1.833 0.922-3.18 1.194-4.042 0.434 0.108 0.977 0.162 1.411 0.162h0.054c3.582-0.054 6.73-2.317 9.063-5.335 1.248-1.617 2.28-3.503 2.985-5.443-0.108 0.593-0.163 1.185-0.163 1.724v0.485c0 2.533 0.814 4.904 2.388 6.521 1.194 1.239 2.768 1.886 4.396 1.886h0.054c1.412 0 2.768-0.485 4.071-1.347 0.759-0.485 1.467-1.078 2.067-1.779 0.32 0.485 0.65 0.971 1.08 1.348 0.98 0.916 2.33 1.563 3.96 1.563 0.87 0 1.74-0.216 2.66-0.539 1.09-0.431 2.06-1.294 2.99-2.264 0.49 0.701 1.14 1.24 1.84 1.671 1.25 0.754 2.71 1.078 4.07 1.078 0.33 0 0.65 0 0.92-0.054 3.7-0.431 7.06-2.803 9.56-5.982 2.49-3.233 4.12-7.329 4.18-11.532v0.054h-0.11zm-51.181 0.538c-0.217 1.833-0.868 4.366-1.682 6.521-0.76 2.156-1.9 4.096-2.443 4.473-0.162 0.162-0.651 0.431-0.922 0.485 0-0.162-0.054-0.323-0.054-0.647 0-1.616 0.597-4.419 1.465-6.898s2.117-4.742 2.876-5.335c0.163-0.107 0.272-0.215 0.38-0.215 0.055 0 0.055 0 0.055-0.054 0.108 0.108 0.325 0.593 0.325 1.239 0.054 0.108 0.054 0.27 0 0.431zm19.971-2.263c-0.16 2.317-0.868 4.742-1.627 7.06-0.272 0.754-0.76 2.317-1.411 3.61-0.326 0.647-0.652 1.24-0.977 1.563-0.055 0.108-0.163 0.162-0.217 0.216-0.055-0.216-0.109-0.647-0.109-1.132 0-0.377 0-0.862 0.054-1.347 0.109-2.641 1.791-8.245 3.747-10.078 0.16-0.161 0.27-0.269 0.38-0.269h0.05c0.06 0.054 0.11 0.215 0.11 0.377v0zm22.2 4.742c-0.33 2.264-1.2 5.497-3.2 8.03-0.44 0.539-0.82 0.647-0.93 0.647-0.05 0-0.05 0-0.11-0.054-0.05-0.054-0.21-0.27-0.21-0.701v-0.162c0.16-1.886 0.65-4.957 1.25-6.736 0.1-0.269 0.16-0.539 0.27-0.916 0.27-0.916 0.65-2.479 1.19-3.664 0.27-0.593 0.6-1.132 0.87-1.455 0.11-0.162 0.27-0.216 0.33-0.27 0.05 0 0.05-0.054 0.05-0.054 0.16 0.216 0.65 1.078 0.65 2.964 0 0.701-0.05 1.455-0.16 2.371zm2.98-18.268c-0.65 0.862-1.46 1.724-2.39 2.64 0.49-1.185 0.98-2.263 1.31-2.963 0.97-2.048 1.79-3.288 2.38-3.88 0.28-0.324 0.49-0.486 0.66-0.539 0.1-0.054 0.1-0.054 0.16-0.054 0.05 0.054 0.05 0.107 0.05 0.377v0.162c-0.05 0.808-0.81 2.478-2.17 4.257zm23.99 23.442l4.07-15.035c0.11-0.324 0.06-0.647-0.16-0.916-0.16-0.27-0.49-0.486-0.82-0.539-0.05 0-0.43-0.054-0.97-0.054-0.76 0-1.9 0.107-3.1 0.7-0.76-0.323-1.52-0.539-2.33-0.646-0.44-0.054-0.82-0.054-1.25-0.054h-0.05c-4.4 0.054-8.04 2.694-10.53 6.089-2.5 3.395-3.96 7.599-4.13 11.155v0.485c0 2.533 0.82 4.904 2.39 6.521 1.2 1.239 2.77 1.886 4.45 1.886 1.41 0 2.77-0.485 4.07-1.347 0.6-0.431 1.2-0.916 1.74-1.455 0.11 0.269 0.27 0.485 0.43 0.7 0.76 1.024 2.06 1.833 3.75 1.833h0.54c2.55-0.216 3.96-2.102 4.61-3.611 0.66-1.563 0.71-2.964 0.71-3.018 0-0.485-0.27-0.97-0.76-1.131-0.49-0.162-1.03-0.054-1.36 0.323-0.05 0.161-1.08 0.7-1.41 0.647h-0.11c0-0.054-0.05-0.216-0.05-0.486 0-0.538 0.11-1.239 0.27-2.047v0zm-6.19-10.078c-0.16 2.318-0.86 4.743-1.62 7.06-0.28 0.754-0.82 2.317-1.42 3.611-0.32 0.646-0.65 1.239-0.97 1.562-0.11 0.108-0.17 0.162-0.22 0.216-0.05-0.216-0.11-0.647-0.11-1.132 0-0.377 0-0.862 0.06-1.347 0.1-2.641 1.79-8.245 3.74-10.077 0.16-0.162 0.27-0.27 0.38-0.27 0 0 0.06 0 0.06-0.054 0.05 0.108 0.1 0.27 0.1 0.431v0z" fill="#1F2879"/>
 <path d="m123.57 47.584c3.48-2.694 9.61-8.137 9.45-13.041-0.06-2.425-1.68-4.581-3.69-4.958-0.44-0.107-0.93-0.107-1.36-0.107-4.07 0-6.57 3.448-8.57 6.628-2.94 4.634-5.54 11.748-7 18.969l-0.17 0.916c-0.27 1.455-0.59 2.802-0.92 5.012-2.99 4.796-4.67 5.55-5.43 5.55h-0.11c-0.27-0.053-0.43-0.215-0.54-0.431-0.43-0.7-0.27-2.048 0.05-3.449l4.08-15.035s-2.12-0.377-3.86 0.809c-0.76-0.431-1.63-0.755-2.49-0.809-0.38-0.054-0.76-0.054-1.14-0.054-7.819 0-13.246 9.539-13.463 16.113-0.109 2.479 0.651 4.743 2.062 6.144 0.977 1.024 2.225 1.563 3.582 1.563 1.14 0 2.28-0.378 3.365-1.132 1.194-0.808 2.171-1.832 2.984-3.126 0.65 2.102 2.17 4.042 4.83 4.042 0.71 0 1.47-0.162 2.23-0.431 1.14-0.431 2.6-1.886 3.74-3.287 0.6 2.532 3.26 3.664 5.64 3.664 0.28 0 0.55 0 0.82-0.054 6.46-0.7 12.64-8.622 12.7-16.382 0-2.371-0.76-4.473-2.12-5.82-1.3-1.132-2.93-1.617-4.67-1.294zm-23.875 12.826c-0.542 1.617-2.279 6.79-4.124 6.305-0.923-0.215-0.977-1.617-0.869-3.826 0.218-2.964 1.791-8.515 4.125-10.832 0.434-0.431 0.868-0.647 1.303-0.647 0.38 0 0.65 0.216 0.81 0.378 0.33 0.323 0.49 0.808 0.44 1.239-0.11 2.479-0.87 5.012-1.685 7.383zm23.555-21.825c2.01-4.257 3.42-5.174 4.23-5.174 0.27 0 0.49 0.108 0.76 0.27 0.38 0.323 0.54 0.862 0.49 1.563-0.22 2.532-3.42 7.113-8.3 10.454 0.59-2.102 2.06-5.55 2.82-7.113zm0.32 19.292c-0.32 2.371-1.24 5.82-3.47 8.569-0.6 0.7-1.19 1.077-1.84 1.077-0.38 0-0.71-0.161-0.98-0.431-0.38-0.377-0.54-1.024-0.49-1.778 0.16-1.994 0.65-5.066 1.3-7.006 0.06-0.161 0.17-0.485 0.22-0.862 0.49-1.886 1.68-6.305 3.64-6.305 0.16 0 0.32 0 0.49 0.108 0.54 0.215 1.84 1.832 1.13 6.628z" fill="#0081C8"/>
 <path d="m39.943 51.141c5.753-1.832 9.661-6.143 9.715-11.101 0.054-8.245-16.553-8.353-21.546-1.617-0.977 1.293-1.899 3.611-1.411 5.443 0.651 2.371 4.342 2.856 6.513 0.754-0.326-1.724-0.543-2.91 0.488-4.85 2.225-4.203 8.955-3.179 8.846 0.593-0.163 5.982-5.264 10.131-11.885 9.7-1.085 0.701-2.117 2.371-2.062 3.719 5.373-0.108 9.334 0.485 10.365 3.88-1.682-0.432-3.744-0.647-6.186-0.378-4.668 0.432-7.653 2.264-9.281 3.665-0.922 0.808-1.682 1.778-2.171 2.533-4.667 7.652 2.28 12.017 9.769 11.478 7.707-0.539 14.382-4.742 15.684-13.418 0.977-5.874-1.573-8.515-6.838-10.401zm-6.838 19.616c-4.45 1.455-7.055-1.833-4.884-5.874 1.139-2.156 3.745-3.18 6.404-3.611 1.574-0.215 3.147-0.161 4.504 0-0.434 4.042-2.985 8.515-6.024 9.485z" fill="#0081C8"/>
 <path d="m68.49 52.758c1.194-4.904 1.899-9.916 0.597-12.988-2.605-6.035-9.443-4.419-12.103-2.91-3.093 1.779-4.179 4.635-4.016 6.036 0.217 1.778 2.822 2.479 4.613 1.239-0.651-1.293 0.109-2.586 1.031-3.449 2.605-2.155 6.567-0.538 5.753 4.689-0.108 0.862-0.217 2.102-0.543 3.395-1.031-0.162-2.116-0.108-2.659-0.108-6.133 0-11.505 7.976-12.048 14.82-0.163 2.155 0.054 4.149 0.651 5.496 0.814 1.833 2.551 2.803 4.722 2.857 7.272 0.269 10.745-6.844 12.536-13.635 0.489-1.778 1.14-3.556 1.466-5.442zm-10.746 14.496c-0.434 0.323-0.868 0.539-1.248 0.539-0.326 0-0.597-0.108-0.868-0.377-0.489-0.539-0.706-1.509-0.598-2.533 0.435-3.934 2.66-10.293 4.559-11.802 0.272-0.215 1.031-0.754 1.791-0.754 0.272 0 0.543 0.107 0.76 0.269 0.108 0.108 0.38 0.431 0.38 1.617 0 3.664-2.551 11.209-4.776 13.041z" fill="#0081C8"/>
 <path d="m148.21 66.014c-0.43-0.646-0.27-2.047 0.06-3.448l4.07-15.036s-2.12-0.377-3.86 0.809c-0.76-0.431-1.62-0.755-2.49-0.809-0.38-0.054-0.76-0.054-1.14-0.054-7.82 0-13.24 9.539-13.46 16.114-0.11 2.478 0.65 4.742 2.06 6.143 0.98 1.024 2.23 1.563 3.58 1.563 1.14 0 2.28-0.378 3.37-1.132 1.19-0.808 2.17-1.832 2.98-3.126 0 1.833 1.03 4.258 4.02 3.988 3.96-0.323 4.23-5.55 4.23-5.55-0.59 0.646-2.6 1.724-3.42 0.538zm-5.53-5.766c-0.54 1.617-2.28 6.79-4.13 6.305-0.92-0.215-0.97-1.616-0.87-3.826 0.22-2.964 1.8-8.514 4.13-10.831 0.43-0.432 0.87-0.647 1.3-0.647 0.38 0 0.65 0.215 0.82 0.377 0.32 0.323 0.48 0.808 0.43 1.24-0.11 2.532-0.87 5.011-1.68 7.382z" fill="#0081C8"/>
 <path d="m82.003 48.339c-2.117 0-4.287 1.078-5.535 2.587-0.543-1.671-1.14-2.479-3.257-2.91-0.108 0-0.163 0-0.271 0.053-0.054 0.054-0.109 0.162-0.109 0.216-0.163 1.724-5.969 23.172-7.977 30.771h2.767c3.094 0 3.691-2.048 3.908-2.856 0.868-3.234 1.519-5.12 1.519-5.12s1.52 0.377 2.28 0.377c6.132 0 11.505-7.975 12.048-14.819 0.163-2.156-0.054-4.15-0.651-5.497-0.814-1.778-2.551-2.856-4.722-2.802zm-0.543 7.005c-0.434 3.934-2.659 10.293-4.558 11.802-0.272 0.216-1.032 0.755-1.791 0.755-0.272 0-0.543-0.108-0.76-0.27-0.109-0.108-0.38-0.431-0.38-1.617 0-3.718 2.551-11.262 4.776-13.095 0.434-0.323 0.868-0.539 1.194-0.539 0.325 0 0.597 0.108 0.868 0.378 0.543 0.539 0.76 1.509 0.651 2.586z" fill="#0081C8"/>
 <path d="m123.3 46.668c3.48-2.694 9.61-8.137 9.45-13.041-0.06-2.425-1.69-4.581-3.69-4.958-0.44-0.108-0.93-0.108-1.36-0.108-4.07 0-6.57 3.449-8.58 6.629-2.93 4.634-5.53 11.748-7 18.969l-0.16 0.916c-0.27 1.455-0.6 2.802-0.92 5.012-2.99 4.796-4.67 5.55-5.43 5.55h-0.11c-0.27-0.054-0.43-0.215-0.54-0.431-0.44-0.7-0.27-2.048 0.05-3.449l4.07-15.035s-2.11-0.377-3.85 0.808c-0.76-0.431-1.63-0.754-2.5-0.808-0.37-0.054-0.75-0.054-1.13-0.054-7.82 0.054-13.247 9.539-13.464 16.113-0.109 2.479 0.651 4.742 2.062 6.143 0.977 1.024 2.225 1.563 3.582 1.563 1.139 0 2.279-0.377 3.364-1.131 1.194-0.809 2.171-1.833 2.986-3.126 0.65 2.102 2.17 4.042 4.83 4.042 0.7 0 1.46-0.162 2.22-0.431 1.14-0.431 2.61-1.887 3.75-3.288 0.6 2.533 3.26 3.665 5.64 3.665 0.27 0 0.55 0 0.82-0.054 6.46-0.701 12.64-8.622 12.7-16.382 0-2.372-0.76-4.473-2.12-5.82-1.3-1.186-2.93-1.671-4.67-1.294zm-23.876 12.772c-0.543 1.617-2.28 6.79-4.125 6.305-0.922-0.215-0.977-1.617-0.868-3.826 0.217-2.964 1.791-8.515 4.125-10.832 0.434-0.431 0.868-0.647 1.302-0.647 0.382 0 0.652 0.216 0.812 0.378 0.33 0.323 0.49 0.808 0.44 1.293-0.11 2.479-0.87 4.958-1.686 7.329zm23.556-21.825c2-4.257 3.42-5.174 4.23-5.174 0.27 0 0.49 0.108 0.76 0.27 0.38 0.323 0.54 0.862 0.49 1.563-0.22 2.532-3.42 7.113-8.3 10.454 0.59-2.102 2.06-5.496 2.82-7.113zm0.32 19.292c-0.32 2.371-1.24 5.82-3.47 8.569-0.6 0.7-1.19 1.077-1.85 1.077-0.38 0-0.7-0.161-0.97-0.431-0.38-0.377-0.55-1.024-0.49-1.778 0.16-1.994 0.65-5.066 1.3-7.006 0.06-0.161 0.16-0.485 0.22-0.862 0.49-1.886 1.68-6.305 3.64-6.305 0.16 0 0.32 0 0.48 0.108 0.49 0.215 1.85 1.832 1.14 6.628z" fill="#fff"/>
 <path d="m93.726 70.649c-1.412 0-2.714-0.539-3.691-1.617-1.357-1.401-2.116-3.502-2.116-5.874v-0.431c0.271-6.628 5.644-16.221 13.681-16.274h0.05c0.38 0 0.76 0 1.14 0.054 0.81 0.107 1.68 0.377 2.44 0.808 1.09-0.701 2.28-0.808 3.09-0.808 0.49 0 0.82 0.053 0.82 0.053 0.05 0 0.11 0.054 0.16 0.108 0.06 0.054 0.06 0.108 0 0.162l-4.07 15.035c-0.16 0.808-0.27 1.563-0.27 2.156 0 0.485 0.05 0.862 0.22 1.077 0.1 0.162 0.21 0.27 0.38 0.324h0.1c0.6 0 2.28-0.647 5.22-5.443 0.32-2.21 0.59-3.557 0.92-5.012l0.16-0.916c1.47-7.275 4.07-14.388 7.06-19.023 2-3.179 4.55-6.682 8.73-6.736 0.44 0 0.93 0.054 1.36 0.108 2.12 0.377 3.75 2.64 3.85 5.173v0.162c0 4.742-5.42 9.754-8.95 12.556h0.38c1.35 0 2.6 0.539 3.58 1.509 1.41 1.347 2.17 3.503 2.17 5.928v0.054c-0.05 7.814-6.24 15.843-12.86 16.544-0.27 0.054-0.54 0.054-0.82 0.054-2.33 0-4.93-1.078-5.69-3.449-1.09 1.293-2.45 2.586-3.59 3.017-0.81 0.324-1.57 0.485-2.33 0.485-2.55 0-4.12-1.832-4.83-3.772-0.759 1.132-1.681 2.102-2.767 2.802-1.139 0.755-2.333 1.186-3.527 1.186zm-5.428-7.922v0.431c0 2.264 0.706 4.258 2.008 5.551 0.977 0.97 2.117 1.509 3.42 1.509 1.085 0 2.17-0.377 3.256-1.078 1.14-0.754 2.116-1.778 2.93-3.072 0.055-0.054 0.108-0.107 0.218-0.107 0.05 0 0.16 0.053 0.16 0.161 0.65 2.048 2.12 3.934 4.61 3.934h0.06c0.65 0 1.41-0.161 2.17-0.431 1.09-0.377 2.5-1.832 3.64-3.233 0.05-0.054 0.11-0.108 0.21-0.054 0.06 0 0.17 0.054 0.17 0.162 0.54 2.371 3.09 3.502 5.42 3.502h0.06c0.27 0 0.54 0 0.76-0.054 6.29-0.646 12.48-8.568 12.48-16.166v-0.054c0-2.318-0.76-4.365-2.06-5.605-0.93-0.916-2.07-1.347-3.31-1.347-0.33 0-0.71 0.054-1.09 0.108-0.11 0-0.21 0-0.21-0.108-0.06-0.108 0-0.216 0.05-0.269 3.42-2.641 9.39-8.03 9.39-12.718v-0.162c-0.06-2.317-1.63-4.419-3.53-4.742-0.43-0.054-0.87-0.108-1.3-0.108-3.91 0-6.41 3.341-8.41 6.521-2.94 4.58-5.54 11.694-7 18.915l-0.17 0.916c-0.27 1.455-0.59 2.802-0.92 5.012v0.053c-2.99 4.85-4.72 5.605-5.59 5.659h-0.16c-0.28-0.054-0.55-0.27-0.71-0.485-0.22-0.324-0.27-0.808-0.27-1.294 0-0.7 0.11-1.454 0.32-2.317v-0.054l3.97-14.765h-0.55c-0.76 0-1.9 0.161-2.93 0.808-0.05 0.054-0.16 0.054-0.21 0-0.71-0.431-1.58-0.701-2.39-0.808-0.38-0.054-0.76-0.054-1.09-0.054-7.812-0.054-13.184 9.376-13.402 15.843zm35.172-15.897l-0.11-0.162 0.11 0.162zm-6.57 19.508c-0.38-0.431-0.6-0.97-0.6-1.671v-0.269c0.16-1.994 0.65-5.066 1.3-7.06 0.06-0.161 0.17-0.485 0.22-0.808 0.27-0.916 0.71-2.533 1.3-3.88 0.6-1.347 1.36-2.533 2.5-2.587 0.16 0 0.33 0.054 0.54 0.108 0.6 0.216 1.47 1.347 1.47 4.257 0 0.755-0.06 1.563-0.22 2.587-0.32 2.425-1.25 5.874-3.53 8.676-0.59 0.755-1.3 1.186-2 1.186-0.33-0.108-0.71-0.27-0.98-0.539zm2.77-0.97c2.22-2.695 3.09-6.09 3.42-8.461 0.16-0.97 0.21-1.778 0.21-2.479 0-2.802-0.92-3.826-1.19-3.88-0.16-0.054-0.27-0.054-0.38-0.054-0.76 0-1.57 0.97-2.12 2.318-0.59 1.293-1.03 2.856-1.25 3.826-0.1 0.377-0.16 0.646-0.27 0.862-0.65 1.94-1.14 5.012-1.3 6.952v0.269c0 0.593 0.16 1.078 0.43 1.401 0.22 0.216 0.49 0.324 0.82 0.324 0.49-0.054 1.08-0.432 1.63-1.078zm-24.425 0.593c-0.868-0.27-1.031-1.24-1.085-2.587 0-0.431 0-0.916 0.054-1.455 0.217-3.018 1.791-8.569 4.179-10.94 0.488-0.431 0.922-0.7 1.411-0.754 0.436 0 0.756 0.215 0.976 0.431 0.33 0.323 0.49 0.808 0.49 1.293v0.108c-0.16 2.533-0.92 5.066-1.738 7.437-0.271 0.808-0.814 2.371-1.519 3.772-0.706 1.401-1.52 2.641-2.605 2.695h-0.163zm3.473-14.712c-2.279 2.209-3.853 7.76-4.07 10.67-0.054 0.539-0.054 1.024-0.054 1.401 0 1.347 0.217 2.102 0.76 2.21h0.162c0.652 0.053 1.52-1.078 2.226-2.479 0.705-1.348 1.194-2.964 1.465-3.719 0.813-2.371 1.523-4.85 1.683-7.329v-0.107c0-0.378-0.16-0.755-0.38-1.024-0.16-0.162-0.38-0.324-0.652-0.324-0.326 0.108-0.705 0.27-1.14 0.701zm21.272-6.413c-0.05-0.054-0.11-0.162-0.05-0.216 0.65-2.101 2.12-5.496 2.88-7.113 2-4.257 3.41-5.281 4.39-5.281 0.33 0 0.6 0.108 0.87 0.323 0.38 0.323 0.6 0.862 0.6 1.455v0.27c-0.22 2.64-3.48 7.221-8.42 10.562-0.05 0-0.05 0.054-0.1 0.054-0.06 0-0.11 0-0.17-0.054zm0.49-0.647c4.61-3.233 7.54-7.598 7.76-9.915v-0.216c0-0.539-0.16-0.916-0.43-1.132-0.22-0.161-0.44-0.215-0.6-0.215-0.65 0-2.01 0.808-4.01 5.065-0.71 1.402-2.01 4.366-2.72 6.413z" fill="#44C8F5"/>
 <path d="m39.672 50.171c5.753-1.832 9.66-6.143 9.714-11.047 0.055-8.245-16.552-8.353-21.545-1.617-0.977 1.293-1.9 3.611-1.411 5.443 0.651 2.371 4.342 2.856 6.512 0.754-0.325-1.724-0.542-2.91 0.489-4.85 2.225-4.203 8.954-3.179 8.846 0.593-0.163 5.982-5.264 10.131-11.885 9.7-1.086 0.701-2.117 2.371-2.063 3.719 5.373-0.108 9.335 0.484 10.366 3.88-1.682-0.432-3.745-0.647-6.241-0.432-4.667 0.432-7.652 2.264-9.28 3.665-0.923 0.808-1.683 1.778-2.171 2.533-4.667 7.652 2.279 12.017 9.769 11.478 7.706-0.539 14.381-4.742 15.684-13.418 1.031-5.874-1.52-8.461-6.784-10.401zm-6.838 19.616c-4.45 1.455-7.055-1.833-4.885-5.874 1.14-2.156 3.745-3.18 6.404-3.611 1.574-0.215 3.148-0.161 4.505 0-0.489 4.042-3.039 8.515-6.024 9.485z" fill="#fff"/>
 <path d="m19.375 67.2c0-1.401 0.488-3.018 1.519-4.742 0.489-0.808 1.248-1.778 2.225-2.587 1.683-1.455 4.668-3.287 9.389-3.718 0.706-0.054 1.357-0.108 1.954-0.108 1.465 0 2.822 0.162 3.962 0.431-1.086-2.694-4.396-3.395-9.009-3.395h-1.031c-0.109 0-0.218-0.108-0.218-0.215v-0.108c0-1.455 1.032-3.072 2.171-3.826l0.109-0.054c0.326 0 0.651 0.054 0.922 0.054 6.024 0 10.529-3.934 10.692-9.539v-0.108c0-1.886-1.845-3.017-3.908-3.017-1.736 0-3.582 0.808-4.504 2.586-0.543 1.024-0.706 1.832-0.706 2.587 0 0.647 0.109 1.293 0.272 2.102 0 0.053 0 0.161-0.055 0.161-0.977 0.916-2.279 1.348-3.473 1.348-1.574 0-2.985-0.755-3.419-2.21-0.109-0.377-0.163-0.754-0.163-1.186 0-1.67 0.814-3.394 1.574-4.472 2.388-3.234 7.381-4.904 11.994-4.904 5.101 0 9.877 2.101 9.931 6.628v0.054c0 4.904-3.744 9.161-9.28 11.101 4.233 1.617 6.675 3.934 6.675 8.191 0 0.701-0.054 1.402-0.162 2.21-1.357 8.784-8.141 13.095-15.902 13.58-0.434 0.054-0.814 0.054-1.248 0.054-5.427 0.162-10.311-2.317-10.311-6.898zm13.187-10.67c-4.613 0.431-7.543 2.21-9.171 3.611-0.923 0.754-1.683 1.724-2.117 2.479-1.031 1.724-1.465 3.233-1.465 4.526 0 2.102 1.139 3.772 2.93 4.904s4.288 1.778 6.947 1.778c0.38 0 0.814 0 1.194-0.053 7.598-0.539 14.165-4.689 15.522-13.257 0.108-0.755 0.162-1.509 0.162-2.156 0-4.311-2.442-6.359-6.946-8.029l0.054-0.216 0.054 0.216-0.054-0.216-0.054 0.27c-0.109-0.054-0.163-0.108-0.163-0.216s0.054-0.162 0.163-0.215c5.698-1.833 9.551-6.036 9.551-10.886v-0.054c0-2.102-1.085-3.611-2.822-4.635-1.737-1.023-4.124-1.562-6.675-1.562-4.505 0-9.389 1.67-11.668 4.742-0.76 1.024-1.52 2.694-1.52 4.203 0 0.378 0.054 0.701 0.163 1.078 0.325 1.24 1.574 1.94 3.039 1.94 1.031 0 2.171-0.377 3.094-1.186-0.109-0.754-0.272-1.401-0.272-2.047 0-0.863 0.217-1.725 0.76-2.803 1.031-1.94 3.039-2.856 4.884-2.856 2.225 0 4.342 1.24 4.342 3.449v0.108c-0.163 5.82-4.884 9.916-11.126 9.916-0.271 0-0.596 0-0.922-0.054-0.923 0.647-1.845 2.101-1.9 3.341h0.814c4.83 0 8.521 0.7 9.552 3.988 0 0.054 0 0.161-0.054 0.215s-0.109 0.054-0.217 0.054c-1.194-0.269-2.605-0.485-4.233-0.485-0.543 0-1.194 0.054-1.846 0.108zm-4.558 12.826c-0.652-0.647-1.032-1.563-1.032-2.641 0-0.862 0.272-1.886 0.815-2.91 1.194-2.263 3.853-3.287 6.566-3.718 0.706-0.108 1.411-0.162 2.117-0.162 0.868 0 1.682 0.054 2.442 0.162 0.109 0 0.217 0.107 0.163 0.215-0.543 4.096-3.093 8.623-6.241 9.646-0.76 0.27-1.466 0.378-2.117 0.378-1.031 0.054-2.008-0.324-2.713-0.97zm6.404-8.838c-2.66 0.431-5.156 1.455-6.296 3.503-0.542 0.97-0.76 1.886-0.76 2.694 0 1.94 1.303 3.233 3.42 3.233 0.596 0 1.248-0.107 1.953-0.323 2.822-0.916 5.319-5.173 5.916-9.107-0.706-0.108-1.466-0.162-2.225-0.162-0.597 0-1.303 0.054-2.008 0.162z" fill="#44C8F5"/>
 <path d="m68.218 51.842v0c1.194-4.904 1.9-9.916 0.597-12.988-2.605-6.035-9.443-4.419-12.102-2.91-3.093 1.779-4.179 4.635-4.016 6.036 0.217 1.778 2.822 2.479 4.613 1.239-0.597-1.293 0.108-2.586 1.031-3.449 2.605-2.155 6.567-0.538 5.753 4.689-0.109 0.862-0.217 2.101-0.543 3.395-1.031-0.162-2.117-0.108-2.659-0.108-6.133 0-11.506 7.976-12.048 14.82-0.163 2.155 0.054 4.149 0.651 5.496 0.814 1.833 2.551 2.803 4.721 2.856 7.273 0.27 10.746-6.844 12.537-13.634 0.488-1.778 1.14-3.61 1.465-5.442zm-10.745 14.442c-0.435 0.323-0.869 0.539-1.194 0.539-0.326 0-0.597-0.108-0.869-0.377-0.488-0.539-0.705-1.509-0.597-2.533 0.435-3.934 2.66-10.293 4.559-11.802 0.272-0.215 1.031-0.754 1.791-0.754 0.271 0 0.543 0.107 0.76 0.269 0.108 0.108 0.38 0.431 0.38 1.617-0.055 3.718-2.605 11.263-4.83 13.041z" fill="#fff"/>
 <path d="m54.271 71.08c-2.225-0.108-4.071-1.078-4.885-2.964-0.488-1.078-0.705-2.533-0.705-4.203 0-0.431 0-0.916 0.054-1.401 0.543-6.898 5.97-14.982 12.265-15.035h0.706c0.488 0 1.14 0 1.791 0.107 0.271-1.185 0.38-2.371 0.488-3.179 0.055-0.431 0.109-0.862 0.109-1.24 0-2.802-1.574-4.095-3.202-4.095-0.76 0-1.574 0.269-2.334 0.862-0.651 0.593-1.194 1.455-1.194 2.317 0 0.27 0.054 0.593 0.217 0.916 0.055 0.108 0 0.216-0.054 0.27-0.651 0.485-1.411 0.647-2.171 0.647-1.357 0-2.659-0.755-2.768-2.048v-0.324c0-1.562 1.14-4.203 4.125-5.874 1.248-0.7 3.31-1.401 5.535-1.401 2.606 0 5.373 1.078 6.839 4.419 0.542 1.186 0.705 2.641 0.705 4.258 0 2.64-0.542 5.766-1.302 8.784v0.053c-0.326 1.887-0.977 3.665-1.411 5.443-1.737 6.629-5.102 13.796-12.32 13.796-0.217-0.054-0.38-0.054-0.488-0.108zm-5.156-8.514c-0.054 0.485-0.054 0.916-0.054 1.347 0 1.617 0.217 3.018 0.705 4.041 0.76 1.725 2.388 2.641 4.505 2.749h0.434c6.838 0 10.149-6.844 11.885-13.472 0.489-1.779 1.14-3.611 1.411-5.443l0.217 0.054-0.162-0.054h-0.055 0.055-0.055c0.76-3.018 1.303-6.09 1.303-8.676 0-1.617-0.217-3.018-0.706-4.096-1.411-3.233-3.962-4.15-6.458-4.15-2.117 0-4.179 0.701-5.318 1.348-2.823 1.616-3.908 4.149-3.908 5.55v0.27c0.108 1.024 1.14 1.67 2.388 1.67 0.597 0 1.194-0.161 1.791-0.485-0.109-0.323-0.163-0.593-0.163-0.916 0-1.024 0.651-1.94 1.357-2.587 0.814-0.646 1.682-0.97 2.605-0.97 1.899 0 3.636 1.563 3.636 4.527 0 0.431-0.054 0.862-0.109 1.347-0.108 0.863-0.217 2.102-0.542 3.396 0 0.107-0.109 0.161-0.217 0.161-0.706-0.108-1.412-0.108-1.954-0.108h-0.706c-5.97-0.161-11.342 7.76-11.885 14.497zm7.164 4.472c-0.38 0-0.706-0.161-0.977-0.485-0.434-0.485-0.651-1.293-0.651-2.155 0-0.162 0-0.377 0.054-0.593 0.488-3.988 2.659-10.293 4.613-11.909 0.326-0.216 1.085-0.809 1.899-0.809 0.326 0 0.652 0.108 0.869 0.323 0.162 0.162 0.434 0.539 0.434 1.725v0.054c-0.054 3.826-2.497 11.317-4.83 13.257-0.543 0.377-0.977 0.592-1.411 0.592zm3.202-14.765c-1.737 1.401-4.016 7.76-4.451 11.64 0 0.161-0.054 0.323-0.054 0.539 0 0.808 0.217 1.509 0.543 1.886 0.217 0.215 0.434 0.323 0.705 0.323 0.326 0 0.706-0.161 1.086-0.485 2.116-1.724 4.722-9.269 4.722-12.933v-0.054c0-1.132-0.272-1.401-0.272-1.401-0.163-0.162-0.38-0.216-0.597-0.216-0.705-0.054-1.411 0.485-1.682 0.701z" fill="#44C8F5"/>
 <path d="m147.94 65.044c-0.43-0.646-0.27-2.047 0.06-3.448l4.07-15.036s-2.12-0.377-3.86 0.809c-0.76-0.431-1.63-0.755-2.49-0.809-0.38-0.054-0.76-0.054-1.14-0.054-7.82 0-13.24 9.539-13.46 16.114-0.11 2.478 0.65 4.742 2.06 6.143 0.98 1.024 2.22 1.563 3.58 1.563 1.14 0 2.28-0.378 3.37-1.132 1.19-0.808 2.17-1.832 2.98-3.126 0 1.833 1.03 4.258 4.02 3.988 3.96-0.323 4.23-5.55 4.23-5.55-0.6 0.646-2.6 1.724-3.42 0.538zm-5.53-5.766c-0.55 1.617-2.28 6.79-4.13 6.305-0.92-0.215-0.98-1.616-0.87-3.826 0.22-2.964 1.79-8.514 4.13-10.831 0.43-0.432 0.87-0.647 1.3-0.647 0.38 0 0.65 0.215 0.82 0.377 0.32 0.323 0.48 0.808 0.43 1.24-0.11 2.532-0.87 5.065-1.68 7.382z" fill="#fff"/>
 <path d="m136.71 70.487c-1.41 0-2.72-0.539-3.69-1.616-1.36-1.401-2.12-3.503-2.12-5.874v-0.431c0.27-6.629 5.64-16.221 13.68-16.275h0.05c0.38 0 0.76 0 1.14 0.054 0.81 0.108 1.68 0.377 2.44 0.808 1.09-0.7 2.28-0.808 3.1-0.808 0.49 0 0.81 0.054 0.81 0.054 0.06 0 0.11 0.054 0.16 0.107 0.06 0.054 0.06 0.108 0 0.162l-4.07 15.035v0.054c-0.16 0.809-0.32 1.563-0.32 2.21 0 0.485 0.05 0.808 0.21 1.024l-0.16 0.107-0.16 0.108c-0.22-0.323-0.33-0.754-0.33-1.293 0-0.701 0.17-1.509 0.33-2.371v-0.054l3.96-14.766h-0.54c-0.76 0-1.9 0.162-2.93 0.808-0.06 0.054-0.17 0.054-0.22 0-0.71-0.431-1.57-0.7-2.39-0.808-0.38-0.054-0.7-0.054-1.08-0.054-7.66 0-13.03 9.431-13.3 15.898v0.431c0 2.263 0.71 4.257 2.01 5.55 0.98 0.97 2.11 1.509 3.42 1.509 1.08 0 2.17-0.377 3.25-1.078 1.14-0.754 2.12-1.778 2.94-3.071 0.05-0.054 0.16-0.108 0.21-0.108 0.11 0.054 0.17 0.108 0.17 0.215v0.054c0 1.671 0.92 3.773 3.41 3.773h0.44c2.98-0.216 3.74-3.503 3.96-4.85-0.54 0.377-1.3 0.754-2.06 0.754-0.49 0-0.98-0.162-1.25-0.593l0.16-0.108 0.16-0.107c0.22 0.323 0.55 0.431 0.93 0.431 0.81 0 1.84-0.593 2.17-1.024 0.05-0.054 0.16-0.108 0.22-0.054 0.1 0.054 0.16 0.108 0.1 0.216 0 0-0.27 5.335-4.39 5.766h-0.44c-2.49 0-3.58-1.94-3.74-3.611-0.76 1.078-1.63 1.94-2.66 2.641-1.19 0.808-2.39 1.185-3.58 1.185zm1.52-4.688c-0.87-0.269-1.03-1.239-1.09-2.587 0-0.431 0-0.916 0.06-1.455 0.21-3.018 1.79-8.568 4.18-10.939 0.43-0.431 0.92-0.701 1.41-0.755 0.43 0 0.76 0.216 0.97 0.431 0.33 0.324 0.49 0.809 0.49 1.294v0.108c-0.16 2.532-0.92 5.065-1.73 7.436-0.28 0.809-0.82 2.371-1.52 3.772-0.71 1.402-1.52 2.641-2.61 2.695 0.05 0.054-0.05 0-0.16 0zm3.47-14.712c-2.28 2.21-3.85 7.76-4.07 10.67-0.05 0.539-0.05 1.024-0.05 1.401 0 1.348 0.21 2.102 0.76 2.21h0.16c0.65 0.054 1.52-1.078 2.22-2.479 0.66-1.347 1.2-2.964 1.47-3.718 0.81-2.372 1.52-4.851 1.68-7.329v-0.108c0-0.377-0.16-0.755-0.38-1.024-0.16-0.162-0.38-0.323-0.65-0.323-0.32 0.107-0.7 0.269-1.14 0.7z" fill="#44C8F5"/>
 <path d="m81.732 47.369c-2.117 0-4.288 1.078-5.536 2.587-0.543-1.671-1.14-2.479-3.256-2.91-0.109 0-0.163 0-0.272 0.053-0.054 0.054-0.108 0.108-0.108 0.216-0.163 1.724-5.97 23.172-7.978 30.771h2.768c3.093 0 3.69-2.048 3.908-2.856 0.868-3.234 1.519-5.12 1.519-5.12s1.52 0.377 2.279 0.377c6.133 0 11.506-7.975 12.048-14.819 0.163-2.156-0.054-4.15-0.651-5.497-0.814-1.778-2.551-2.802-4.721-2.802zm-0.543 7.005c-0.434 3.934-2.659 10.293-4.559 11.802-0.271 0.216-1.031 0.755-1.791 0.755-0.271 0-0.542-0.108-0.759-0.27-0.109-0.108-0.38-0.431-0.38-1.617 0-3.718 2.55-11.262 4.776-13.095 0.434-0.323 0.868-0.539 1.248-0.539 0.325 0 0.597 0.108 0.868 0.378 0.488 0.539 0.706 1.562 0.597 2.586z" fill="#fff"/>
 <path d="m64.419 78.247c-0.054-0.053-0.054-0.107-0.054-0.161 2.008-7.599 7.815-29.1 7.978-30.771 0-0.162 0.108-0.269 0.217-0.377 0.108-0.054 0.217-0.108 0.326-0.108h0.108c1.954 0.377 2.768 1.186 3.256 2.694 1.303-1.455 3.365-2.371 5.427-2.371 2.225 0 4.017 1.078 4.885 2.964 0.488 1.078 0.705 2.533 0.705 4.203 0 0.432 0 0.917-0.054 1.402-0.543 6.898-5.97 14.927-12.265 15.035-0.651 0-1.737-0.216-2.171-0.324-0.163 0.539-0.705 2.264-1.465 4.958-0.217 0.809-0.869 3.018-4.071 3.018h-2.767c0.054-0.054 0-0.108-0.055-0.162zm8.412-30.932l-0.054 0.054c-0.163 1.778-5.861 22.687-7.923 30.555h2.496c2.985-0.054 3.473-1.886 3.69-2.694 0.869-3.234 1.52-5.12 1.52-5.12 0.054-0.108 0.163-0.162 0.271-0.162 0 0 0.38 0.108 0.869 0.162 0.488 0.108 1.031 0.162 1.411 0.162 5.915 0 11.288-7.868 11.831-14.604 0.054-0.485 0.054-0.916 0.054-1.348 0-1.616-0.217-3.017-0.706-4.041-0.759-1.725-2.388-2.749-4.504-2.749-2.062 0-4.179 1.024-5.373 2.533-0.054 0.054-0.108 0.108-0.217 0.054-0.054 0-0.163-0.054-0.163-0.161-0.542-1.671-1.031-2.318-3.093-2.749-0.054 0.054-0.109 0.108-0.109 0.108zm1.14 19.508c-0.163-0.162-0.434-0.539-0.434-1.725v-0.054c0.054-3.826 2.496-11.316 4.83-13.256 0.434-0.378 0.923-0.593 1.357-0.593h0.054c0.38 0 0.706 0.162 0.977 0.485 0.434 0.485 0.651 1.293 0.651 2.156 0 0.161 0 0.377-0.054 0.592h-0.217 0.217c-0.489 3.988-2.66 10.293-4.613 11.91-0.326 0.215-1.086 0.808-1.9 0.808-0.325 0-0.597-0.108-0.868-0.323zm4.667-14.712c-2.116 1.725-4.721 9.269-4.721 12.933v0.054c0 1.132 0.271 1.402 0.271 1.402 0.163 0.161 0.38 0.215 0.597 0.215 0.651 0 1.357-0.485 1.628-0.701 1.737-1.401 4.016-7.76 4.45-11.64 0-0.161 0.055-0.377 0.055-0.538 0-0.809-0.217-1.509-0.543-1.887-0.217-0.215-0.434-0.323-0.706-0.323-0.217 0-0.597 0.162-1.031 0.485z" fill="#44C8F5"/>
 <path d="m158.09 47.962c1.3 0.107 2.39 1.293 2.39 2.64s-1.09 2.425-2.39 2.317c-1.3-0.107-2.39-1.293-2.39-2.64s1.09-2.371 2.39-2.317zm0 0.377c-1.09-0.054-2.01 0.808-2.01 1.994 0 1.131 0.92 2.209 2.01 2.263s2.01-0.862 2.01-1.994-0.87-2.209-2.01-2.263zm-0.71 3.395h-0.16v-2.695l0.87 0.054c0.6 0.054 0.87 0.27 0.87 0.647 0 0.431-0.44 0.647-0.82 0.7l0.82 1.078 0.16 0.216 0.06 0.108c-0.06 0-0.17-0.054-0.22-0.054h-0.22c-0.11-0.108-0.16-0.216-0.27-0.378l-0.49-0.646-0.32-0.377h-0.17v1.347h-0.11zm0.66-1.455c0.38 0 0.59-0.162 0.59-0.485 0-0.27-0.16-0.431-0.43-0.485l-0.6-0.054v0.97l0.44 0.054z" fill="#fff"/>
 <defs>
  <linearGradient id="paint0_linear" y2="105.77" gradientUnits="userSpaceOnUse" x2="88.255" y1="7.5117" x1="88.021">
   <stop stop-color="#0072BC" offset="0"/>
   <stop stop-color="#2E3192" offset=".8562"/>
  </linearGradient>
  <linearGradient id="paint1_linear" y2="59.972" gradientUnits="userSpaceOnUse" x2="88.296" y1="7.141" x1="88.17">
   <stop stop-color="#00C2F3" offset=".1384"/>
   <stop stop-color="#00B1E8" offset=".1638"/>
   <stop stop-color="#0099D7" offset=".2137"/>
   <stop stop-color="#0086CA" offset=".2659"/>
   <stop stop-color="#0079C1" offset=".3202"/>
   <stop stop-color="#0070BA" offset=".3774"/>
   <stop stop-color="#006BB7" offset=".4395"/>
   <stop stop-color="#006AB6" offset=".5156"/>
   <stop stop-color="#006CB7" offset=".8304"/>
   <stop stop-color="#006CB7" offset="1"/>
  </linearGradient>
  <linearGradient id="paint2_linear" y2="-29.476" gradientUnits="userSpaceOnUse" x2="117.97" y1="126.12" x1="63.473">
   <stop stop-color="#AB7210" offset="0"/>
   <stop stop-color="#C7922C" offset=".038991"/>
   <stop stop-color="#EEBF54" offset=".094658"/>
   <stop stop-color="#FFD566" offset=".1236"/>
   <stop stop-color="#FECF62" offset=".151"/>
   <stop stop-color="#F7C258" offset=".18"/>
   <stop stop-color="#EEAE49" offset=".2097"/>
   <stop stop-color="#E29335" offset=".2398"/>
   <stop stop-color="#D47521" offset=".2701"/>
   <stop stop-color="#D06E1D" offset=".2768"/>
   <stop stop-color="#D0B201" offset=".3476"/>
   <stop stop-color="#E4C835" offset=".4836"/>
   <stop stop-color="#F2D650" offset=".5999"/>
   <stop stop-color="#F6DC5A" offset=".6747"/>
   <stop stop-color="#F2D652" offset=".6918"/>
   <stop stop-color="#E8C53A" offset=".7168"/>
   <stop stop-color="#D7AC11" offset=".7466"/>
   <stop stop-color="#D4A80A" offset=".7509"/>
   <stop stop-color="#D6AA0E" offset=".7857"/>
   <stop stop-color="#D9AF1B" offset=".8112"/>
   <stop stop-color="#DFB82F" offset=".8338"/>
   <stop stop-color="#E8C448" offset=".8546"/>
   <stop stop-color="#F3D668" offset=".8741"/>
   <stop stop-color="#FFEF8D" offset=".8927"/>
   <stop stop-color="#FFEB89" offset=".9115"/>
   <stop stop-color="#FCE17D" offset=".9276"/>
   <stop stop-color="#F6D36B" offset=".9427"/>
   <stop stop-color="#EDC050" offset=".9572"/>
   <stop stop-color="#E2AA2F" offset=".9711"/>
   <stop stop-color="#D99814" offset=".9807"/>
  </linearGradient>
 </defs>
</svg>
