<svg xmlns="http://www.w3.org/2000/svg" height="142" width="293.333" xml:space="preserve"><path style="fill:#0f4b84;fill-opacity:1;fill-rule:nonzero;stroke:none" d="m1120.1 749.309 17.89-38.403-8.22-3.828-6.45 13.781-34.58-16.113-5 11.145 34.6 16.113-6.15 13.496zm-11.73 10.254c-1.17-5.872-5.66-10.95-13.47-15.247l-2.66-1.464-15.52 27.843c-3.13-2.14-4.98-4.582-5.59-7.328-.78-3.512 0-7.234 2.34-11.14l5.89-7.325 4.38-3.23-7.91-4.688-2.64 2.047-5.86 6.469-2.65 4.09c-3.11 5.09-4.28 11.047-3.51 17.883.59 7.039 4.7 12.422 12.3 16.121 5.3 3.136 11.15 4.211 17.61 3.23 6.63-1.765 11.52-5.465 14.65-11.14l.3-.879v-.293c2.54-4.297 3.33-9.285 2.34-14.949m-9.97 12.312c-2.14 2.727-4.27 4.113-6.45 4.113l-8.21-1.183 9.68-16.7c3.51 2.149 5.49 4.383 5.86 6.731zM803.496 1029.84l7.328-3.81-3.511-8.79-2.938 2.34-3.809 1.47-12.019-1.19c-3.32-1.95-5.563-4.88-6.746-8.79-1.559-4.1-1.469-8.21.293-12.308 1.769-3.332 4.5-5.567 8.211-6.739l6.449-.89h2.93l-2.629-8.778-11.442 2.344c-7.039 2.149-11.918 5.653-14.66 10.547-2.34 5.284-3.219 10.164-2.629 14.644l.289 3.24 2.34 5.27c2.16 4.88 5.77 8.69 10.848 11.44 5.484 2.74 11.832 2.83 19.054.29zM856.254 980c-2.527-5.859-6.84-10.254-12.891-13.191-5.668-2.153-12.019-1.555-19.062 1.765-6.633 2.344-11.125 6.828-13.477 13.477-2.34 5.273-2.051 11.242.879 17.883 3.512 7.036 8.11 11.526 13.77 13.496l18.769-.89c7.043-3.13 11.633-7.72 13.781-13.778 1.372-5.469.79-11.731-1.769-18.762m-10.246 17.297c-.985 3.323-2.832 5.773-5.574 7.323l-8.797-.88c-3.121-.97-5.86-4.002-8.203-9.08-1.368-4.101-1.864-7.91-1.469-11.437.98-3.321 3.031-5.555 6.16-6.739 2.738-1.757 5.66-1.757 8.789 0 2.93 1.965 5.481 5.09 7.621 9.375 1.949 4.7 2.445 8.508 1.473 11.438m17.297-20.813c3.332 5.676 8.019 9.668 14.078 12.024 5.273 1.758 11.332.965 18.16-2.356l1.18-.293c3.922-2.539 6.929-6.531 9.093-12.011 1.758-5.086.489-11.731-3.812-19.93l-1.168-2.648-28.453 15.539c-.965-3.321-1.059-6.457-.278-9.387.969-2.93 3.418-5.469 7.321-7.617l9.09-3.516 5.566-.887-4.68-8.195-6.457 1.465-9.382 3.808v.872c-5.465 2.554-9.672 6.746-12.602 12.617-2.746 5.664-1.945 12.5 2.344 20.515m19.64 3.235c-1.949-.391-4.007-2.149-6.164-5.293l17.301-9.668c1.57 3.125 1.859 5.965.895 8.504-.793 3.125-2.164 5.187-4.114 6.164zm21.403-45.156c4.297.984 7.816 3.035 10.547 6.152l16.128 21.695 30.778-21.394-22.274-31.075 6.446-4.394-12.313-17-9.086 6.148 7.321 9.973-27.547 19.055-7.035-10.266-9.09 6.445 11.734 17.598zm22.578 2.351-4.992-4.988-7.321-4.406 14.942-10.254 16.418 23.75-11.137 7.617-3.813-5.281-1.179-1.164zm125.444-85.594-35.17-31.379-8.49 9.383 15.53 13.188-13.19 14.949a229.206 229.206 0 0 1-14.945-13.176l-7.921 9.668 35.176 30.785 8.5-9.093-13.77-12.024 12.9-14.949 13.48 12.023zm-40.44 44.547-32.535-34.597-8.797 8.808 22.863 24.328h-.277l-37.84-10.265-9.66 9.093 32.242 34.286 9.086-7.911-23.149-24.035 37.507 9.973zm59.2-69.176 14.69-19.933-38.43-27.274-7.32 9.403 14.67 10.84-3.52 4.394-19.36-3.223-8.79 12.305 22.56 1.465c-1.16 3.125-1.55 5.664-1.16 7.629.58 2.539 1.47 4.5 2.64 5.859l1.47 2.34 2.05.883.29.574c2.53 1.582 5.97 2.063 10.25 1.485 4.12-.391 7.44-2.645 9.96-6.747m-9.05-4.699-4.73-1.172-2.61-4.675 1.46-5.579 4.97-6.445 10.85 7.902-4.96 6.465c-1.19 1.551-2.85 2.723-4.98 3.504M731.676 1051.23l2.64-1.16-2.05-8.81-3.223 2.06-4.398.29c-4.114 1.18-7.821.39-11.137-2.35-3.32-2.92-5.086-6.25-5.285-9.95-1.36-4.5-.868-8.42 1.468-11.73 1.754-2.73 4.684-4.79 8.805-6.15h8.777l1.168.57-1.168-9.09h-7.621l-4.675.88c-6.852.99-12.024 3.71-15.543 8.21-2.93 5.29-4.598 9.96-4.981 14.08l.867 3.23v2.64l.895 3.22c.969 5.09 4.098 9.28 9.371 12.6 4.887 3.51 11.238 4.5 19.059 2.93zm-68.293 2.05h-6.746l-8.215-2.05 1.172 8.79 10.851 2.06h2.938l3.512-.88c6.25-.19 10.839-1.75 13.769-4.68l4.988-7.91v-7.63l-3.804-29.61-12.024 1.76.582 6.73-3.511-3.81-4.692-1.47-4.105-.58h-3.227c-5.066.41-8.887 2.25-11.43 5.58l-3.816 7.9v3.83c.98 3.7 3.242 6.83 6.746 9.37 3.91 2.74 10.16 3.62 18.77 2.64l1.754-.89h2.05l1.461-.28h2.645v1.46c0 3.32-.879 5.68-2.645 7.03zm-4.121-31.06 7.922 1.46c2.539 1.57 4.101 4.69 4.691 9.38v1.46h-2.34l-2.64.6h-3.512l-6.746-1.17c-2.356-.4-3.824-1.97-4.391-4.69v-.61c0-1.35.567-2.73 1.746-4.09.594-1.56 2.352-2.34 5.27-2.34m-62.137 24.92h19.93l.879 17.58h12.32l-1.184-47.48h-12.308l.293 20.51-19.93.59-.289-20.22h-12.309l1.164 46.89h12.313zm-81.488 2.93c-3.332-.6-5.965-2.27-7.922-4.98-1.938-2.75-2.539-6.65-1.762-11.74.789-4.87 2.352-8.49 4.692-10.85 1.765-1.95 4.589-2.92 8.5-2.92 3.531.77 5.957 2.43 7.339 4.98 2.137 2.74 2.832 6.55 2.051 11.44-.39 4.87-1.965 8.69-4.703 11.42-2.918 2.15-5.668 3.03-8.195 2.65m-1.461 9.38c7.804.2 14.054-1.47 18.758-4.99 4.476-3.51 7.418-9.1 8.789-16.71.39-7.04-1.172-13.09-4.688-18.17-3.519-4.7-9.191-7.53-17-8.51-7.23-1.18-13.293.2-18.18 4.12-4.89 4.48-7.824 10.06-8.804 16.7-.965 7.43.601 13.47 4.703 18.18 3.711 5.26 9.187 8.4 16.422 9.38m-70.953-23.75-2.34 8.79 41.328 8.79 1.766-8.79-14.661-3.51 8.497-37.24-12.61-2.63-7.316 37.52zm-12.891 4.1 14.359-44.554-11.718-3.801-5.278 16.115-10.847-4.98-13.485-.29c-3.32 1.17-5.468 2.92-6.449 5.27l-.289 1.76-1.18 2.05-4.992 15.83 11.731 3.51 4.386-14.66.602-.29v-.57l2.633-3.24 6.75.59 2.925.89 2.645 1.76 1.758.57 1.172.29-6.75 19.95zm-77.109-93.792-6.731 21.98 10.555 5.86 6.156-22.578zm-111.977-15.254-5.562 7.613 34.589 23.75 5.278-7.332-12.606-8.496 22.289-31.074-10.269-7.039-21.981 31.375zm42.809 34.004c.98 5.672 4.789 10.644 11.429 14.961 6.649 4.101 12.891 5.371 18.758 3.797 6.449-1.758 11.434-5.575 14.953-11.434 3.508-5.859 4.789-11.906 3.809-18.164-.969-6.066-4.879-11.145-11.719-15.246-6.262-3.723-12.512-5.086-18.769-4.109-6.25 1.765-11.133 5.664-14.649 11.726-3.914 6.25-5.179 12.402-3.812 18.469m34.011.301c-2.746 4.484-5.683 7.226-8.812 8.203-3.313.988-6.348.586-9.078-1.18-2.731-1.359-4.301-3.801-4.692-7.324-.589-3.528.489-7.422 3.231-11.723 2.73-3.914 5.758-6.453 9.078-7.633l9.094.606c2.527 1.746 4.008 4.187 4.398 7.312.199 3.528-.879 7.434-3.219 11.739M191.715 856.887l6.437-19.641-10.246-9.969-6.164 21.395-7.328-2.332-5.57 1.746-3.801 2.051v.586h-.887c-2.152 2.539-3.121 5.871-2.922 9.972-.199 4.102 1.559 7.918 5.282 11.414L182.926 890l34-32.82-8.789-9.094-12.614 12.609zm-1.473 9.082-9.961 8.797-5.867-5.575c-1.562-2.148-2.242-3.808-2.043-4.992-.199-2.148.481-3.691 2.043-4.676l4.703-2.062c1.746.391 3.406 1.184 4.977 2.355zm34.891 0-8.801 8.797 9.094 8.789 9.086-9.082zm-80.031-19.055 37.519-27.258-7.023-10.261-26.684 19.929 14.07-36.344-7.332-10.839-38.109 27.832 6.75 9.683 27.25-19.351-15.23 35.769zm-54.809-80.906 32.527-19.043 10.278 16.695-33.141 19.36 6.457 10.546 32.539-19.054 3.801 6.738 18.762-10.555-5.864-9.66-10.55 5.86-20.809-35.176-40.461 23.144zm17.871-53.645 2.348-4.394.593-4.395-2.062-7.629c-2.34-5.078-5.27-8.113-8.777-9.082l-8.524-1.179-1.449.586-1.176.593h-.582l-.59.578c-3.32 1.379-5.574 4.2-6.738 8.504-1.574 3.723-.305 9.985 3.797 18.762l.297 2.063 1.172 1.453.289 1.472 1.183 2.055-1.472 1.172-7.328-.598-4.68-5.554-2.063-7.043-.574-8.789-8.805 4.093 2.059 10.86 2.633 6.433c2.539 5.676 5.469 9.395 8.789 11.153 2.941 1.554 5.96 2.336 9.094 2.336l3.816-1.165 30.18-13.789-5.27-11.132c-2.152 1.179-4.203 2.058-6.16 2.636m-13.187 6.164-.582-1.464-.59-.293-2.063-6.165-1.449-7.031c.379-2.547 1.563-4.297 3.512-5.281h.59c.972-.781 2.44-.781 4.39 0l4.11 4.109c.976 2.141 1.269 4.981.878 8.504-.589 2.532-3.128 4.985-7.628 7.317zm-40.743-30.492 44.551-15.828-4.39-11.141-33.13 11.141 29.32-22.566-3.823-11.145-36.926.574v-.574l33.129-11.445-4.113-11.121L34.3 630.867l5.863 16.125 37.219.879.3.293-29.605 22.871zm0-77.097c7.621-1.766 12.801-4.395 15.532-7.911 3.14-3.914 4.699-7.918 4.699-12.031l-.594-1.746v-2.637l-3.52-7.629-5.269-3.808v-.598h-.887l25.22-4.976-1.774-11.731-65.946 12.617 2.336 10.547 7.922-1.465-4.695 7.325c-1.363 3.332-1.563 6.652-.582 9.98.98 5.859 3.808 10.059 8.5 12.598 4.297 2.929 10.648 3.41 19.058 1.465m7.317-17.598c-2.145 2.551-5.465 4.316-9.957 5.285l-11.14-.883c-2.74-1.363-4.493-3.609-5.278-6.746-.39-2.527.39-5.176 2.347-7.898 1.95-2.356 5.372-4.114 10.258-5.293l10.84 1.179c2.742 1.563 4.492 3.719 5.285 6.446.395 3.332-.379 5.976-2.355 7.91m-43.664-61.555c.39 7.414 3.215 13 8.496 16.723 4.492 4.492 10.453 6.16 17.87 4.98 6.65-.207 12.321-2.734 17.013-7.636 4.312-4.473 5.957-10.743 4.98-18.762-.781-7.617-3.613-13.184-8.492-16.707-4.703-4.113-10.563-5.766-17.59-4.992-7.23.195-13 2.832-17.297 7.922-4.3 5.468-5.96 11.628-4.98 18.472m12.008-9.383c2.937-2.558 6.75-3.914 11.43-4.121 4.5-.371 8.222.403 11.152 2.375 3.129 1.551 4.789 4.102 4.98 7.606.586 3.308-.484 6.062-3.223 8.203-2.347 2.734-6.156 4.121-11.441 4.121-5.078.793-8.79.098-11.129-2.059-2.547-1.757-4.207-4.297-4.988-7.609 0-2.938 1.078-5.781 3.219-8.516m-14.653-46.316v2.344l.88 1.465c.19 3.71 2.35 7.527 6.452 11.445 2.93 3.308 8.586 4.859 17 4.687 7.43.379 13.09-.988 17-4.113 3.52-3.32 5.672-6.941 6.45-10.84l.882-2.051v-6.746l-1.46-3.82h20.519v-12.004h-20.52l1.461-4.41.29-4.98v-3.809c-.782-3.723-2.93-7.219-6.442-10.551-3.52-2.926-9.293-4.801-17.3-5.562-7.43.379-12.997 2.031-16.708 4.968-3.91 2.93-6.351 6.543-7.332 10.86l-.293 1.457v2.344l.293 3.816 1.473 4.687H.004v12.61h17.578l-1.46 4.394zm9.973-2.641v-1.472l.289-2.325 1.172-1.765 26.375.293 1.183 2.344.582 1.757v1.746c0 2.547-1.273 4.895-3.808 7.051-3.512 1.961-7.328 2.617-11.434 2.039-4.89 0-8.699-.875-11.437-2.633-2.14-1.769-3.121-4.101-2.922-7.035m1.168-18.757v-1.18l-.88-1.738v-2.364c0-2.746 1.27-4.883 3.813-6.437l10.848-2.637c5.281 0 9.078.977 11.43 2.922 2.34 1.562 3.508 3.711 3.508 6.453l-.868 4.688v.878l-.59.586-26.968-.586zm-7.34-43.973 46.332 8.203 2.34-12.023-19.934-3.797 3.813-19.075 19.93 2.942 1.468-11.723-46.316-8.199-2.34 12.02 18.168 2.921-3.809 19.629-17.304-2.621zm19.652-92.629 31.95 8.789-36.93 10.852-3.82 13.203 45.73 12.293 2.637-11.731-31.645-8.496 37.215-12.019 3.809-12.012-46.016-12.313-2.93 11.434" transform="matrix(.13333 0 0 -.13333 0 142)"/><path style="fill:#b3c5cb;fill-opacity:1;fill-rule:nonzero;stroke:none" d="M564.242 7.398c-30.297 0-60.41 5.84-89.508 17.352l-21.211 9.629h-.007c-105.621 31.363-189.114 95.125-247.758 189.359-66.074 106.008-83.473 222.473-51.727 346.137 26.871 106.199 84.106 193.418 170.114 259.207 12.578 12.609 27.21 24.113 43.191 33.898l21.332 12.188c6.758 5.437 14.406 10.047 22.727 13.68a102.701 102.701 0 0 0 29.937 8.613c57.262 24.043 117.223 36.23 178.215 36.23 33.488 0 67.996-3.671 102.598-10.918 124.941-26.375 221.668-93.378 287.495-199.128 43.1-69.692 65.69-143.938 67.11-220.704.1-.293.14-.586.14-.898 0-.246-.01-.461-.06-.684.71-12.082.56-24.433-.44-36.742l-2.22-19.922c.03-.152.04-.34.04-.515 0-.418-.07-.821-.23-1.18-2.57-21.477-6.69-43.496-12.25-65.5-23.24-89.969-67.937-166.465-132.812-227.352-19.063-28.73-43.934-52.777-73.953-71.488-29.75-18.219-61.742-29.828-95.11-34.512-45.441-17.57-92.449-27.789-139.738-30.347-18.414-4.219-37.383-6.403-55.875-6.403M497.086 23.41c24.848-7.441 50.258-10.75 75.988-9.762-25.07 1.211-50.539 4.48-75.988 9.762m-41.25 16.61 38.777-9.88c42.121-9.09 84.325-12.55 125.172-10.28 21.91 5.09 44.762 13.402 67.711 24.69-31.461 4.348-64.582 13.93-98.629 28.516l-6.051 2.84-28.082 1.098c-54.3-28.485-100.5-32.774-137.621-12.766a235.858 235.858 0 0 1 38.723-24.218m242.527 3.23c-15.781-8.238-31.578-15.121-47.23-20.55 28.832 3.69 57.312 10.19 85.246 19.472-12.524-.512-25.223-.14-38.016 1.078m9.801 5.309c17.051-1.047 33.824-.547 50.172 1.523 15.039 5.828 30.258 12.629 45.398 20.25-15.089.535-31.199 3.711-47.976 9.426l-18.653-13.625c-9.734-6.363-19.41-12.235-28.941-17.574M300.316 801.582c-69.769-61.992-116.871-140.234-140.39-233.215-31.321-122-14.168-236.875 50.988-341.414C263.445 142.539 336.176 82.93 427.406 49.422c-38.633 25.566-69.359 61.918-91.582 108.422-36.429 28.386-68.058 64.09-94.047 106.121-30.914 50.32-49.992 103.566-56.714 158.281-18.895 39.785-26.661 82.442-23.067 126.817 5.899 71.035 40.09 132.031 101.617 181.308 8.969 26.453 21.258 50.285 36.703 71.211M597.828 75.891c34.391-14.13 67.785-23.012 99.324-26.41 11.985 6.37 24.254 13.648 36.504 21.652l15.157 11.074c-10.125 3.75-20.661 8.496-31.387 14.113-38.91-12.824-79.102-19.687-119.598-20.43m219.637-5.292a557.91 557.91 0 0 0-29.02-14.367c15.129 4.148 29.899 9.816 44.211 16.972a123.858 123.858 0 0 0-15.191-2.605m-451.641 66.875c9.059-27.012 23.942-47.778 44.293-61.778 35.188-24.574 80.125-23.593 134.137 2.801l-45.488 7.012c-49.403 10.39-94.032 27.851-132.942 51.965m395.879-53.282c19.192-6.105 37.274-8.695 53.934-7.648l28.508 16.887c19.699 12.207 38.636 25.652 56.242 39.929 12.242 24.59 18.492 57.246 18.605 97.176-22.586-26.129-48.969-50.144-78.5-71.453-23.73-28.047-50.219-53.223-78.789-74.89m129.543 34.253a556.47 556.47 0 0 0-43.961-30.21l-14.922-8.848a114.64 114.64 0 0 1 18.992 6.531c16.028 7.156 29.403 18.066 39.891 32.527M584.234 81.953c42.59-.613 84.922 5.528 125.903 18.41-17.942 10.223-37 23.067-56.774 38.25l-6.211 5.02-50.597-40.637-24.321-15.574zm-19.64.742 3.691-.144-2.211 1.004zm-201.496 63.692c39.675-25.672 85.675-44.149 136.757-54.903l53.59-8.242 6.102 3.535c-68.91 35.227-130.074 87.2-181.91 154.582l-22.164 12.032c-3.176-42.102-.618-78.071 7.625-107.004M725.406 99.07c10.047-5.039 19.875-9.246 29.313-12.527 23.394 17.422 45.41 37.207 65.676 59.016l-4.809-3.235c-29.43-17.937-59.703-32.453-90.18-43.254M390.063 235.363c50.496-63.058 109.531-111.758 175.652-144.894l27.297 17.461 49.445 39.707-39.492 34.914-10.891 1.043c-74.492 6.711-142.379 24.101-202.011 51.769m261.66-87.621 5.402-4.363c21.289-16.336 41.781-29.961 60.859-40.457 31.899 10.84 63.633 25.816 94.321 44.527l24.05 16.156c16.04 19.415 31.313 40.594 45.461 63.075-59.48-27.071-125.41-42.45-196.171-45.742zm-305.496 2.863c7.058-13.535 14.894-26.121 23.5-37.761-4.782 9.019-8.743 18.933-11.86 29.734zm578.796 87.122c.563-37.872-4.109-69.758-13.91-95.051l13.149 11.465c22.191 34.004 36.722 75.578 43.254 123.652l-25.508-18.457a5.81 5.81 0 0 0-.422-.391zm-584.359-75.903 14.75-10.172c-7.129 29.004-9.082 64.254-5.781 104.969a499.362 499.362 0 0 0-43.789 28.399l8.961-48.797c6.699-26.778 15.422-51.875 25.859-74.399m272.281 20.012 34.11-30.156 29.59 28.957c-20.922-.578-42.18-.157-63.7 1.199m-419.277 223.73c8.246-47.722 26.129-94.207 53.285-138.41 23.383-37.84 51.402-70.457 83.414-97.117-8.504 20-15.715 41.77-21.488 64.902l-10.191 55.403-21.7 16.902c-36.203 31.106-64.14 64.082-83.32 98.32m780.609-122.824c-5.152-42.398-16.332-80.039-33.32-112.195 55.316 57.316 93.923 127.336 114.893 208.445.97 3.801 1.87 7.59 2.74 11.391-16.96-40.254-45.18-76.301-84.313-107.641m-82.351-51.289c-11.36-18.633-23.492-36.441-36.211-53.18 23.539 18.805 44.719 39.43 63.18 61.532l-.188 5.851zm-286.36-43.023c26.157-1.914 52.168-2.422 77.418-1.504 42.012 44.961 81.942 100.293 118.68 164.472 23.801 41.571 44.219 83.094 60.68 123.407-12.836 30.078-27.848 61.054-44.617 92.09-52.454 95.898-112.684 174.199-179.039 232.785-62.555-52.051-120.575-124.453-172.473-215.207-21.297-37.09-39.883-74.325-55.238-110.684l36.156-72.344c46.898-84.961 100.222-156.66 158.433-213.015m260.098 278.515c-16.137-38.832-35.891-78.664-58.73-118.566-35.739-62.434-74.496-116.57-115.278-161.035 70.879 4.035 136.739 20.398 195.887 48.711l27.824 52.695c-7.129 56.387-23.844 116.301-49.703 178.195M381.676 246.113c61.582-30.41 132.547-49.414 210.969-56.472l3.312-.325c-56.543 55.965-108.394 126.329-154.195 209.305l-33.875 67.758c-26.231-63.867-43.043-126.848-50-187.324zm534.769 31.668-19.39-36.726 21.422 11.367-.301 7.273zM356.008 260.02l13.367-7.254-12.539 17.363zm565.59 27.675 2.816-31.855 13.082 7.805c12.84 18.347 24.266 38.054 33.969 58.613a514.078 514.078 0 0 1-4.922 90.535c-6.672-25.801-15.012-52.02-24.867-78.152zm-617.282 5.996c14.528-10.859 29.938-21.054 45.872-30.363l1.39 14.184-14.723 22.832c-13.539 21.844-25.722 43.914-36.289 65.777-.628-24.273.622-48.57 3.75-72.43m666.329 13.164a411.973 411.973 0 0 0-19.059-33.085l16.937 12.238zm-669.559 72.383c11.57-25.078 25.34-50.527 40.91-75.644l10.731-16.641c7.687 60.391 25.027 123.137 51.597 186.692-20.258 45.136-35.879 89.199-46.519 131.113l-14.84-34.914c-24.918-64.949-39.02-129.102-41.879-190.606m676.43-58.554v-6.043l-2.348-23.332c51.672 42.851 82.912 94.386 92.882 153.281 2.01 19.121 2.91 38.41 2.65 57.336-4.24 66.726-36.78 128.855-96.833 184.883 47.263-88.371 58.143-184.336 32.303-285.539-7.092-28.094-16.705-55.086-28.576-80.254-.02-.118-.051-.223-.078-.332M190.969 423.965c18.656-39.141 48.886-76.817 89.867-112.012l16.699-13.015c-3.07 26.101-3.941 52.675-2.597 79.109-37.883 82.375-54.75 166.183-50.165 249.109 1.196 23.11 3.981 44.992 8.301 65.285-22.726-36.296-39.859-76.921-51-121.003-13.082-50.586-16.82-100.188-11.105-147.473m677.949 50.91c25.855-60.734 43.035-119.68 51.117-175.371l16 37.391c11.5 30.507 20.961 61.242 28.063 91.261-9.973 55.02-29.532 110.418-58.164 164.805-8.579-38.477-21.016-78.164-37.016-118.086m101.418-47.141a520.667 520.667 0 0 0 7.492-91.433c9.098 21.121 16.637 43.406 22.452 66.465 26.32 103.054 13.98 200.574-36.624 290l6.071-20.461c19.418-77.91 19.621-159.981.628-244.051v-.18c0-.105-.007-.222-.019-.34M262.855 707.238c-6.468-24.316-10.511-51.359-12.011-80.414-4.352-78.379 10.742-157.566 44.847-235.601 4.043 58.562 18.036 119.343 41.645 180.894l18.051 42.492c-7.539 32.141-12.395 63.692-14.41 93.809-1.403 23.723-1.106 45.402.886 64.551l-23.64-12.606-27.711-17.609zm-2.519 12.567c-55.723-47.137-86.762-104.707-92.277-171.25-2.996-36.942 2.086-72.696 15.105-106.504-2.891 42.304 1.481 86.242 13.031 130.898 12.77 50.547 33.332 96.653 61.11 137.012zm647.578-117.657c28.301-52.371 48.262-105.761 59.422-158.914 15.801 78.379 14.637 154.832-3.469 227.481l-10.035 33.797-33.496 25.363c.785-20.168-.094-42.598-2.621-66.789-2.27-20.098-5.57-40.586-9.801-60.938m-546.137 11.875c10.164-42.304 25.559-86.921 45.786-132.734 15.019 34.949 32.964 70.656 53.382 106.199 52.039 91 110.243 163.711 173.032 216.184l-28.532 23.445c-25.203.957-49.961.453-73.711-1.492-71.23-51.113-128.41-122.297-169.957-211.602m281.719 189.504c66.567-58.964 126.977-137.589 179.57-233.73 15.829-29.289 30.086-58.527 42.461-87.016 15.727 40.11 27.828 79.895 35.977 118.403l-21.262 36.929c-45.629 73.606-99.961 132.875-161.418 176.078l-51.281 8.114zm321.078-100.226c50.426-43.477 84.106-90.821 100.676-141.336-9.09 54.715-29.42 107.801-60.76 158.476-34.955 56.141-78.732 101.211-130.943 134.922 13.824-12.441 24.668-28.605 32.297-48.222 20.078-24.512 36.73-54.348 49.523-88.723l5.18-8.164zM733.508 811.066c57.555-42.871 108.625-99.933 151.945-169.828l17.883-31.082c3.539 17.942 6.336 35.938 8.34 53.594 2.699 25.867 3.5 49.688 2.355 70.801-52.699 35.508-113.355 61.222-180.523 76.515m-385.153-34.699c-2.347-19.785-2.789-42.508-1.308-67.566 1.832-27.395 6.039-56.028 12.527-85.227 40.071 83.574 93.981 151.106 160.41 200.969-61.539-6.359-119.218-22.551-171.629-48.176m571.508-38.515 30.313-22.95-.293.801c-10.039 15.324-20.879 29.699-32.301 42.832zm-651.05-11.141-.977-3.195 4.527 5.82zm98.691 125.144c-13.941-8.742-27.277-18.015-39.649-27.585-23.929-23.735-42.621-53.137-55.449-87.336l13.961 10.343c17.895 20.653 38.317 39.825 60.699 57 4.59 18.489 11.43 34.422 20.438 47.578m548.883-82.812c7.898-8.672 15.547-17.918 22.875-27.664-7.989 17.359-17.11 33.277-27.266 47.644 1.75-6.335 3.219-13.007 4.391-19.98m-195.242 50.906c71.589-14.629 136.168-40.719 192.113-77.574l-2.633 23.965c-42.812 47.058-95.992 81.621-158.07 102.73-19.153-6.414-39.66-16.539-61.063-30.144zm-375.731-24.668c-13.91-11.031-27.012-22.847-39.148-35.32l8.898 5.644 27.629 14.758zm416.719 76.867c56.734-20.527 105.926-52.351 146.461-94.726-2.078 9.621-4.781 18.535-8.047 26.609-26.332 32.473-59.602 56.797-98.891 72.317l-3.621 1.308c-11.418-.058-23.461-1.902-35.902-5.508m-409.598-71.406-2.98-17.043c54.941 26.25 115.468 42.336 180.05 47.856l12.391 8.355 23.961 14.778c-17.621 11.132-34.57 19.843-50.445 25.898-42.867-10.625-85.067-28.738-125.449-53.816zm263.434 25.684 22.824-18.856 20.012 15.625-13.059 1.2zm-233.672 34.199c-12.192-12.957-21.422-30.059-27.484-50.906l31.921 22.129c38.301 23.797 78.129 41.375 118.633 52.382-13.558 4.469-26.64 7.149-39.023 7.989-14.719-1.758-29.098-4.922-42.75-9.399l-.11-.039zm292.156-33.254 31.668-5.016-20.187 12.926zm142.281 49.145c28.25-12.969 53.184-30.625 74.454-52.715-8.52 14.707-19.446 26.64-32.641 35.605-12.809 9.071-26.824 14.793-41.813 17.11m-209.066-43.43 38.566-2.625 19.621-1.816 14.34 10.066a461.27 461.27 0 0 1-49.543 24.629l-19.367 7.539-33.48-16.594c9.66-6.316 19.672-13.426 29.863-21.199m-36.031 17.969-29.84-18.606c18.008 1.145 36.394 1.477 55.25 1.02-8.672 6.402-17.192 12.304-25.41 17.586m47.672 23.215 13.636-5.305a471.479 471.479 0 0 0 52.852-26.465c19.656 12.688 38.644 22.539 56.598 29.375l-40.071 10.879-34.418 5.984c-15.918-3.101-32.23-7.945-48.597-14.468m-92.977 8.484c14.512-6.238 29.781-14.492 45.531-24.629l31.559 15.637c-17.168 6.062-34.145 10.828-50.547 14.187zm160.106 8.918 17.207-2.988 48.812-13.235c10.508 3.614 20.809 6.055 30.766 7.305-31.746 9.836-63.989 12.844-96.785 8.918m-116.204-1.477c13.387-3.398 27.063-7.656 40.829-12.734 12.929 5.449 25.851 9.91 38.621 13.312-26.879 2.383-53.317 2.196-79.45-.578m230.954-6.425c10.058 0 19.757-1.336 29.039-3.993-33.551 16.383-70.024 28.75-109.332 37.039-34.18 7.161-68.278 10.793-101.348 10.793-54.676 0-108.5-9.921-160.262-29.523l6.848.227h.16c.051 0 .102 0 .152-.012l86.567-4.219h.023c36.379 5.566 75.711 5.879 114.738.82 44.446 8.606 88.622 4.836 131.313-11.152.699.012 1.398.02 2.102.02m-294.856 6.535a231.755 231.755 0 0 0 9.645-3.379l11.988 2.344-21.633 1.035" transform="matrix(.13333 0 0 -.13333 0 142)"/><path style="fill:#698992;fill-opacity:1;fill-rule:nonzero;stroke:none" d="M669.781 0h-26.058l-61.102 3.09C490.703 13.809 408.91 47.352 339.32 102.773c-32.058 15.176-60.148 36.922-83.48 64.649-22.578 26.941-38.867 57.109-48.406 89.68-23.664 41.777-40.582 86.226-50.305 132.136-19.488 48.575-23.496 98.496-11.93 148.371l6.871 24.454c14.641 108.25 64.629 199.097 148.578 269.988 94.493 79.902 206.715 112.91 333.454 98.047 108.492-12.032 202.839-56.532 280.402-132.305 14.367-10.801 28.195-23.984 40.828-38.926l14.648-19.519c.364-.278.649-.649.848-1.067l16.336-19.668c.156-.215.309-.429.41-.664l12.321-26.531c.275-.313.485-.695.595-1.113 50.39-83.235 73.21-176.153 67.85-276.184-7.43-127.527-58.99-232.695-153.227-312.59-61.461-51.75-130.429-84.09-204.992-96.12L670.191.03a2.886 2.886 0 0 0-.41-.031M484.254 76.348c48.219-43.72 101.891-67.36 159.617-70.278l65.422 5.36c.078.011.172.02.25.039 63.648 14.011 119.281 54.898 165.246 121.597C794.43 73.367 700.953 49 596.633 60.578c-29.106 3.57-57.082 9.492-83.219 17.598zM361.699 93.457c64.524-46.348 138.891-74.688 221.43-84.316l7.164-.36c-40.863 11.52-79.16 33.957-114.48 67.086-42.083-.457-80.352 5.395-114.114 17.59m528.082 51.289C854 88.184 811.918 47.871 764.211 24.352c52.551 16.386 101.809 43.793 146.98 81.82 49.711 42.141 87.368 91.418 112.779 147.414-10.22-14.926-24.099-27.512-41.45-37.57-21.719-23.418-49.239-44.207-81.817-61.797zM528.988 79.949c21.766-5.945 44.696-10.426 68.352-13.336 105.558-11.691 200.121 14 280.781 76.61l-19.687-8.809c-59.262-24.121-123.051-36.34-189.657-36.34h-.015c-16.731 0-33.934.774-51.129 2.297a483.915 483.915 0 0 0-88.645-20.422m-186.386 28c36.453-17.187 79.296-25.945 127.378-26.035l-22.468 23.731-23.992 13.8c-37.11-5.707-68.957-5.539-95.192.606zm120.789-10.234 14.832-15.672 19.906 1.285a402.01 402.01 0 0 0-34.738 14.387m-12.02 12.734c19.891-10.398 40.992-19.187 62.738-26.133a477.588 477.588 0 0 1 88.262 17.61c-26.601 3.023-53.859 7.812-81.226 14.297l-48.797 13.222-30.754-6.984zm180.68-5.086c12.367-.8 24.66-1.211 36.711-1.211 65.828 0 128.84 12.059 187.289 35.836l32.308 14.485 19.789 36.933-66.726-7.043-61.07 1.875c-47.801-35.332-97.614-62.488-148.301-80.875m-148.168 27.246 38.75-10.5c31.832-7.531 63.578-12.785 94.285-15.578 52.594 17.453 104.383 44.477 154.074 80.395-39.238 3.316-80.031 10.105-121.414 20.203-56.086-33.887-111.765-58.914-165.695-74.52m-50.832-11.64 3.609-2.082-1.918 2.363zm-115.809 8.535c25.879-8.723 58.809-10.434 98.219-5.078-29.238 18.621-56.738 41.551-81.828 68.242-31.422 19.637-60.485 42.52-86.461 68.125-2.961-19.777-2.57-38.176 1.148-54.805l20.649-25.91c15.285-18.027 31.535-35.066 48.273-50.574m-4.383-4.902a241.147 241.147 0 0 1 3.063-1.985l-1.813 1.535c-.41.145-.828.301-1.25.45m41.582 55.679c21.95-21.062 45.508-39.336 70.289-54.488l5.852.937-18.391 24.852c-20.027 8.672-39.371 18.281-57.75 28.699m68.661-33.23 14.207-19.199 6.562 1.203 17.227 4.004a662.9 662.9 0 0 0-37.996 13.992m-6.942 9.441c18.02-7.625 36.961-14.597 56.313-20.75 54.797 14.727 111.57 39.446 168.836 73.516-40.926 10.773-83.536 25.012-126.739 42.383-66.832 26.933-126.019 57.929-176.039 92.187 14.684-69.582 40.77-132.558 77.629-187.336m-162.969 33.637a107.475 107.475 0 0 1 9.442-18.352c9.539-15.254 22.527-27.168 38.777-35.554-12.797 12.558-25.238 25.965-37.137 40.007zm662.391 2.293-17.223-32.149c13.121 11.77 25.493 24.219 36.879 37.129zm-578.031 4.973c21.371-13.332 44.32-25.559 68.363-36.399-35.641 55.242-60.734 118.41-74.625 187.93l-38.16 29.414-3.227-5.469c-13.089-23.457-23.441-45.828-30.754-66.453 15.332-29.902 34.985-59.094 58.434-86.789zm608.031 2.695a441.903 441.903 0 0 0-25.07-27.219c16.769 10.684 31.871 22.305 45.156 34.817-6.355-2.778-13.074-5.305-20.086-7.598m-724.391 36.015c6.813-16.679 15.551-32.628 26.137-47.675a110.08 110.08 0 0 0-4.648 14.988zm566.641-44.027 53.367-1.648 70.324 7.453c26.77 57.105 42.75 120.594 47.579 188.926-33.579-62.395-81.84-120.539-143.633-173zM656.441 211.73c41.661-9.894 82.661-16.386 122-19.308l33.18 26.086c65.027 55.222 114.973 116.836 148.32 183.074l.372 53.566-21.7 20.704c-48.394-74.192-116.672-144.836-203.004-210.024zm309.532 188.133C962.41 327.355 946.609 260 918.988 199.551l23.121 5.859c40.055 49.055 66.111 106.758 77.481 171.574-9.44 17.723-22.625 36.473-39.277 55.821l-14.215-32.383a2.762 2.762 0 0 0-.125-.559m58.057-32.234c-11.63-59.262-35.577-112.531-71.292-158.606 9.332 3.465 18.024 7.422 25.953 11.805 27.679 30.559 46.419 66.731 55.679 107.5l.64 3.227c-1.85 11.601-5.53 23.699-10.98 36.074m-775.51-99.633c21.089-21.133 44.293-40.445 69.191-57.613l-4.707 5.262c-22.301 26.328-41.191 53.964-56.262 82.285zm88.273 84.438c50.727-35.442 111.297-67.454 180.047-95.168 44.961-18.067 89.25-32.735 131.672-43.594l83.558 57.09c86 64.953 153.989 135.371 202.032 209.297-61.059 54.992-141.329 102.707-238.618 141.804-39.875 16.313-79.285 29.817-117.191 40.168-21.699-13.769-43.801-29.211-65.734-45.898-77.215-57.781-139.84-120.313-186.137-185.86 2.012-26.796 5.496-52.968 10.371-77.839m-123.75-92.856 27.039-41.14c-1.715 14.863-1.113 30.839 1.789 47.707l-15.832 16.89-21.828 26.692c1.238-17.215 4.203-34.043 8.832-50.149m823.467 52.766c-8.41-28.992-21.69-55.496-39.678-79.16 12.798 10.39 22.758 22.707 29.718 36.804 6.45 13.403 9.79 27.59 9.96 42.356M203.66 320l26.949-32.957 13.024-13.898 8.98 32.734c-18.433 36.641-31.336 75.391-38.425 115.391-8.508-35.711-12.047-69.727-10.528-101.27m-33.34 41.211c7.86-27.703 18.41-54.746 31.571-80.859-2.301 12.226-3.711 24.746-4.219 37.461-10.469 14.382-19.621 28.898-27.352 43.398m870.86-29.793c1.68-10.715 1.86-21.203.57-31.406 11.31 35.801 18.16 73.98 20.53 114.453 4.99 93.086-14.74 179.93-58.66 258.398l1.44-7.765c7.32-26.778 10.47-56.055 9.29-86.817.06-.222.09-.449.09-.703 10.51-35.39 16.26-72.723 17.1-111.023.07-.227.11-.461.13-.703 15.64-43.848 18.83-89.075 9.51-134.434M217.949 436.262c6.031-42.414 18.633-83.528 37.473-122.344 7.258 19.402 17.058 40.215 29.207 61.98l3.785 6.387-47.66 44.727-18.875 22.101zM163.18 390.48c8.429-20.46 19.89-41.156 34.109-61.652-.57 32.051 3.824 66.406 13.082 102.317l1.402 5.593-2.554 28.172c-36.856 50.5-48.106 96.235-33.551 136.125-7.117-12.734-12.996-26.16-17.617-40.222l-4.18-41.458c-2.5-43.82.52-86.855 8.981-127.812a2.9 2.9 0 0 0 .328-1.063m862.69-12.445c5.16-10.437 9.15-20.75 11.92-30.789 4.86 33.508 2.71 66.848-6.43 99.524l-.19-18.723zm-729.538 5.52 33.231-25.625c-3.809 20.636-6.672 42.09-8.563 63.996zm686.637 55.461c15.492-17.766 28.161-35.09 37.781-51.645l4.37 41.027.36 36.739c-5.27 15.011-12.18 30.051-20.59 44.812l-3.3-14.715c-4.996-18.945-11.246-37.812-18.621-56.218M224 455.977l21.141-24.786 46.547-43.632 28.531 44.386-.699 10.887c-4.559 74.805 2.351 144.453 20.539 207.266C285.43 591.438 246.422 526.199 224 455.977m742.344-7.149-.231-33.262 9.789 22.305zM147.781 519.16c-4.633-29.043-3.82-58.086 2.399-86.816-3.239 28.301-4.047 57.363-2.399 86.816m201.578 140.684c-20.57-65.067-28.578-137.949-23.777-216.629l.219-3.371c46.203 63.867 107.758 124.765 183.109 181.133 20.449 15.586 41.09 30.097 61.422 43.183-66.621 17.41-130.992 25.664-191.711 24.578zm616.973-202.129 5.367-5.723 6.781-7.82c6.778 17.254 12.559 34.898 17.2 52.508l4.68 20.84-21.278 31.406-16.852-33.692 3-38.25zm-750.211-1.629.348-3.891.761 2.461zm-.98 11.082 4.324-5.496c24.035 73.172 65.926 140.906 124.566 201.426l8.309 24.597c-41.828-2.5-76.578-9.89-103.391-22-19.648-42.89-31.136-91.172-34.14-143.515-.985-18.418-.879-36.914.332-55.012m726.769 13.937 17.973-17.167-.711 12.632-2.313 29.418zM240.543 661.77c-25.504-12.747-43.91-30.411-54.773-52.598-18.977-38.203-11.317-82.824 22.769-132.766a468.247 468.247 0 0 0 .211 46.106c2.891 50.508 13.578 97.312 31.793 139.258m766.277-143.071c6.88-11.511 12.88-23.219 17.92-34.976-1.6 26.062-5.54 51.597-11.77 76.257-1.33-13.41-3.39-27.226-6.15-41.281M585.199 666.418c36.512-10.207 74.344-23.305 112.559-38.918 97.515-39.199 178.109-87.031 239.59-142.195l18.644 31.16c-3.234 25.91-7.738 51.223-13.41 75.285-61.121 63.184-139.453 109.805-232.82 138.57-40.614-15.957-82.492-37.429-124.563-63.902m396.942-111.164L1002 525.93c3.22 17.597 5.31 34.785 6.21 51.16l-9.358 25.84c-3.852-14.969-9.454-30.946-16.711-47.676m-31.348 27.793c4.035-18.418 7.422-37.5 10.066-56.953l14.223 28.418-19.789 23.769zm-2.684 11.699 11.719-12.43 18.031-21.64c7.922 18.672 13.704 36.355 17.2 52.605-16.891 41.106-41.215 80.625-72.348 117.532l-31.27 33.855-17.207.801c33.907-50.489 58.75-107.891 73.875-170.723m-372.64 332.785c-101.188 0-192.328-33.691-270.899-100.109-75.449-63.731-123.082-143.789-141.84-238.301 19.434 41.555 50.782 76.699 93.508 104.758 22.032 40.008 52.051 76.172 89.254 107.508 44.969 38.078 94.719 64.543 147.875 78.683 36.442 24.032 77.301 37.379 121.442 39.696 71.058 3.789 136.289-21.746 193.992-76.094 27.09-5.137 52.172-13.887 74.949-26.121-71.387 60.254-155.371 95.984-250.336 106.512-19.637 2.296-39.121 3.468-57.945 3.468m425.911-313.742 7.12-19.648c-.16 14.804-1.37 29.211-3.63 43.117-.68-7.59-1.84-15.422-3.49-23.469M718.832 733.828c87.551-28.066 161.758-71.922 220.879-130.527-15.5 59.668-39.988 114.199-72.871 162.258l-66.789-7.825c-26.531-5.515-53.879-13.554-81.219-23.906m181.828 29.817 26.602-28.809c29.48-34.941 52.91-72.141 69.828-110.773 2.281 14.16 2.95 27.558 1.98 39.929-4.269 14.738-9.836 29.016-16.558 42.473l-.039.066-27.012 36.692c-14.746 10.449-33.152 17.297-54.801 20.422m-650.051-80.957c-12.394-8.782-23.73-18.215-33.976-28.274 8.262 5.996 17.527 11.309 27.797 15.906zm138.895 12.222c59.559 0 122.726-8.844 187.785-26.305 41.363 26.375 82.606 47.997 122.723 64.356l-37.153 9.91c-67.957 16.106-133.386 21.399-194.425 15.684-23.09-14.856-46.106-32.032-68.414-51.094l-14.43-12.559c1.301.008 2.613.008 3.914.008m-30.633-6.851-5.211-15.43 16.223 16.016zm-97.98 1.609-7.789-15.586c27.039 10.957 61.097 17.629 101.418 19.824a432.156 432.156 0 0 0 21.371 47.071 458.109 458.109 0 0 1-46.461-16.004c-25.489-10.246-48.539-22.121-68.539-35.305M384 743.234a427.12 427.12 0 0 1-22.828-48.964l15.039.515 19.84 17.278c19.387 16.562 39.301 31.718 59.34 45.183-24.379-2.773-48.34-7.48-71.391-14.012m94.215 126.063c-46.031-14.734-89.285-39.082-128.805-72.547-33.519-28.242-61.109-60.441-82.16-95.859 17.969 10.964 38.07 20.933 59.902 29.707 17.289 7.011 35.039 13.007 52.789 17.8l13.942 24.211c24.887 40.438 53.187 72.871 84.332 96.688m39.008-102.41c46.886 0 96.39-6.106 147.117-18.125l45.125-12.043c30.027 11.816 60.176 20.898 89.617 27.004l63.668 7.468-16.441 22.239-21.426 25.203c-12.602 8.371-25.621 16.008-38.723 22.715-25.359 2.961-52.82 3.195-81.617.683-77.863-6.504-153.512-32.215-225.063-76.484a536.99 536.99 0 0 0 37.743 1.34m-21.332 107.566c-36.082-23.918-68.641-59.219-96.789-104.949l-10.821-18.789c25.231 6.773 51.469 11.394 78.121 13.758 75.258 48.593 155.207 76.726 237.621 83.601 23.047 2.016 45.231 2.309 66.29.844-39.493 17.812-82.375 29.527-127.711 34.902-51.789 5.789-101.172 2.645-146.711-9.367m398.308-103.887c18.711-1.941 35.305-6.433 49.563-13.41l-33.61 36.41c-26.812 20.157-58.379 34.461-93.664 42.313l12.364-12.586c22.98-14.941 44.957-32.68 65.347-52.727m-24.304 1.184 15.066-.695c-13.02 12.39-26.641 23.84-40.727 34.211l6.836-8.059zm-81.883 75.469 9.726-1.66c-54.734 48.855-116.039 71.679-182.597 68.14-36.727-1.929-71.133-11.687-102.508-29.058 41.137 8.582 84.926 10.308 130.66 5.222 51.867-6.14 100.551-20.5 144.719-42.644" transform="matrix(.13333 0 0 -.13333 0 142)"/><path style="fill:#0f4b84;fill-opacity:1;fill-rule:nonzero;stroke:none" d="M2189.77 69.277v255.95h-11.03l-90.75-240.586v240.586h-7.71V200.906h-267.83v116.633h56.21v7.688h-120.5v-7.688h56.22V200.906h-267.84v124.321h-11.02l-90.73-240.586v240.586h-7.73V200.906h-213.08v124.321h-8.09V200.906h-92.95v124.321h-8.08V69.277h8.08v124.317h92.95V69.277h8.09v124.317h213.08V69.277h9.92l45.19 121.399 46.66 122.117V69.277h7.71v124.317h267.84V69.277h8.07v124.317h267.83V69.277h9.92l45.19 121.399 46.65 122.117V69.277h7.73" transform="matrix(.13333 0 0 -.13333 0 142)"/><path style="fill:none;stroke:#fff;stroke-width:20.47999954;stroke-linecap:butt;stroke-linejoin:miter;stroke-miterlimit:4;stroke-dasharray:none;stroke-opacity:1" d="M2189.77 69.277v255.95h-11.03l-90.75-240.586v240.586h-7.71V200.906h-267.83v116.633h56.21v7.688h-120.5v-7.688h56.22V200.906h-267.84v124.321h-11.02l-90.73-240.586v240.586h-7.73V200.906h-213.08v124.321h-8.09V200.906h-92.95v124.321h-8.08V69.277h8.08v124.317h92.95V69.277h8.09v124.317h213.08V69.277h9.92l45.19 121.399 46.66 122.117V69.277h7.71v124.317h267.84V69.277h8.07v124.317h267.83V69.277h9.92l45.19 121.399 46.65 122.117V69.277z" transform="matrix(.13333 0 0 -.13333 0 142)"/><path style="fill:#0f4b84;fill-opacity:1;fill-rule:nonzero;stroke:none" d="M2136.8 381.945h52.97v7.957h-44.16v55.567h36.67v7.961h-36.67v53.66h44.16v7.961h-52.97zm-120.19 0h8.82v133.106h-8.82zm-12.69 32.325v14.453c0 21.113-9.77 31.55-31.28 31.55h-16.53v54.778h-8.81V381.945h27.63c20.95 0 28.99 12.91 28.99 32.325m-8.81-.579c0-14.453-5.19-23.789-20.18-23.789h-18.82v62.414h16.53c15.55 0 22.47-6.847 22.47-23.019zm-168.18-31.746h9v133.106h-9v-62.578h-41.87v62.578h-8.81V381.945h8.81v62.567h41.87zm-170.88-.011h8.83V515.07h-28.02c-20.54 0-28.8-11.222-28.8-30.05v-11.602c.01-15.613 6.14-24.551 19.38-27.578-13.82-3.047-19.37-12.735-19.37-27.195V397.93c0-5.528-.38-11.61-3.27-15.985h9.2c2.31 3.993 2.88 8.75 2.88 15.985v20.91c0 17.683 9.8 22.637 25.17 22.637l14-.012zm.01 67.519h-14.21c-15.76 0-24.97 4.387-24.97 22.266v12.551c0 14.257 5.56 22.82 20.17 22.82h19.01zm-159.18 18.82v14.461c0 19.407-8.03 32.317-28.78 32.317h-27.83V381.945h8.8v54.774h16.73c21.32 0 31.08 10.437 31.08 31.554m-8.8-.57c0-16.172-6.72-23.015-22.28-23.015h-16.73v62.402h19.03c14.99 0 19.98-9.324 19.98-23.789zm-158.79-54.012v15.032c0 21.308-10.54 29.656-31.29 29.656h-19.21v48.711h45.52v7.961h-54.33V381.945h29.55c20.94 0 29.76 11.582 29.76 31.746m-8.82-.566c0-15.039-5.96-23.223-20.94-23.223h-20.74v60.325H1298c14.99 0 22.47-4.571 22.47-20.93zm-213.86-31.18h52.96v7.957h-44.16v55.567h36.66v7.961h-36.66v53.66h44.16v7.961h-52.96zm-109.274 86.328v14.461c0 19.407-8.039 32.317-28.789 32.317h-27.82V381.945h8.808v54.774h16.711c21.32 0 31.09 10.437 31.09 31.554m-8.813-.57c0-16.172-6.714-23.015-22.277-23.015h-16.711v62.402h19.012c14.988 0 19.976-9.324 19.976-23.789zm-211.179-85.758h52.965v7.957h-44.153v55.567h36.672v7.961h-36.672v53.66h44.153v7.961h-52.965zm-110.418 32.5v15.223h-8.418v-15.789c0-14.262-5.574-24.926-20.363-24.926-14.79 0-20.368 10.664-20.368 24.926v69.234c0 14.27 5.578 25.11 20.368 25.11 14.789 0 20.363-10.84 20.363-25.11v-11.597h8.418v11.035c0 19.207-8.418 33.633-28.981 33.633-20.547 0-28.968-14.426-28.968-33.633v-68.106c0-19.211 8.421-33.644 28.968-33.644 20.563 0 28.981 14.433 28.981 33.644" transform="matrix(.13333 0 0 -.13333 0 142)"/><path style="fill:none;stroke:#fff;stroke-width:20.47999954;stroke-linecap:butt;stroke-linejoin:miter;stroke-miterlimit:4;stroke-dasharray:none;stroke-opacity:1" d="M2136.8 381.945h52.97v7.957h-44.16v55.567h36.67v7.961h-36.67v53.66h44.16v7.961h-52.97zm-120.19 0h8.82v133.106h-8.82zm-12.69 32.325v14.453c0 21.113-9.77 31.55-31.28 31.55h-16.53v54.778h-8.81V381.945h27.63c20.95 0 28.99 12.91 28.99 32.325zm-8.81-.579c0-14.453-5.19-23.789-20.18-23.789h-18.82v62.414h16.53c15.55 0 22.47-6.847 22.47-23.019zm-168.18-31.746h9v133.106h-9v-62.578h-41.87v62.578h-8.81V381.945h8.81v62.567h41.87zm-170.88-.011h8.83V515.07h-28.02c-20.54 0-28.8-11.222-28.8-30.05v-11.602c.01-15.613 6.14-24.551 19.38-27.578-13.82-3.047-19.37-12.735-19.37-27.195V397.93c0-5.528-.38-11.61-3.27-15.985h9.2c2.31 3.993 2.88 8.75 2.88 15.985v20.91c0 17.683 9.8 22.637 25.17 22.637l14-.012zm.01 67.519h-14.21c-15.76 0-24.97 4.387-24.97 22.266v12.551c0 14.257 5.56 22.82 20.17 22.82h19.01zm-159.18 18.82v14.461c0 19.407-8.03 32.317-28.78 32.317h-27.83V381.945h8.8v54.774h16.73c21.32 0 31.08 10.437 31.08 31.554zm-8.8-.57c0-16.172-6.72-23.015-22.28-23.015h-16.73v62.402h19.03c14.99 0 19.98-9.324 19.98-23.789zm-158.79-54.012v15.032c0 21.308-10.54 29.656-31.29 29.656h-19.21v48.711h45.52v7.961h-54.33V381.945h29.55c20.94 0 29.76 11.582 29.76 31.746zm-8.82-.566c0-15.039-5.96-23.223-20.94-23.223h-20.74v60.325H1298c14.99 0 22.47-4.571 22.47-20.93zm-213.86-31.18h52.96v7.957h-44.16v55.567h36.66v7.961h-36.66v53.66h44.16v7.961h-52.96zm-109.274 86.328v14.461c0 19.407-8.039 32.317-28.789 32.317h-27.82V381.945h8.808v54.774h16.711c21.32 0 31.09 10.437 31.09 31.554zm-8.813-.57c0-16.172-6.714-23.015-22.277-23.015h-16.711v62.402h19.012c14.988 0 19.976-9.324 19.976-23.789zm-211.179-85.758h52.965v7.957h-44.153v55.567h36.672v7.961h-36.672v53.66h44.153v7.961h-52.965zm-110.418 32.5v15.223h-8.418v-15.789c0-14.262-5.574-24.926-20.363-24.926-14.79 0-20.368 10.664-20.368 24.926v69.234c0 14.27 5.578 25.11 20.368 25.11 14.789 0 20.363-10.84 20.363-25.11v-11.597h8.418v11.035c0 19.207-8.418 33.633-28.981 33.633-20.547 0-28.968-14.426-28.968-33.633v-68.106c0-19.211 8.421-33.644 28.968-33.644 20.563 0 28.981 14.433 28.981 33.644z" transform="matrix(.13333 0 0 -.13333 0 142)"/><path style="fill:#0f4b84;fill-opacity:1;fill-rule:nonzero;stroke:none" d="m2179.53 326.035-90.88-242.11v242.11h-7.72V200.938H1812.7v117.363h56.29v7.734H1748.3v-7.734h56.3V200.938h-268.22v125.097h-11.04l-90.88-242.11v242.11h-7.73V200.938h-213.4v125.097h-8.1V200.938h-93.08v125.097h-8.09V68.477h8.09v125.097h93.08V68.477h8.1v125.097h213.4V68.477h9.94l45.25 122.16 46.73 122.89V68.477h7.73v125.097h268.22V68.477h8.1v125.097h268.23V68.477h9.92l45.26 122.16 46.73 122.89V68.477h7.73v257.558h-11.04M2137.55 381.152h53.02v8.059h-44.2v56.219h36.7v8.058h-36.7v54.293h44.2v8.059h-53.02zm-120.31 0h8.82V515.84h-8.82zm-12.7 32.696v14.629c0 21.378-9.78 31.945-31.32 31.945h-16.54v55.418h-8.81V381.152h27.66c20.96 0 29.01 13.059 29.01 32.696m-8.82-.567c0-14.636-5.19-24.07-20.19-24.07h-18.85v63.152h16.54c15.58 0 22.5-6.933 22.5-23.3zm-168.35-32.129h9.01V515.84h-9.01v-63.309h-41.92v63.309h-8.82V381.152h8.82v63.321h41.92zm-171.05-.007h8.84v134.714h-28.06c-20.57 0-28.83-11.355-28.83-30.41v-11.738c.01-15.789 6.15-24.844 19.41-27.91-13.84-3.067-19.4-12.879-19.4-27.508v-20.969c0-5.594-.38-11.75-3.27-16.172h9.21c2.3 4.036 2.88 8.848 2.88 16.172v21.164c0 17.891 9.81 22.899 25.19 22.899l14.03-.008zm.01 68.328h-14.23c-15.77 0-25 4.425-25 22.519v12.696c0 14.433 5.58 23.093 20.19 23.093h19.04zm-159.35 19.035v14.637c0 19.636-8.05 32.695-28.81 32.695h-27.86V381.152h8.82v55.43h16.73c21.35 0 31.12 10.559 31.12 31.926m-8.81-.578c0-16.36-6.73-23.301-22.31-23.301h-16.73v63.152h19.04c15 0 20-9.429 20-24.058zm-158.96-54.649v15.196c0 21.574-10.55 30.011-31.31 30.011h-19.23v49.293h45.56v8.059h-54.39V381.152h29.59c20.96 0 29.78 11.719 29.78 32.129m-8.82-.586c0-15.207-5.96-23.484-20.96-23.484h-20.76v61.031h19.23c14.99 0 22.49-4.629 22.49-21.179zm-214.09-31.543h53.02v8.059h-44.2v56.219h36.7v8.058h-36.7v54.293h44.2v8.059h-53.02zm-109.37 87.356v14.637c0 19.636-8.047 32.695-28.821 32.695h-27.851V381.152h8.812v55.43h16.731c21.347 0 31.129 10.559 31.129 31.926m-8.821-.578c0-16.36-6.726-23.301-22.308-23.301H949.07v63.152h19.039c15 0 20-9.429 20-24.058zm-211.398-86.778h53.019v8.059h-44.21v56.219h36.71v8.058h-36.71v54.293h44.21v8.059h-53.019zm-110.527 32.891v15.402h-8.434v-15.988c0-14.426-5.582-25.203-20.391-25.203-14.8 0-20.379 10.777-20.379 25.203v70.07c0 14.442 5.579 25.411 20.379 25.411 14.809 0 20.391-10.969 20.391-25.411v-11.742h8.434v11.164c0 19.446-8.434 34.055-29.016 34.055-20.566 0-29.008-14.609-29.008-34.055v-68.906c0-19.441 8.442-34.055 29.008-34.055 20.582 0 29.016 14.614 29.016 34.055" transform="matrix(.13333 0 0 -.13333 0 142)"/></svg>