<svg width="1135" height="56" viewBox="0 0 1135 56" fill="none" xmlns="http://www.w3.org/2000/svg">
<path d="M1.55 39.9845L1.5655 37.9075L11.656 28.7935C12.524 28.0082 13.0975 27.2642 13.3765 26.5615C13.6658 25.8485 13.8105 25.1045 13.8105 24.3295C13.8105 23.4098 13.5935 22.578 13.1595 21.834C12.7255 21.09 12.1417 20.501 11.408 20.067C10.6743 19.6227 9.85283 19.4005 8.9435 19.4005C7.99283 19.4005 7.1455 19.6278 6.4015 20.0825C5.6575 20.5372 5.0685 21.1365 4.6345 21.8805C4.21083 22.6245 4.00417 23.4357 4.0145 24.314H1.6895C1.6895 22.9603 2.00983 21.7462 2.6505 20.6715C3.29117 19.5968 4.15917 18.7547 5.2545 18.145C6.34983 17.525 7.58983 17.215 8.9745 17.215C10.3282 17.215 11.5423 17.5353 12.617 18.176C13.702 18.8063 14.5545 19.664 15.1745 20.749C15.8048 21.8237 16.12 23.0223 16.12 24.345C16.12 25.275 16.0063 26.0965 15.779 26.8095C15.562 27.5122 15.2158 28.1683 14.7405 28.778C14.2755 29.3773 13.6813 29.9973 12.958 30.638L3.999 38.729L3.6425 37.799H16.12V39.9845H1.55ZM19.2297 39.9845L19.2452 37.9075L29.3357 28.7935C30.2037 28.0082 30.7772 27.2642 31.0562 26.5615C31.3455 25.8485 31.4902 25.1045 31.4902 24.3295C31.4902 23.4098 31.2732 22.578 30.8392 21.834C30.4052 21.09 29.8214 20.501 29.0877 20.067C28.354 19.6227 27.5325 19.4005 26.6232 19.4005C25.6725 19.4005 24.8252 19.6278 24.0812 20.0825C23.3372 20.5372 22.7482 21.1365 22.3142 21.8805C21.8905 22.6245 21.6839 23.4357 21.6942 24.314H19.3692C19.3692 22.9603 19.6895 21.7462 20.3302 20.6715C20.9709 19.5968 21.8389 18.7547 22.9342 18.145C24.0295 17.525 25.2695 17.215 26.6542 17.215C28.0079 17.215 29.222 17.5353 30.2967 18.176C31.3817 18.8063 32.2342 19.664 32.8542 20.749C33.4845 21.8237 33.7997 23.0223 33.7997 24.345C33.7997 25.275 33.686 26.0965 33.4587 26.8095C33.2417 27.5122 32.8955 28.1683 32.4202 28.778C31.9552 29.3773 31.361 29.9973 30.6377 30.638L21.6787 38.729L21.3222 37.799H33.7997V39.9845H19.2297ZM37.9634 40V37.3495H40.6139V40H37.9634ZM52.6855 40.465C51.3111 40.465 50.0711 40.1447 48.9655 39.504C47.8701 38.8633 47.0021 37.9953 46.3615 36.9C45.7208 35.7943 45.4005 34.5543 45.4005 33.18V24.5C45.4005 23.1257 45.7208 21.8908 46.3615 20.7955C47.0021 19.6898 47.8701 18.8167 48.9655 18.176C50.0711 17.5353 51.3111 17.215 52.6855 17.215C54.0598 17.215 55.2946 17.5353 56.39 18.176C57.4956 18.8167 58.3688 19.6898 59.0095 20.7955C59.6501 21.8908 59.9705 23.1257 59.9705 24.5V33.18C59.9705 34.5543 59.6501 35.7943 59.0095 36.9C58.3688 37.9953 57.4956 38.8633 56.39 39.504C55.2946 40.1447 54.0598 40.465 52.6855 40.465ZM52.6855 38.264C53.6051 38.264 54.4421 38.0418 55.1965 37.5975C55.9508 37.1428 56.5501 36.5383 56.9945 35.784C57.4388 35.0297 57.661 34.1978 57.661 33.2885V24.3915C57.661 23.4718 57.4388 22.6348 56.9945 21.8805C56.5501 21.1262 55.9508 20.5268 55.1965 20.0825C54.4421 19.6278 53.6051 19.4005 52.6855 19.4005C51.7658 19.4005 50.9288 19.6278 50.1745 20.0825C49.4201 20.5268 48.8208 21.1262 48.3765 21.8805C47.9321 22.6348 47.71 23.4718 47.71 24.3915V33.2885C47.71 34.1978 47.9321 35.0297 48.3765 35.784C48.8208 36.5383 49.4201 37.1428 50.1745 37.5975C50.9288 38.0418 51.7658 38.264 52.6855 38.264ZM71.1259 40.465C69.7309 40.465 68.496 40.186 67.4214 39.628C66.357 39.07 65.52 38.2898 64.9104 37.2875C64.311 36.2748 64.0114 35.0917 64.0114 33.738C64.0114 32.3533 64.3472 31.1237 65.0189 30.049C65.6905 28.964 66.7135 28.1425 68.0879 27.5845L68.0569 28.4835C66.9099 28.0598 66.0367 27.3675 65.4374 26.4065C64.838 25.4455 64.5384 24.3812 64.5384 23.2135C64.5384 21.9735 64.8225 20.9092 65.3909 20.0205C65.9592 19.1215 66.7342 18.4292 67.7159 17.9435C68.7079 17.4578 69.8445 17.215 71.1259 17.215C72.4072 17.215 73.5439 17.4578 74.5359 17.9435C75.5279 18.4292 76.308 19.1215 76.8764 20.0205C77.4447 20.9092 77.7289 21.9735 77.7289 23.2135C77.7289 24.3812 77.4395 25.4403 76.8609 26.391C76.2925 27.3417 75.4194 28.0392 74.2414 28.4835L74.1639 27.5845C75.5382 28.1322 76.5664 28.9485 77.2484 30.0335C77.9407 31.1185 78.2869 32.3533 78.2869 33.738C78.2869 35.0917 77.982 36.2748 77.3724 37.2875C76.7627 38.2898 75.9205 39.07 74.8459 39.628C73.7712 40.186 72.5312 40.465 71.1259 40.465ZM71.1259 38.2795C72.5312 38.2795 73.673 37.892 74.5514 37.117C75.4297 36.3317 75.8689 35.2053 75.8689 33.738C75.8689 32.25 75.4349 31.1237 74.5669 30.359C73.6989 29.584 72.5519 29.1965 71.1259 29.1965C69.6999 29.1965 68.558 29.584 67.7004 30.359C66.8427 31.1237 66.4139 32.25 66.4139 33.738C66.4139 35.2053 66.8479 36.3317 67.7159 37.117C68.5839 37.892 69.7205 38.2795 71.1259 38.2795ZM71.1259 26.9955C72.3659 26.9955 73.3734 26.6803 74.1484 26.05C74.9234 25.4093 75.3109 24.4638 75.3109 23.2135C75.3109 21.9632 74.9234 21.028 74.1484 20.408C73.3734 19.7777 72.3659 19.4625 71.1259 19.4625C69.8859 19.4625 68.8784 19.7777 68.1034 20.408C67.3387 21.028 66.9564 21.9632 66.9564 23.2135C66.9564 24.4638 67.3387 25.4093 68.1034 26.05C68.8784 26.6803 69.8859 26.9955 71.1259 26.9955Z" fill="black"/>
<path d="M1056.96 39.9845L1056.98 37.9075L1067.07 28.7935C1067.94 28.0082 1068.51 27.2642 1068.79 26.5615C1069.08 25.8485 1069.22 25.1045 1069.22 24.3295C1069.22 23.4098 1069 22.578 1068.57 21.834C1068.14 21.09 1067.55 20.501 1066.82 20.067C1066.09 19.6227 1065.26 19.4005 1064.35 19.4005C1063.4 19.4005 1062.56 19.6278 1061.81 20.0825C1061.07 20.5372 1060.48 21.1365 1060.05 21.8805C1059.62 22.6245 1059.42 23.4357 1059.43 24.314H1057.1C1057.1 22.9603 1057.42 21.7462 1058.06 20.6715C1058.7 19.5968 1059.57 18.7547 1060.67 18.145C1061.76 17.525 1063 17.215 1064.39 17.215C1065.74 17.215 1066.95 17.5353 1068.03 18.176C1069.11 18.8063 1069.97 19.664 1070.59 20.749C1071.22 21.8237 1071.53 23.0223 1071.53 24.345C1071.53 25.275 1071.42 26.0965 1071.19 26.8095C1070.97 27.5122 1070.63 28.1683 1070.15 28.778C1069.69 29.3773 1069.09 29.9973 1068.37 30.638L1059.41 38.729L1059.05 37.799H1071.53V39.9845H1056.96ZM1081.26 40.4495C1080.15 40.4495 1079.14 40.2532 1078.21 39.8605C1077.28 39.4678 1076.47 38.9098 1075.8 38.1865C1075.13 37.4528 1074.64 36.5797 1074.33 35.567L1076.5 34.916C1076.87 36.0217 1077.48 36.8587 1078.33 37.427C1079.19 37.9953 1080.15 38.2692 1081.23 38.2485C1082.22 38.2278 1083.07 38.0057 1083.79 37.582C1084.51 37.1583 1085.06 36.5693 1085.44 35.815C1085.83 35.0607 1086.02 34.1875 1086.02 33.1955C1086.02 31.6765 1085.57 30.4572 1084.68 29.5375C1083.81 28.6075 1082.64 28.1425 1081.2 28.1425C1080.79 28.1425 1080.37 28.1993 1079.93 28.313C1079.48 28.4163 1079.07 28.5662 1078.69 28.7625L1077.54 26.949L1086.22 18.9355L1086.59 19.8655H1075.21V17.68H1088.11V19.8965L1080.55 27.1195L1080.52 26.2205C1082.07 26.0242 1083.43 26.1998 1084.61 26.7475C1085.79 27.2952 1086.7 28.1322 1087.37 29.2585C1088.04 30.3745 1088.37 31.6868 1088.37 33.1955C1088.37 34.6215 1088.06 35.8822 1087.44 36.9775C1086.83 38.0625 1085.99 38.915 1084.92 39.535C1083.84 40.1447 1082.62 40.4495 1081.26 40.4495ZM1092.83 40V37.3495H1095.48V40H1092.83ZM1107.55 40.465C1106.18 40.465 1104.94 40.1447 1103.83 39.504C1102.74 38.8633 1101.87 37.9953 1101.23 36.9C1100.59 35.7943 1100.27 34.5543 1100.27 33.18V24.5C1100.27 23.1257 1100.59 21.8908 1101.23 20.7955C1101.87 19.6898 1102.74 18.8167 1103.83 18.176C1104.94 17.5353 1106.18 17.215 1107.55 17.215C1108.93 17.215 1110.16 17.5353 1111.26 18.176C1112.36 18.8167 1113.24 19.6898 1113.88 20.7955C1114.52 21.8908 1114.84 23.1257 1114.84 24.5V33.18C1114.84 34.5543 1114.52 35.7943 1113.88 36.9C1113.24 37.9953 1112.36 38.8633 1111.26 39.504C1110.16 40.1447 1108.93 40.465 1107.55 40.465ZM1107.55 38.264C1108.47 38.264 1109.31 38.0418 1110.06 37.5975C1110.82 37.1428 1111.42 36.5383 1111.86 35.784C1112.31 35.0297 1112.53 34.1978 1112.53 33.2885V24.3915C1112.53 23.4718 1112.31 22.6348 1111.86 21.8805C1111.42 21.1262 1110.82 20.5268 1110.06 20.0825C1109.31 19.6278 1108.47 19.4005 1107.55 19.4005C1106.63 19.4005 1105.8 19.6278 1105.04 20.0825C1104.29 20.5268 1103.69 21.1262 1103.24 21.8805C1102.8 22.6348 1102.58 23.4718 1102.58 24.3915V33.2885C1102.58 34.1978 1102.8 35.0297 1103.24 35.784C1103.69 36.5383 1104.29 37.1428 1105.04 37.5975C1105.8 38.0418 1106.63 38.264 1107.55 38.264ZM1125.99 40.465C1124.6 40.465 1123.36 40.186 1122.29 39.628C1121.22 39.07 1120.39 38.2898 1119.78 37.2875C1119.18 36.2748 1118.88 35.0917 1118.88 33.738C1118.88 32.3533 1119.21 31.1237 1119.89 30.049C1120.56 28.964 1121.58 28.1425 1122.95 27.5845L1122.92 28.4835C1121.78 28.0598 1120.9 27.3675 1120.3 26.4065C1119.7 25.4455 1119.4 24.3812 1119.4 23.2135C1119.4 21.9735 1119.69 20.9092 1120.26 20.0205C1120.83 19.1215 1121.6 18.4292 1122.58 17.9435C1123.57 17.4578 1124.71 17.215 1125.99 17.215C1127.27 17.215 1128.41 17.4578 1129.4 17.9435C1130.39 18.4292 1131.17 19.1215 1131.74 20.0205C1132.31 20.9092 1132.6 21.9735 1132.6 23.2135C1132.6 24.3812 1132.31 25.4403 1131.73 26.391C1131.16 27.3417 1130.29 28.0392 1129.11 28.4835L1129.03 27.5845C1130.4 28.1322 1131.43 28.9485 1132.11 30.0335C1132.81 31.1185 1133.15 32.3533 1133.15 33.738C1133.15 35.0917 1132.85 36.2748 1132.24 37.2875C1131.63 38.2898 1130.79 39.07 1129.71 39.628C1128.64 40.186 1127.4 40.465 1125.99 40.465ZM1125.99 38.2795C1127.4 38.2795 1128.54 37.892 1129.42 37.117C1130.3 36.3317 1130.74 35.2053 1130.74 33.738C1130.74 32.25 1130.3 31.1237 1129.43 30.359C1128.57 29.584 1127.42 29.1965 1125.99 29.1965C1124.57 29.1965 1123.42 29.584 1122.57 30.359C1121.71 31.1237 1121.28 32.25 1121.28 33.738C1121.28 35.2053 1121.71 36.3317 1122.58 37.117C1123.45 37.892 1124.59 38.2795 1125.99 38.2795ZM1125.99 26.9955C1127.23 26.9955 1128.24 26.6803 1129.01 26.05C1129.79 25.4093 1130.18 24.4638 1130.18 23.2135C1130.18 21.9632 1129.79 21.028 1129.01 20.408C1128.24 19.7777 1127.23 19.4625 1125.99 19.4625C1124.75 19.4625 1123.74 19.7777 1122.97 20.408C1122.2 21.028 1121.82 21.9632 1121.82 23.2135C1121.82 24.4638 1122.2 25.4093 1122.97 26.05C1123.74 26.6803 1124.75 26.9955 1125.99 26.9955Z" fill="black"/>
<line x1="93" y1="31.5" x2="413" y2="31.5" stroke="black"/>
<line x1="720" y1="31.5" x2="1040" y2="31.5" stroke="black"/>
<path d="M428.4 23V8.6H430.49V14.81H437.69V8.6H439.79V23H437.69V16.78H430.49V23H428.4ZM441.599 23L446.279 8.6H449.289L453.969 23H451.799L447.489 9.86H448.029L443.769 23H441.599ZM444.029 19.75V17.79H451.549V19.75H444.029ZM466.843 25.13V23H455.763V8.6H457.853V21.12H465.273V8.87H467.363V21.12H468.933V25.13H466.843ZM481.859 23H479.739V12.29L472.649 23H470.529V8.6H472.649V19.3L479.739 8.6H481.859V23ZM490.66 23.3C489.22 23.3 487.993 22.9867 486.98 22.36C485.967 21.7267 485.19 20.8467 484.65 19.72C484.117 18.5933 483.85 17.2867 483.85 15.8C483.85 14.3133 484.117 13.0067 484.65 11.88C485.19 10.7533 485.967 9.87667 486.98 9.25C487.993 8.61667 489.22 8.3 490.66 8.3C492.093 8.3 493.317 8.61667 494.33 9.25C495.35 9.87667 496.127 10.7533 496.66 11.88C497.193 13.0067 497.46 14.3133 497.46 15.8C497.46 17.2867 497.193 18.5933 496.66 19.72C496.127 20.8467 495.35 21.7267 494.33 22.36C493.317 22.9867 492.093 23.3 490.66 23.3ZM490.66 21.31C491.68 21.3233 492.527 21.1 493.2 20.64C493.88 20.1733 494.39 19.5267 494.73 18.7C495.07 17.8667 495.24 16.9 495.24 15.8C495.24 14.7 495.07 13.74 494.73 12.92C494.39 12.0933 493.88 11.45 493.2 10.99C492.527 10.53 491.68 10.2967 490.66 10.29C489.64 10.2767 488.79 10.5 488.11 10.96C487.437 11.42 486.93 12.0667 486.59 12.9C486.25 13.7333 486.077 14.7 486.07 15.8C486.063 16.9 486.23 17.8633 486.57 18.69C486.91 19.51 487.42 20.15 488.1 20.61C488.787 21.07 489.64 21.3033 490.66 21.31ZM499.455 23V8.6H501.545V14.81H508.745V8.6H510.845V23H508.745V16.78H501.545V23H499.455ZM512.654 23L517.334 8.6H520.344L525.024 23H522.854L518.544 9.86H519.084L514.824 23H512.654ZM515.084 19.75V17.79H522.604V19.75H515.084ZM526.482 23V21.21C526.822 21.2433 527.102 21.2267 527.322 21.16C527.549 21.0867 527.739 20.9467 527.892 20.74C528.045 20.5267 528.175 20.22 528.282 19.82C528.395 19.42 528.505 18.9033 528.612 18.27C528.759 17.4633 528.882 16.6333 528.982 15.78C529.082 14.9267 529.165 14.08 529.232 13.24C529.305 12.3933 529.365 11.5767 529.412 10.79C529.459 10.0033 529.495 9.27333 529.522 8.6H538.972V23H536.882V10.57H531.482C531.449 11.1033 531.409 11.7 531.362 12.36C531.315 13.02 531.259 13.72 531.192 14.46C531.125 15.2 531.042 15.9633 530.942 16.75C530.849 17.5367 530.729 18.3267 530.582 19.12C530.462 19.8 530.315 20.4133 530.142 20.96C529.969 21.5067 529.735 21.9633 529.442 22.33C529.149 22.69 528.765 22.93 528.292 23.05C527.819 23.1767 527.215 23.16 526.482 23ZM541.769 23V8.6H543.859V13.77H547.589C547.722 13.77 547.892 13.7767 548.099 13.79C548.312 13.7967 548.509 13.8167 548.689 13.85C549.489 13.9767 550.156 14.25 550.689 14.67C551.229 15.09 551.632 15.62 551.899 16.26C552.172 16.9 552.309 17.61 552.309 18.39C552.309 19.1633 552.176 19.87 551.909 20.51C551.642 21.15 551.239 21.68 550.699 22.1C550.166 22.52 549.496 22.7933 548.689 22.92C548.509 22.9467 548.316 22.9667 548.109 22.98C547.902 22.9933 547.729 23 547.589 23H541.769ZM543.859 21.03H547.509C547.636 21.03 547.779 21.0233 547.939 21.01C548.106 20.9967 548.262 20.97 548.409 20.93C548.842 20.83 549.186 20.6467 549.439 20.38C549.699 20.1067 549.886 19.7967 549.999 19.45C550.119 19.0967 550.179 18.7433 550.179 18.39C550.179 18.0367 550.119 17.6833 549.999 17.33C549.886 16.9767 549.699 16.6667 549.439 16.4C549.186 16.1267 548.842 15.94 548.409 15.84C548.262 15.8 548.106 15.7767 547.939 15.77C547.779 15.7567 547.636 15.75 547.509 15.75H543.859V21.03ZM554.513 23V8.6H556.603V14.81H563.803V8.6H565.903V23H563.803V16.78H556.603V23H554.513ZM568.703 23V8.6H570.793V13.77H574.523C574.656 13.77 574.826 13.7767 575.033 13.79C575.246 13.7967 575.443 13.8167 575.623 13.85C576.423 13.9767 577.089 14.25 577.623 14.67C578.163 15.09 578.566 15.62 578.833 16.26C579.106 16.9 579.243 17.61 579.243 18.39C579.243 19.1633 579.109 19.87 578.842 20.51C578.576 21.15 578.173 21.68 577.633 22.1C577.099 22.52 576.429 22.7933 575.623 22.92C575.443 22.9467 575.249 22.9667 575.043 22.98C574.836 22.9933 574.663 23 574.523 23H568.703ZM570.793 21.03H574.443C574.569 21.03 574.713 21.0233 574.873 21.01C575.039 20.9967 575.196 20.97 575.343 20.93C575.776 20.83 576.119 20.6467 576.373 20.38C576.633 20.1067 576.819 19.7967 576.933 19.45C577.053 19.0967 577.113 18.7433 577.113 18.39C577.113 18.0367 577.053 17.6833 576.933 17.33C576.819 16.9767 576.633 16.6667 576.373 16.4C576.119 16.1267 575.776 15.94 575.343 15.84C575.196 15.8 575.039 15.7767 574.873 15.77C574.713 15.7567 574.569 15.75 574.443 15.75H570.793V21.03ZM580.663 23V8.6H582.753V23H580.663ZM585.568 23V8.6H587.688V19.3L594.778 8.6H596.898V23H594.778V12.29L587.688 23H585.568ZM591.268 7.36C590.735 7.36 590.251 7.23 589.818 6.97C589.385 6.71 589.038 6.36333 588.778 5.93C588.518 5.49667 588.388 5.01333 588.388 4.48H590.048C590.048 4.81333 590.168 5.1 590.408 5.34C590.648 5.58 590.935 5.7 591.268 5.7C591.608 5.7 591.895 5.58 592.128 5.34C592.368 5.1 592.488 4.81333 592.488 4.48H594.148C594.148 5.01333 594.018 5.49667 593.758 5.93C593.498 6.36333 593.148 6.71 592.708 6.97C592.275 7.23 591.795 7.36 591.268 7.36ZM603.693 23V8.6H605.783V15.32L611.813 8.6H614.413L608.043 15.63L614.883 23H612.203L605.783 16.12V23H603.693ZM621.558 23.3C620.118 23.3 618.892 22.9867 617.878 22.36C616.865 21.7267 616.088 20.8467 615.548 19.72C615.015 18.5933 614.748 17.2867 614.748 15.8C614.748 14.3133 615.015 13.0067 615.548 11.88C616.088 10.7533 616.865 9.87667 617.878 9.25C618.892 8.61667 620.118 8.3 621.558 8.3C622.992 8.3 624.215 8.61667 625.228 9.25C626.248 9.87667 627.025 10.7533 627.558 11.88C628.092 13.0067 628.358 14.3133 628.358 15.8C628.358 17.2867 628.092 18.5933 627.558 19.72C627.025 20.8467 626.248 21.7267 625.228 22.36C624.215 22.9867 622.992 23.3 621.558 23.3ZM621.558 21.31C622.578 21.3233 623.425 21.1 624.098 20.64C624.778 20.1733 625.288 19.5267 625.628 18.7C625.968 17.8667 626.138 16.9 626.138 15.8C626.138 14.7 625.968 13.74 625.628 12.92C625.288 12.0933 624.778 11.45 624.098 10.99C623.425 10.53 622.578 10.2967 621.558 10.29C620.538 10.2767 619.688 10.5 619.008 10.96C618.335 11.42 617.828 12.0667 617.488 12.9C617.148 13.7333 616.975 14.7 616.968 15.8C616.962 16.9 617.128 17.8633 617.468 18.69C617.808 19.51 618.318 20.15 618.998 20.61C619.685 21.07 620.538 21.3033 621.558 21.31ZM630.353 23V8.6H632.443V14.81H639.643V8.6H641.743V23H639.643V16.78H632.443V23H630.353ZM644.552 23V8.6H646.642V15.32L652.672 8.6H655.272L648.902 15.63L655.742 23H653.062L646.642 16.12V23H644.552ZM659.22 23L661.04 19.27L656.02 8.6H658.37L662.13 17.05L665.99 8.6H668.22L661.48 23H659.22ZM669.787 23V8.6H675.607C675.747 8.6 675.92 8.60667 676.127 8.62C676.333 8.62667 676.53 8.64667 676.717 8.68C677.517 8.80667 678.183 9.08 678.717 9.5C679.257 9.92 679.66 10.45 679.927 11.09C680.193 11.73 680.327 12.4367 680.327 13.21C680.327 13.99 680.193 14.7 679.927 15.34C679.66 15.98 679.257 16.51 678.717 16.93C678.183 17.35 677.517 17.6233 676.717 17.75C676.53 17.7767 676.33 17.7967 676.117 17.81C675.91 17.8233 675.74 17.83 675.607 17.83H671.877V23H669.787ZM671.877 15.85H675.527C675.66 15.85 675.807 15.8433 675.967 15.83C676.133 15.8167 676.29 15.7933 676.437 15.76C676.863 15.66 677.207 15.4767 677.467 15.21C677.727 14.9367 677.913 14.6233 678.027 14.27C678.14 13.9167 678.197 13.5633 678.197 13.21C678.197 12.8567 678.14 12.5067 678.027 12.16C677.913 11.8067 677.727 11.4967 677.467 11.23C677.207 10.9567 676.863 10.77 676.437 10.67C676.29 10.63 676.133 10.6033 675.967 10.59C675.807 10.5767 675.66 10.57 675.527 10.57H671.877V15.85ZM688.336 23.3C686.896 23.3 685.669 22.9867 684.656 22.36C683.642 21.7267 682.866 20.8467 682.326 19.72C681.792 18.5933 681.526 17.2867 681.526 15.8C681.526 14.3133 681.792 13.0067 682.326 11.88C682.866 10.7533 683.642 9.87667 684.656 9.25C685.669 8.61667 686.896 8.3 688.336 8.3C689.996 8.3 691.369 8.72 692.456 9.56C693.549 10.4 694.309 11.53 694.736 12.95L692.616 13.52C692.336 12.5133 691.836 11.7233 691.116 11.15C690.402 10.5767 689.476 10.29 688.336 10.29C687.316 10.29 686.466 10.52 685.786 10.98C685.106 11.44 684.592 12.0833 684.246 12.91C683.906 13.7367 683.736 14.7 683.736 15.8C683.729 16.9 683.896 17.8633 684.236 18.69C684.582 19.5167 685.096 20.16 685.776 20.62C686.462 21.08 687.316 21.31 688.336 21.31C689.476 21.31 690.402 21.0233 691.116 20.45C691.836 19.87 692.336 19.08 692.616 18.08L694.736 18.65C694.309 20.07 693.549 21.2 692.456 22.04C691.369 22.88 689.996 23.3 688.336 23.3ZM428.4 50V35.6H430.49V42.32L436.52 35.6H439.12L432.75 42.63L439.59 50H436.91L430.49 43.12V50H428.4ZM446.265 50.3C444.825 50.3 443.599 49.9867 442.585 49.36C441.572 48.7267 440.795 47.8467 440.255 46.72C439.722 45.5933 439.455 44.2867 439.455 42.8C439.455 41.3133 439.722 40.0067 440.255 38.88C440.795 37.7533 441.572 36.8767 442.585 36.25C443.599 35.6167 444.825 35.3 446.265 35.3C447.699 35.3 448.922 35.6167 449.935 36.25C450.955 36.8767 451.732 37.7533 452.265 38.88C452.799 40.0067 453.065 41.3133 453.065 42.8C453.065 44.2867 452.799 45.5933 452.265 46.72C451.732 47.8467 450.955 48.7267 449.935 49.36C448.922 49.9867 447.699 50.3 446.265 50.3ZM446.265 48.31C447.285 48.3233 448.132 48.1 448.805 47.64C449.485 47.1733 449.995 46.5267 450.335 45.7C450.675 44.8667 450.845 43.9 450.845 42.8C450.845 41.7 450.675 40.74 450.335 39.92C449.995 39.0933 449.485 38.45 448.805 37.99C448.132 37.53 447.285 37.2967 446.265 37.29C445.245 37.2767 444.395 37.5 443.715 37.96C443.042 38.42 442.535 39.0667 442.195 39.9C441.855 40.7333 441.682 41.7 441.675 42.8C441.669 43.9 441.835 44.8633 442.175 45.69C442.515 46.51 443.025 47.15 443.705 47.61C444.392 48.07 445.245 48.3033 446.265 48.31ZM455.06 50V35.6H460.88C461.02 35.6 461.193 35.6067 461.4 35.62C461.607 35.6267 461.803 35.6467 461.99 35.68C462.79 35.8067 463.457 36.08 463.99 36.5C464.53 36.92 464.933 37.45 465.2 38.09C465.467 38.73 465.6 39.4367 465.6 40.21C465.6 40.99 465.467 41.7 465.2 42.34C464.933 42.98 464.53 43.51 463.99 43.93C463.457 44.35 462.79 44.6233 461.99 44.75C461.803 44.7767 461.603 44.7967 461.39 44.81C461.183 44.8233 461.013 44.83 460.88 44.83H457.15V50H455.06ZM457.15 42.85H460.8C460.933 42.85 461.08 42.8433 461.24 42.83C461.407 42.8167 461.563 42.7933 461.71 42.76C462.137 42.66 462.48 42.4767 462.74 42.21C463 41.9367 463.187 41.6233 463.3 41.27C463.413 40.9167 463.47 40.5633 463.47 40.21C463.47 39.8567 463.413 39.5067 463.3 39.16C463.187 38.8067 463 38.4967 462.74 38.23C462.48 37.9567 462.137 37.77 461.71 37.67C461.563 37.63 461.407 37.6033 461.24 37.59C461.08 37.5767 460.933 37.57 460.8 37.57H457.15V42.85ZM467.599 50V35.6H479.049V50H476.959V37.57H469.689V50H467.599ZM487.867 50.3C486.427 50.3 485.2 49.9867 484.187 49.36C483.174 48.7267 482.397 47.8467 481.857 46.72C481.324 45.5933 481.057 44.2867 481.057 42.8C481.057 41.3133 481.324 40.0067 481.857 38.88C482.397 37.7533 483.174 36.8767 484.187 36.25C485.2 35.6167 486.427 35.3 487.867 35.3C489.3 35.3 490.524 35.6167 491.537 36.25C492.557 36.8767 493.334 37.7533 493.867 38.88C494.4 40.0067 494.667 41.3133 494.667 42.8C494.667 44.2867 494.4 45.5933 493.867 46.72C493.334 47.8467 492.557 48.7267 491.537 49.36C490.524 49.9867 489.3 50.3 487.867 50.3ZM487.867 48.31C488.887 48.3233 489.734 48.1 490.407 47.64C491.087 47.1733 491.597 46.5267 491.937 45.7C492.277 44.8667 492.447 43.9 492.447 42.8C492.447 41.7 492.277 40.74 491.937 39.92C491.597 39.0933 491.087 38.45 490.407 37.99C489.734 37.53 488.887 37.2967 487.867 37.29C486.847 37.2767 485.997 37.5 485.317 37.96C484.644 38.42 484.137 39.0667 483.797 39.9C483.457 40.7333 483.284 41.7 483.277 42.8C483.27 43.9 483.437 44.8633 483.777 45.69C484.117 46.51 484.627 47.15 485.307 47.61C485.994 48.07 486.847 48.3033 487.867 48.31ZM496.662 50V35.6H502.482C502.622 35.6 502.795 35.6067 503.002 35.62C503.208 35.6267 503.405 35.6467 503.592 35.68C504.392 35.8067 505.058 36.08 505.592 36.5C506.132 36.92 506.535 37.45 506.802 38.09C507.068 38.73 507.202 39.4367 507.202 40.21C507.202 40.99 507.068 41.7 506.802 42.34C506.535 42.98 506.132 43.51 505.592 43.93C505.058 44.35 504.392 44.6233 503.592 44.75C503.405 44.7767 503.205 44.7967 502.992 44.81C502.785 44.8233 502.615 44.83 502.482 44.83H498.752V50H496.662ZM498.752 42.85H502.402C502.535 42.85 502.682 42.8433 502.842 42.83C503.008 42.8167 503.165 42.7933 503.312 42.76C503.738 42.66 504.082 42.4767 504.342 42.21C504.602 41.9367 504.788 41.6233 504.902 41.27C505.015 40.9167 505.072 40.5633 505.072 40.21C505.072 39.8567 505.015 39.5067 504.902 39.16C504.788 38.8067 504.602 38.4967 504.342 38.23C504.082 37.9567 503.738 37.77 503.312 37.67C503.165 37.63 503.008 37.6033 502.842 37.59C502.682 37.5767 502.535 37.57 502.402 37.57H498.752V42.85ZM507.4 50L512.08 35.6H515.09L519.77 50H517.6L513.29 36.86H513.83L509.57 50H507.4ZM509.83 46.75V44.79H517.35V46.75H509.83ZM523.963 50V37.57H519.173V35.6H530.843V37.57H526.053V50H523.963ZM543.773 50H541.653V39.29L534.563 50H532.443V35.6H534.563V46.3L541.653 35.6H543.773V50ZM546.564 50V35.6H552.224C553.137 35.6 553.904 35.7867 554.524 36.16C555.144 36.5333 555.611 37.0167 555.924 37.61C556.237 38.1967 556.394 38.8167 556.394 39.47C556.394 40.2633 556.197 40.9433 555.804 41.51C555.417 42.0767 554.894 42.4633 554.234 42.67L554.214 42.18C555.134 42.4067 555.841 42.85 556.334 43.51C556.827 44.1633 557.074 44.9267 557.074 45.8C557.074 46.6467 556.904 47.3833 556.564 48.01C556.231 48.6367 555.741 49.1267 555.094 49.48C554.454 49.8267 553.677 50 552.764 50H546.564ZM548.684 48.01H552.444C552.917 48.01 553.341 47.92 553.714 47.74C554.094 47.56 554.391 47.3033 554.604 46.97C554.824 46.63 554.934 46.2267 554.934 45.76C554.934 45.3267 554.837 44.9367 554.644 44.59C554.457 44.2367 554.184 43.96 553.824 43.76C553.471 43.5533 553.054 43.45 552.574 43.45H548.684V48.01ZM548.684 41.48H552.194C552.581 41.48 552.927 41.4033 553.234 41.25C553.547 41.09 553.794 40.8633 553.974 40.57C554.161 40.27 554.254 39.91 554.254 39.49C554.254 38.93 554.067 38.47 553.694 38.11C553.321 37.75 552.821 37.57 552.194 37.57H548.684V41.48ZM559.064 50V35.6H561.154V41.81H568.354V35.6H570.454V50H568.354V43.78H561.154V50H559.064ZM573.253 50V35.6H575.343V40.77H579.073C579.207 40.77 579.377 40.7767 579.583 40.79C579.797 40.7967 579.993 40.8167 580.173 40.85C580.973 40.9767 581.64 41.25 582.173 41.67C582.713 42.09 583.117 42.62 583.383 43.26C583.657 43.9 583.793 44.61 583.793 45.39C583.793 46.1633 583.66 46.87 583.393 47.51C583.127 48.15 582.723 48.68 582.183 49.1C581.65 49.52 580.98 49.7933 580.173 49.92C579.993 49.9467 579.8 49.9667 579.593 49.98C579.387 49.9933 579.213 50 579.073 50H573.253ZM575.343 48.03H578.993C579.12 48.03 579.263 48.0233 579.423 48.01C579.59 47.9967 579.747 47.97 579.893 47.93C580.327 47.83 580.67 47.6467 580.923 47.38C581.183 47.1067 581.37 46.7967 581.483 46.45C581.603 46.0967 581.663 45.7433 581.663 45.39C581.663 45.0367 581.603 44.6833 581.483 44.33C581.37 43.9767 581.183 43.6667 580.923 43.4C580.67 43.1267 580.327 42.94 579.893 42.84C579.747 42.8 579.59 42.7767 579.423 42.77C579.263 42.7567 579.12 42.75 578.993 42.75H575.343V48.03ZM585.213 50V35.6H587.303V50H585.213ZM588.919 50L593.829 42.71L589.049 35.6H591.609L595.119 40.94L598.609 35.6H601.179L596.399 42.71L601.299 50H598.739L595.119 44.49L591.489 50H588.919ZM606.896 50V35.6H608.786L614.006 46.43L619.196 35.6H621.106V49.99H619.126V40.14L614.476 50H613.526L608.866 40.14V50H606.896ZM623.908 50V35.6H633.108V37.57H625.998V41.61H631.908V43.58H625.998V48.03H633.108V50H623.908ZM634.779 52.4V48.03C635.273 48.03 635.679 47.9067 635.999 47.66C636.319 47.4067 636.573 47.0633 636.759 46.63C636.953 46.19 637.099 45.69 637.199 45.13C637.306 44.57 637.386 43.98 637.439 43.36C637.519 42.52 637.586 41.7 637.639 40.9C637.699 40.0933 637.753 39.26 637.799 38.4C637.853 37.54 637.909 36.6033 637.969 35.59L647.189 35.6V48.03H648.259V52.4H646.159V50H636.869V52.4H634.779ZM638.209 48.03H645.099V37.57L639.899 37.56C639.853 38.2933 639.813 38.99 639.779 39.65C639.746 40.31 639.703 40.9767 639.649 41.65C639.603 42.3167 639.543 43.0333 639.469 43.8C639.396 44.5333 639.319 45.1567 639.239 45.67C639.159 46.1767 639.039 46.6167 638.879 46.99C638.726 47.3633 638.503 47.71 638.209 48.03ZM661.781 50H659.661V39.29L652.571 50H650.451V35.6H652.571V46.3L659.661 35.6H661.781V50ZM663.572 50L668.252 35.6H671.262L675.942 50H673.772L669.462 36.86H670.002L665.742 50H663.572ZM666.002 46.75V44.79H673.522V46.75H666.002Z" fill="#002882"/>
</svg>
